<svg width="48" height="48" viewBox="0 0 48 48" fill="none" xmlns="http://www.w3.org/2000/svg">
<rect width="48" height="48" rx="7.05882" fill="#231E54"/>
<path d="M15.2036 20.7162C14.9586 21.3458 14.7758 22.0081 14.6632 22.695C14.8808 21.907 15.5749 21.3262 16.4035 21.3055C16.4187 21.3051 16.434 21.3049 16.4493 21.3049C17.0474 21.3049 17.5795 21.5967 17.9192 22.0499C18.1426 22.348 18.2828 22.716 18.3036 23.1167C18.3569 22.8515 18.4273 22.5928 18.5138 22.342C19.3022 20.0532 21.4196 18.4145 23.9079 18.4145C25.7855 18.4145 27.4518 19.3475 28.4955 20.7888L31.6359 19.7534L31.8852 19.6712C32.0227 19.6716 32.1449 19.7392 32.2226 19.8438C32.1814 19.7625 32.1391 19.6818 32.0957 19.6018C30.4915 16.6439 27.426 14.6444 23.9079 14.6444C19.964 14.6444 16.5888 17.1573 15.2036 20.7162Z" fill="white"/>
<path d="M31.7296 28.4557L29.4336 27.2986C29.2316 27.1968 29.0018 27.2208 28.8275 27.3411C28.8175 27.3584 28.8074 27.3756 28.7973 27.3928C28.702 27.554 28.5994 27.7101 28.49 27.8607C27.446 29.2977 25.7822 30.2274 23.9079 30.2274C22.0143 30.2274 20.3355 29.2784 19.2937 27.8161L15.6991 29.0012C17.2974 31.9804 20.3744 33.9975 23.9079 33.9975C26.1744 33.9975 28.2531 33.1676 29.8742 31.7862C30.7547 31.0359 31.5002 30.1229 32.0675 29.0918C32.0708 29.0614 32.072 29.0309 32.0711 29.0007C32.0641 28.7754 31.9395 28.5615 31.7296 28.4557Z" fill="white"/>
<path d="M14.5314 24.321C14.5314 24.677 14.55 25.0285 14.5863 25.3745C14.7232 26.6786 15.1111 27.905 15.6991 29.0012L19.2937 27.8161L25.4959 25.7712L29.6306 24.408L32.7655 23.3745L32.9202 23.3235C33.0318 23.2622 33.1523 23.1545 33.2011 23.0254C33.1859 22.9079 33.1686 22.7911 33.1493 22.6751C32.9913 21.7233 32.6986 20.8191 32.2922 19.9839C32.2693 19.937 32.2461 19.8903 32.2226 19.8438C32.1449 19.7392 32.0227 19.6716 31.8852 19.6712L31.6359 19.7534L28.4955 20.7888L20.6308 23.3817L18.186 24.1877C18.1884 24.0764 18.1938 23.9659 18.2021 23.8562C18.221 23.605 18.2552 23.3581 18.3036 23.1167C18.2828 22.716 18.1426 22.348 17.9192 22.0499C17.5795 21.5967 17.0474 21.3049 16.4493 21.3049C16.434 21.3049 16.4187 21.3051 16.4035 21.3055C15.5749 21.3262 14.8808 21.907 14.6632 22.695C14.6352 22.8659 14.6115 23.0382 14.5923 23.212C14.5521 23.5759 14.5314 23.9459 14.5314 24.321Z" fill="#F6B41A"/>
<path fill-rule="evenodd" clip-rule="evenodd" d="M11 24.321C11 25.0631 11.0588 25.7911 11.1719 26.5003C11.3759 27.7795 11.7564 28.9973 12.2869 30.1262C14.3773 34.5747 18.7955 37.6419 23.9079 37.6419C28.8417 37.6419 33.1289 34.7853 35.3014 30.5873C36.2679 28.7195 36.8158 26.5863 36.8158 24.321C36.8158 23.5636 36.7546 22.821 36.6369 22.0981C36.4289 20.8198 36.0444 19.6033 35.5102 18.4761C33.4122 14.049 29.0051 11 23.9079 11C18.557 11 13.9665 14.3602 12.0096 19.1474C11.3594 20.738 11 22.4862 11 24.321ZM29.4336 27.2986L31.7296 28.4557C31.9395 28.5615 32.0641 28.7754 32.0711 29.0007C32.072 29.0309 32.0708 29.0614 32.0675 29.0918C31.5002 30.1229 30.7547 31.0359 29.8742 31.7862C28.2531 33.1676 26.1744 33.9975 23.9079 33.9975C20.3744 33.9975 17.2974 31.9804 15.6991 29.0012C15.1111 27.905 14.7232 26.6786 14.5863 25.3745C14.55 25.0285 14.5314 24.677 14.5314 24.321C14.5314 23.9459 14.5521 23.5759 14.5923 23.212C14.6115 23.0382 14.6352 22.8659 14.6632 22.695C14.7758 22.0081 14.9586 21.3458 15.2036 20.7162C16.5888 17.1573 19.964 14.6444 23.9079 14.6444C27.426 14.6444 30.4915 16.6439 32.0957 19.6018C32.1391 19.6818 32.1814 19.7625 32.2226 19.8438C32.2461 19.8903 32.2693 19.937 32.2922 19.9839C32.6986 20.8191 32.9913 21.7233 33.1493 22.6751C33.1686 22.7911 33.1859 22.9079 33.2011 23.0254C33.1523 23.1545 33.0318 23.2622 32.9202 23.3235L32.7655 23.3745L29.6306 24.408L25.4959 25.7712L19.2937 27.8161C20.3355 29.2784 22.0143 30.2274 23.9079 30.2274C25.7822 30.2274 27.446 29.2977 28.49 27.8607C28.5994 27.7101 28.702 27.554 28.7973 27.3928C28.8074 27.3756 28.8175 27.3584 28.8275 27.3411C29.0018 27.2208 29.2316 27.1968 29.4336 27.2986Z" fill="#231E54"/>
<path d="M23.9079 18.4145C21.4196 18.4145 19.3022 20.0532 18.5138 22.342C18.4273 22.5928 18.3569 22.8515 18.3036 23.1167C18.2552 23.3581 18.221 23.605 18.2021 23.8562C18.1938 23.9659 18.1884 24.0764 18.186 24.1877L20.6308 23.3817L28.4955 20.7888C27.4518 19.3475 25.7855 18.4145 23.9079 18.4145Z" fill="#231E54"/>
<path d="M15.0914 20.6725C14.8449 21.3059 14.6606 21.9721 14.5465 22.6628L14.5465 22.6628L14.5444 22.6756C14.516 22.8485 14.4921 23.0229 14.4727 23.1987C14.4319 23.567 14.411 23.9415 14.411 24.321C14.411 24.6812 14.4299 25.0369 14.4666 25.3871C14.5998 26.657 14.9683 27.8542 15.5262 28.9314L15.5252 28.9317L15.593 29.0581C15.593 29.0581 15.593 29.0581 15.5931 29.0581L15.6408 29.1472L15.6413 29.147C17.2723 32.1138 20.3623 34.1179 23.9079 34.1179C26.2045 34.1179 28.3105 33.2769 29.9523 31.8778C30.8439 31.118 31.5987 30.1936 32.173 29.1498L32.1845 29.1289L32.1871 29.1051C32.1911 29.0689 32.1925 29.0328 32.1914 28.997C32.1831 28.7307 32.0358 28.4753 31.7838 28.3482L29.4878 27.1911C29.2447 27.0686 28.968 27.0979 28.7591 27.242L28.7368 27.2574L28.7232 27.2809L28.6937 27.3315C28.6003 27.4895 28.4998 27.6424 28.3926 27.7899C27.3697 29.1979 25.7411 30.107 23.9079 30.107C22.1135 30.107 20.515 29.2359 19.4889 27.8785L25.5336 25.8856L29.6683 24.5224L32.8032 23.4888L32.9579 23.4378L32.9685 23.4343L32.9782 23.429C33.1043 23.3597 33.2512 23.2334 33.3137 23.068L33.3244 23.0398L33.3205 23.0099C33.3051 22.891 33.2876 22.7728 33.2681 22.6553C33.1082 21.692 32.8119 20.7767 32.4004 19.9313L32.2922 19.9839L32.4004 19.9313C32.3773 19.8838 32.3538 19.8365 32.33 19.7894L32.3254 19.7803L32.3253 19.7802C32.2851 19.701 32.2438 19.6224 32.2015 19.5444C30.5778 16.5505 27.4732 14.524 23.9079 14.524C19.9109 14.524 16.4933 17.0706 15.0914 20.6725ZM14.712 23.2252C14.7307 23.0557 14.7538 22.8876 14.781 22.721C14.9873 21.9838 15.6365 21.4451 16.4065 21.4258C16.4207 21.4255 16.435 21.4253 16.4493 21.4253C17.0071 21.4253 17.5044 21.6972 17.8228 22.1221C18.0295 22.3979 18.1603 22.7376 18.1826 23.1082C18.1347 23.3496 18.1009 23.5962 18.082 23.8472C18.0736 23.959 18.0681 24.0717 18.0657 24.1852L18.062 24.3554L18.2237 24.3021L20.6685 23.4961L28.4496 20.9307L28.5332 20.9031L28.6896 20.8516L31.6736 19.8678L31.9028 19.7922C31.9894 19.7977 32.0671 19.8409 32.1202 19.9081C32.1417 19.9507 32.163 19.9936 32.1839 20.0366C32.5853 20.8615 32.8745 21.7546 33.0306 22.6948C33.0478 22.7987 33.0634 22.9032 33.0774 23.0082C33.0376 23.0887 32.9564 23.1641 32.8715 23.2128L32.7278 23.2601L29.5929 24.2937L25.4582 25.6569L19.3403 27.6739L19.256 27.7017L19.1009 27.7529L15.7579 28.855C15.2036 27.7952 14.8376 26.615 14.7061 25.362C14.6702 25.0201 14.6518 24.6728 14.6518 24.321C14.6518 23.9504 14.6722 23.5847 14.712 23.2252ZM18.3999 22.3027C18.3711 22.3863 18.3441 22.4707 18.3188 22.556C18.2482 22.3455 18.1451 22.1506 18.0155 21.9777C17.6547 21.4962 17.0878 21.1845 16.4493 21.1845C16.433 21.1845 16.4167 21.1847 16.4005 21.1851C15.822 21.1996 15.3066 21.4695 14.9544 21.8881C15.0526 21.5019 15.1736 21.1253 15.3158 20.7598C16.6843 17.2439 20.0171 14.7648 23.9079 14.7648C27.3365 14.7648 30.3314 16.6896 31.9313 19.5529C31.9162 19.5515 31.901 19.5508 31.8856 19.5508L31.8661 19.5507L31.8475 19.5569L31.5982 19.6391L28.5407 20.6471C27.473 19.2171 25.7955 18.2941 23.9079 18.2941C21.3647 18.2941 19.204 19.9689 18.3999 22.3027ZM23.9079 18.5349C25.6861 18.5349 27.2719 19.3904 28.299 20.7268L20.5931 23.2674L18.3125 24.0193C18.315 23.9678 18.3183 23.9164 18.3221 23.8653C18.3407 23.619 18.3742 23.377 18.4217 23.1404C18.4217 23.1404 18.4217 23.1403 18.4217 23.1403C18.4739 22.8804 18.5429 22.6269 18.6276 22.3812C19.4005 20.1376 21.4746 18.5349 23.9079 18.5349ZM23.9079 33.8771C20.4719 33.8771 17.4713 31.9439 15.874 29.0703L19.2478 27.958C20.314 29.4089 22.0041 30.3478 23.9079 30.3478C25.8233 30.3478 27.5223 29.3975 28.5874 27.9315C28.699 27.7778 28.8037 27.6185 28.9009 27.454C28.9052 27.4467 28.9095 27.4394 28.9138 27.4321C28.915 27.4302 28.9161 27.4282 28.9173 27.4262C29.0539 27.3421 29.2266 27.3291 29.3794 27.4061L31.6754 28.5632C31.8432 28.6478 31.945 28.8201 31.9507 29.0044C31.9513 29.0215 31.951 29.0387 31.9498 29.0558C31.3911 30.0652 30.6592 30.9591 29.7961 31.6946C28.1957 33.0584 26.1444 33.8771 23.9079 33.8771ZM11.2908 26.4813C11.1787 25.7784 11.1204 25.0568 11.1204 24.321C11.1204 22.502 11.4767 20.7693 12.1211 19.193C14.0608 14.4477 18.6093 11.1204 23.9079 11.1204C28.9553 11.1204 33.3218 14.1395 35.4014 18.5276C35.9308 19.6447 36.3119 20.8504 36.5181 22.1174C36.6347 22.8339 36.6954 23.5701 36.6954 24.321C36.6954 26.5667 36.1523 28.681 35.1944 30.5319C33.0412 34.6929 28.7935 37.5215 23.9079 37.5215C18.8455 37.5215 14.4679 34.4843 12.3959 30.0749C11.8702 28.9562 11.493 27.7492 11.2908 26.4813Z" stroke="white" stroke-width="0.240794"/>
</svg>
