<svg width="27" height="27" viewBox="0 0 27 27" fill="none" xmlns="http://www.w3.org/2000/svg">
<path fill-rule="evenodd" clip-rule="evenodd" d="M26.9581 13.4791C26.9581 20.9234 20.9234 26.9581 13.4791 26.9581C6.03479 26.9581 0 20.9234 0 13.4791C0 6.03479 6.03479 0 13.4791 0C20.9234 0 26.9581 6.03479 26.9581 13.4791ZM9 10.5C9 8.01472 11.0147 6 13.5 6C15.9853 6 18 8.01472 18 10.5C18 12.1022 17.1626 13.5089 15.9017 14.3062C18.4802 14.9779 20.6324 16.7057 21.8687 19C20.2646 21.9769 17.1186 24 13.5 24C9.88143 24 6.73538 21.9769 5.13131 19C6.36759 16.7057 8.51978 14.9779 11.0983 14.3062C9.83735 13.5089 9 12.1022 9 10.5Z" fill="#BEBEBE"/>
</svg>
