<svg width="47" height="45" viewBox="0 0 47 45" fill="none" xmlns="http://www.w3.org/2000/svg">
<rect width="46.3783" height="44.4048" rx="6.90741" fill="#F79E1B"/>
<path d="M26.8998 23.2C26.7998 23.2 26.7998 23.1 26.6998 23.1C28.1998 22 28.9998 20.3 28.9998 18.4V17.7L29.2998 15.3C29.4998 13.7 28.3998 12.3 26.8998 12L25.9998 11.8C23.9998 11.5 21.9998 11.5 19.9998 11.8L19.1998 12C17.5998 12.3 16.4998 13.7 16.6998 15.3L16.9998 17.7V18.4C16.9998 20.2 17.7998 22 19.2998 23.1C19.1998 23.1 19.1998 23.2 19.0998 23.2C15.7998 24.6 13.4998 27.6999 13.0998 31.2999C12.9998 31.7999 13.3998 32.2999 13.9998 32.4C14.5998 32.5 31.4998 32.4 31.9998 32.4H32.0998C32.5998 32.2999 32.9998 31.7999 32.9998 31.2999C32.4998 27.6999 30.1998 24.6 26.8998 23.2ZM22.9998 26.3L21.2998 24.6C22.3998 24.4 23.4998 24.4 24.5998 24.6L22.9998 26.3ZM22.9998 22.4C20.7998 22.4 19.0998 20.7 18.9998 18.5H26.9998C26.8998 20.7 25.1998 22.4 22.9998 22.4Z" fill="black"/>
</svg>
