<svg width="27" height="27" viewBox="0 0 27 27" fill="none" xmlns="http://www.w3.org/2000/svg">
<path d="M22.3089 19.2372L22.4367 19L22.3089 18.7628C21.1592 16.6292 19.2568 14.9607 16.9559 14.1134C17.9069 13.2035 18.5 11.9211 18.5 10.5C18.5 7.73858 16.2614 5.5 13.5 5.5C10.7386 5.5 8.5 7.73858 8.5 10.5C8.5 11.9211 9.09312 13.2035 10.0441 14.1134C7.74321 14.9607 5.84084 16.6292 4.69114 18.7628L4.56334 19L4.69114 19.2372C6.37896 22.3694 9.69029 24.5 13.5 24.5C17.3097 24.5 20.621 22.3694 22.3089 19.2372ZM26.4581 13.4791C26.4581 20.6472 20.6472 26.4581 13.4791 26.4581C6.31093 26.4581 0.5 20.6472 0.5 13.4791C0.5 6.31093 6.31093 0.5 13.4791 0.5C20.6472 0.5 26.4581 6.31093 26.4581 13.4791Z" stroke="#BEBEBE"/>
</svg>
