<svg width="23" height="24" viewBox="0 0 23 24" fill="none" xmlns="http://www.w3.org/2000/svg">
<rect width="23" height="24" rx="5" fill="#ECBE9D"/>
<path fill-rule="evenodd" clip-rule="evenodd" d="M12.8304 4.9099C12.9829 4.81464 13.1543 4.76465 13.3287 4.76465C13.503 4.76465 13.6745 4.81464 13.8269 4.9099L18.3057 7.71045C18.6316 7.91419 18.8338 8.30066 18.8338 8.72075V14.2798C18.8338 14.6999 18.6316 15.0864 18.3057 15.2901L13.8269 18.0907C13.6745 18.1859 13.503 18.2359 13.3287 18.2359C13.1543 18.2359 12.9829 18.1859 12.8304 18.0907L8.35172 15.2901C8.19162 15.1901 8.05822 15.0436 7.96536 14.866C7.8725 14.6883 7.82356 14.4859 7.82361 14.2798V8.72075C7.82361 8.30066 8.02577 7.91419 8.35172 7.71045L12.8304 4.9099ZM13.3741 5.82848C13.3602 5.81978 13.3446 5.81521 13.3287 5.81521C13.3128 5.81521 13.2972 5.81978 13.2833 5.82848L8.80457 8.62903C8.79015 8.63807 8.77811 8.65126 8.7697 8.66725C8.76128 8.68324 8.75679 8.70146 8.75667 8.72005V14.2798C8.75667 14.3183 8.77534 14.3533 8.80457 14.3722L13.2833 17.1728C13.2972 17.1815 13.3128 17.1861 13.3287 17.1861C13.3446 17.1861 13.3602 17.1815 13.3741 17.1728L17.8528 14.3722C17.8674 14.3631 17.8796 14.3497 17.888 14.3334C17.8964 14.3172 17.9008 14.2987 17.9007 14.2798V8.72075C17.9007 8.70204 17.8963 8.68368 17.8878 8.66756C17.8794 8.65143 17.8673 8.63813 17.8528 8.62903L13.3741 5.82848Z" fill="#ECBE9D"/>
<path d="M13.3741 5.82848C13.3602 5.81978 13.3446 5.81521 13.3287 5.81521C13.3128 5.81521 13.2972 5.81978 13.2833 5.82848L8.80457 8.62903C8.79015 8.63807 8.77811 8.65126 8.7697 8.66725C8.76128 8.68324 8.75679 8.70146 8.75667 8.72005V14.2798C8.75667 14.3183 8.77534 14.3533 8.80457 14.3722L13.2833 17.1728C13.2972 17.1815 13.3128 17.1861 13.3287 17.1861C13.3446 17.1861 13.3602 17.1815 13.3741 17.1728L17.8528 14.3722C17.8674 14.3631 17.8796 14.3497 17.888 14.3334C17.8964 14.3172 17.9008 14.2987 17.9007 14.2798V8.72075C17.9007 8.70204 17.8963 8.68368 17.8878 8.66756C17.8794 8.65143 17.8673 8.63813 17.8528 8.62903L13.3741 5.82848Z" fill="#ECBE9D"/>
<path fill-rule="evenodd" clip-rule="evenodd" d="M11.3664 4.16174C11.5603 4.05566 11.7783 4 12 4C12.2217 4 12.4397 4.05566 12.6336 4.16174L18.3285 7.28009C18.7429 7.50695 19 7.93728 19 8.40504V14.595C19 15.0627 18.7429 15.493 18.3285 15.7199L12.6336 18.8383C12.4397 18.9443 12.2217 19 12 19C11.7783 19 11.5603 18.9443 11.3664 18.8383L5.67153 15.7199C5.46795 15.6085 5.29833 15.4454 5.18025 15.2476C5.06217 15.0498 4.99993 14.8245 5 14.595V8.40504C5 7.93728 5.25706 7.50695 5.67153 7.28009L11.3664 4.16174ZM12.0577 5.18456C12.0401 5.17486 12.0202 5.16978 12 5.16978C11.9798 5.16978 11.9599 5.17486 11.9423 5.18456L6.24734 8.30291C6.229 8.31298 6.2137 8.32767 6.203 8.34547C6.1923 8.36328 6.18659 8.38356 6.18644 8.40426V14.595C6.18644 14.6378 6.21017 14.6768 6.24734 14.6979L11.9423 17.8162C11.9599 17.8259 11.9798 17.831 12 17.831C12.0202 17.831 12.0401 17.8259 12.0577 17.8162L17.7527 14.6979C17.7712 14.6877 17.7867 14.6727 17.7974 14.6546C17.8081 14.6365 17.8137 14.6159 17.8136 14.595V8.40504C17.8136 8.38421 17.8079 8.36376 17.7972 8.34581C17.7865 8.32786 17.7711 8.31305 17.7527 8.30291L12.0577 5.18456Z" fill="black"/>
<path fill-rule="evenodd" clip-rule="evenodd" d="M8.24292 11.4999C8.24292 10.5178 8.63875 9.57593 9.34334 8.88147C10.0479 8.18702 11.0035 7.79688 12 7.79688C12.9964 7.79688 13.952 8.18702 14.6566 8.88147C15.3612 9.57593 15.757 10.5178 15.757 11.4999C15.757 12.482 15.3612 13.4239 14.6566 14.1184C13.952 14.8128 12.9964 15.203 12 15.203C11.0035 15.203 10.0479 14.8128 9.34334 14.1184C8.63875 13.4239 8.24292 12.482 8.24292 11.4999ZM12 8.96626C11.3182 8.96626 10.6644 9.2332 10.1823 9.70835C9.70019 10.1835 9.42936 10.8279 9.42936 11.4999C9.42936 12.1719 9.70019 12.8163 10.1823 13.2915C10.6644 13.7666 11.3182 14.0336 12 14.0336C12.6818 14.0336 13.3356 13.7666 13.8177 13.2915C14.2998 12.8163 14.5706 12.1719 14.5706 11.4999C14.5706 10.8279 14.2998 10.1835 13.8177 9.70835C13.3356 9.2332 12.6818 8.96626 12 8.96626Z" fill="black"/>
</svg>
