<svg width="25" height="19" viewBox="0 0 25 19" fill="none" xmlns="http://www.w3.org/2000/svg">
<path d="M13.669 12.6942L14.036 13.0337L13.6897 13.4081L13.3223 13.0545L13.669 12.6942ZM8.84144 8.04834L8.45198 7.73478L8.79455 7.30928L9.18815 7.68807L8.84144 8.04834ZM1.05436 18.2841C0.779814 18.3137 0.533221 18.1152 0.503581 17.8406L0.0205702 13.3666C-0.00906979 13.0921 0.189467 12.8455 0.464014 12.8158C0.738561 12.7862 0.985153 12.9847 1.01479 13.2593L1.44414 17.2362L5.42103 16.8068C5.69557 16.7772 5.94217 16.9757 5.97181 17.2503C6.00145 17.5248 5.80291 17.7714 5.52836 17.801L1.05436 18.2841ZM24.9042 1.2858L14.036 13.0337L13.3019 12.3547L24.1701 0.606716L24.9042 1.2858ZM13.3223 13.0545L8.49473 8.40861L9.18815 7.68807L14.0157 12.3339L13.3223 13.0545ZM9.2309 8.3619L1.39015 18.1005L0.611233 17.4734L8.45198 7.73478L9.2309 8.3619Z" fill="black"/>
</svg>
