<svg width="26" height="19" viewBox="0 0 26 19" fill="none" xmlns="http://www.w3.org/2000/svg">
<path d="M11.8691 6.03878L11.5021 5.69921L11.8484 5.3249L12.2158 5.67854L11.8691 6.03878ZM16.6962 10.685L17.0857 10.9986L16.7431 11.4241L16.3495 11.0453L16.6962 10.685ZM24.4841 0.449937C24.7587 0.420319 25.0053 0.618876 25.0349 0.893424L25.5175 5.36747C25.5471 5.64202 25.3486 5.88859 25.074 5.91821C24.7995 5.94783 24.5529 5.74927 24.5233 5.47472L24.0943 1.4978L20.1173 1.92682C19.8428 1.95644 19.5962 1.75788 19.5666 1.48333C19.537 1.20878 19.7355 0.962206 20.0101 0.932589L24.4841 0.449937ZM0.632923 17.4463L11.5021 5.69921L12.2361 6.37835L1.36693 18.1254L0.632923 17.4463ZM12.2158 5.67854L17.043 10.3248L16.3495 11.0453L11.5223 6.39902L12.2158 5.67854ZM16.3068 10.3714L24.1483 0.63346L24.9272 1.26065L17.0857 10.9986L16.3068 10.3714Z" fill="black"/>
</svg>
