<svg width="23" height="24" viewBox="0 0 23 24" fill="none" xmlns="http://www.w3.org/2000/svg">
<rect width="23" height="24" rx="5" fill="#9DECD9"/>
<g clip-path="url(#clip0_635_1301)">
<path d="M11.5 6.625C14.1812 6.625 16.375 8.81875 16.375 11.5C16.375 14.1812 14.1812 16.375 11.5 16.375C8.81875 16.375 6.625 14.1812 6.625 11.5C6.625 8.81875 8.81875 6.625 11.5 6.625ZM11.5 5.8125C8.37188 5.8125 5.8125 8.37188 5.8125 11.5C5.8125 14.6281 8.37188 17.1875 11.5 17.1875C14.6281 17.1875 17.1875 14.6281 17.1875 11.5C17.1875 8.37188 14.6281 5.8125 11.5 5.8125Z" fill="black"/>
<path d="M8.25 11.0938H14.75V11.9062H8.25V11.0938Z" fill="black"/>
</g>
<defs>
<clipPath id="clip0_635_1301">
<rect width="13" height="13" fill="white" transform="translate(5 5)"/>
</clipPath>
</defs>
</svg>
