<svg width="23" height="24" viewBox="0 0 23 24" fill="none" xmlns="http://www.w3.org/2000/svg">
<rect width="23" height="24" rx="5" fill="#231E54"/>
<path d="M6.31025 10.3398C6.17557 10.6858 6.07513 11.0499 6.01323 11.4274C6.13283 10.9943 6.51428 10.6751 6.96965 10.6637C6.97803 10.6635 6.98643 10.6634 6.99486 10.6634C7.32357 10.6634 7.61599 10.8238 7.80265 11.0728C7.92544 11.2367 8.00247 11.4389 8.01395 11.6591C8.04321 11.5134 8.08193 11.3712 8.12943 11.2333C8.56276 9.97549 9.72645 9.07488 11.094 9.07488C12.1258 9.07488 13.0416 9.58764 13.6152 10.3797L15.3411 9.81072L15.4782 9.76554C15.5537 9.76575 15.6209 9.80289 15.6636 9.8604C15.6409 9.81569 15.6177 9.77135 15.5938 9.7274C14.7122 8.1018 13.0274 7.00291 11.094 7.00291C8.92647 7.00291 7.07152 8.38392 6.31025 10.3398Z" fill="white"/>
<path d="M15.3926 14.5934L14.1308 13.9574C14.0198 13.9015 13.8935 13.9147 13.7977 13.9808C13.7922 13.9903 13.7867 13.9997 13.7811 14.0092C13.7287 14.0978 13.6723 14.1836 13.6122 14.2663C13.0384 15.0561 12.124 15.5671 11.094 15.5671C10.0533 15.5671 9.13062 15.0455 8.55807 14.2418L6.58256 14.8931C7.46096 16.5305 9.15202 17.639 11.094 17.639C12.3396 17.639 13.482 17.1829 14.3729 16.4237C14.8568 16.0114 15.2665 15.5096 15.5783 14.9429C15.5802 14.9262 15.5808 14.9095 15.5803 14.8929C15.5764 14.7691 15.508 14.6515 15.3926 14.5934Z" fill="white"/>
<path d="M5.9408 12.321C5.9408 12.5166 5.95104 12.7098 5.97099 12.9C6.04619 13.6167 6.25937 14.2907 6.58256 14.8931L8.55807 14.2418L11.9667 13.118L14.2391 12.3688L15.9619 11.8008L16.047 11.7728C16.1083 11.7391 16.1745 11.6799 16.2013 11.6089C16.193 11.5444 16.1835 11.4802 16.1729 11.4164C16.086 10.8934 15.9252 10.3964 15.7018 9.93742C15.6893 9.91162 15.6765 9.88595 15.6636 9.8604C15.6209 9.80289 15.5537 9.76575 15.4782 9.76554L15.3411 9.81072L13.6152 10.3797L9.29289 11.8048L7.94931 12.2477C7.95062 12.1866 7.95357 12.1258 7.95812 12.0655C7.96853 11.9275 7.98732 11.7918 8.01395 11.6591C8.00247 11.4389 7.92544 11.2367 7.80265 11.0728C7.61599 10.8238 7.32357 10.6634 6.99486 10.6634C6.98643 10.6634 6.97803 10.6635 6.96965 10.6637C6.51428 10.6751 6.13283 10.9943 6.01323 11.4274C5.99784 11.5213 5.98483 11.616 5.97428 11.7115C5.95216 11.9115 5.9408 12.1149 5.9408 12.321Z" fill="#F6B41A"/>
<path fill-rule="evenodd" clip-rule="evenodd" d="M4 12.321C4 12.7289 4.03232 13.1289 4.09447 13.5187C4.20657 14.2217 4.41573 14.891 4.70726 15.5114C5.85613 17.9562 8.28429 19.6419 11.094 19.6419C13.8055 19.6419 16.1617 18.072 17.3556 15.7648C17.8868 14.7383 18.1879 13.5659 18.1879 12.321C18.1879 11.9047 18.1543 11.4966 18.0896 11.0993C17.9752 10.3968 17.7639 9.7282 17.4704 9.10872C16.3173 6.67566 13.8953 5 11.094 5C8.15318 5 5.63034 6.84669 4.55488 9.47767C4.19755 10.3518 4 11.3126 4 12.321ZM14.1308 13.9574L15.3926 14.5934C15.508 14.6515 15.5764 14.7691 15.5803 14.8929C15.5808 14.9095 15.5802 14.9262 15.5783 14.9429C15.2665 15.5096 14.8568 16.0114 14.3729 16.4237C13.482 17.1829 12.3396 17.639 11.094 17.639C9.15202 17.639 7.46096 16.5305 6.58256 14.8931C6.25937 14.2907 6.04619 13.6167 5.97099 12.9C5.95104 12.7098 5.9408 12.5166 5.9408 12.321C5.9408 12.1149 5.95216 11.9115 5.97428 11.7115C5.98483 11.616 5.99784 11.5213 6.01323 11.4274C6.07513 11.0499 6.17557 10.6858 6.31025 10.3398C7.07152 8.38392 8.92647 7.00291 11.094 7.00291C13.0274 7.00291 14.7122 8.1018 15.5938 9.7274C15.6177 9.77135 15.6409 9.81569 15.6636 9.8604C15.6765 9.88595 15.6893 9.91162 15.7018 9.93742C15.9252 10.3964 16.086 10.8934 16.1729 11.4164C16.1835 11.4802 16.193 11.5444 16.2013 11.6089C16.1745 11.6799 16.1083 11.7391 16.047 11.7728L15.9619 11.8008L14.2391 12.3688L11.9667 13.118L8.55807 14.2418C9.13062 15.0455 10.0533 15.5671 11.094 15.5671C12.124 15.5671 13.0384 15.0561 13.6122 14.2663C13.6723 14.1836 13.7287 14.0978 13.7811 14.0092C13.7867 13.9997 13.7922 13.9903 13.7977 13.9808C13.8935 13.9147 14.0198 13.9015 14.1308 13.9574Z" fill="#231E54"/>
<path d="M11.094 9.07488C9.72645 9.07488 8.56276 9.97549 8.12943 11.2333C8.08193 11.3712 8.04321 11.5134 8.01395 11.6591C7.98732 11.7918 7.96853 11.9275 7.95812 12.0655C7.95357 12.1258 7.95062 12.1866 7.94931 12.2477L9.29289 11.8048L13.6152 10.3797C13.0416 9.58764 12.1258 9.07488 11.094 9.07488Z" fill="#231E54"/>
<path d="M6.24859 10.3158C6.11309 10.664 6.01183 11.0301 5.94909 11.4097L5.94908 11.4097L5.94794 11.4167C5.93236 11.5117 5.91919 11.6076 5.90851 11.7042C5.88613 11.9066 5.87463 12.1124 5.87463 12.321C5.87463 12.5189 5.88499 12.7144 5.90519 12.9069C5.97841 13.6048 6.18092 14.2628 6.48754 14.8548L6.48699 14.855L6.52424 14.9244C6.52425 14.9244 6.52425 14.9244 6.52425 14.9244L6.55051 14.9734L6.55079 14.9733C7.44715 16.6037 9.14534 17.7052 11.094 17.7052C12.3561 17.7052 13.5136 17.243 14.4158 16.4741C14.9059 16.0565 15.3207 15.5485 15.6363 14.9748L15.6426 14.9633L15.6441 14.9502C15.6463 14.9304 15.647 14.9105 15.6464 14.8908C15.6419 14.7445 15.5609 14.6041 15.4224 14.5343L14.1606 13.8983C14.027 13.831 13.8749 13.8471 13.7601 13.9263L13.7478 13.9348L13.7404 13.9477L13.7241 13.9755C13.6728 14.0623 13.6176 14.1464 13.5587 14.2274C12.9965 15.0012 12.1014 15.5009 11.094 15.5009C10.1078 15.5009 9.22927 15.0221 8.66533 14.2761L11.9874 13.1809L14.2598 12.4317L15.9827 11.8636L16.0677 11.8356L16.068 11.8367L16.0788 11.8308C16.1481 11.7927 16.2289 11.7233 16.2632 11.6323L16.2691 11.6169L16.267 11.6004C16.2585 11.5351 16.2489 11.4701 16.2382 11.4056C16.1503 10.8762 15.9874 10.3731 15.7613 9.90846C15.7486 9.88235 15.7357 9.85636 15.7226 9.8305L15.7234 9.83006L15.72 9.82546C15.6979 9.78191 15.6752 9.7387 15.652 9.69586C14.7596 8.05045 13.0534 6.93674 11.094 6.93674C8.89728 6.93674 7.01905 8.33632 6.24859 10.3158ZM6.04004 11.7188C6.05034 11.6256 6.063 11.5332 6.07795 11.4416C6.19134 11.0365 6.54812 10.7404 6.97131 10.7299L6.99486 10.7296C7.30137 10.7296 7.57469 10.879 7.7497 11.1125C7.86327 11.2641 7.93518 11.4508 7.94742 11.6544C7.92113 11.7871 7.90254 11.9227 7.89214 12.0606C7.8875 12.122 7.8845 12.184 7.88316 12.2463L7.88115 12.3399L7.97003 12.3106L9.31361 11.8676L13.59 10.4577L13.6359 10.4426L13.7219 10.4142L15.3618 9.87356L15.4878 9.83203C15.5354 9.83504 15.5781 9.85878 15.6073 9.89571C15.6191 9.91916 15.6308 9.94271 15.6423 9.96637C15.8629 10.4197 16.0218 10.9105 16.1076 11.4272C16.1171 11.4843 16.1257 11.5418 16.1334 11.5995C16.1115 11.6438 16.0668 11.6852 16.0202 11.7119L15.9412 11.738L14.2183 12.306L11.9459 13.0552L8.58367 14.1637L8.53736 14.179L8.45209 14.2071L6.61488 14.8128C6.31024 14.2304 6.10905 13.5817 6.0368 12.8931C6.01709 12.7052 6.00697 12.5143 6.00697 12.321C6.00697 12.1173 6.0182 11.9163 6.04004 11.7188ZM8.06687 11.2118C8.05105 11.2577 8.03618 11.3041 8.02229 11.351C7.9835 11.2353 7.92681 11.1282 7.8556 11.0332C7.65729 10.7685 7.34577 10.5972 6.99486 10.5972C6.98588 10.5972 6.97692 10.5973 6.968 10.5976C6.65009 10.6055 6.36681 10.7538 6.17329 10.9839C6.22724 10.7717 6.29374 10.5647 6.37191 10.3638C7.124 8.43152 8.95565 7.06907 11.094 7.06907C12.9782 7.06907 14.6242 8.12689 15.5035 9.7005C15.4952 9.69978 15.4868 9.69939 15.4783 9.69937L15.4676 9.69934L15.4574 9.7027L15.3204 9.74788L13.6401 10.3019C13.0533 9.51597 12.1314 9.00871 11.094 9.00871C9.69626 9.00871 8.50875 9.92913 8.06687 11.2118ZM11.094 9.14105C12.0712 9.14105 12.9428 9.61122 13.5072 10.3457L9.27218 11.7419L8.01881 12.1552C8.02022 12.1269 8.02198 12.0986 8.0241 12.0705C8.03431 11.9352 8.05273 11.8022 8.07883 11.6721C8.1075 11.5293 8.14545 11.39 8.19199 11.2549C8.61678 10.0218 9.75663 9.14105 11.094 9.14105ZM11.094 17.5729C9.20558 17.5729 7.55651 16.5104 6.67869 14.9311L8.53284 14.3198C9.11884 15.1172 10.0477 15.6332 11.094 15.6332C12.1466 15.6332 13.0804 15.1109 13.6657 14.3052C13.7271 14.2208 13.7846 14.1332 13.838 14.0428L13.8469 14.0276C13.9221 13.9814 14.017 13.9742 14.101 14.0165L15.3628 14.6524C15.455 14.6989 15.511 14.7936 15.5142 14.8949C15.5144 14.9043 15.5143 14.9137 15.5137 14.9231C15.2066 15.4779 14.8043 15.9692 14.33 16.3734C13.4504 17.1229 12.3231 17.5729 11.094 17.5729ZM4.15981 13.5082C4.09821 13.122 4.06617 12.7254 4.06617 12.321C4.06617 11.3213 4.262 10.369 4.61613 9.50271C5.68215 6.89481 8.18193 5.06617 11.094 5.06617C13.8679 5.06617 16.2677 6.72543 17.4106 9.13705C17.7015 9.75099 17.9109 10.4136 18.0243 11.11C18.0884 11.5037 18.1218 11.9083 18.1218 12.321C18.1218 13.5552 17.8232 14.7172 17.2968 15.7344C16.1135 18.0212 13.779 19.5758 11.094 19.5758C8.31174 19.5758 5.90589 17.9066 4.76715 15.4833C4.47823 14.8684 4.27093 14.2051 4.15981 13.5082Z" stroke="white" stroke-width="0.132336"/>
</svg>
