<svg width="23" height="24" viewBox="0 0 23 24" fill="none" xmlns="http://www.w3.org/2000/svg">
<rect width="23" height="24" rx="5" fill="#A3EC9D"/>
<path fill-rule="evenodd" clip-rule="evenodd" d="M11.7507 6.07666C10.7773 6.07666 10.0062 6.07666 9.40304 6.18206C8.78237 6.29091 8.27979 6.51963 7.88314 7.03493C7.48701 7.55091 7.31118 8.20468 7.22751 9.01208C7.14648 9.79743 7.14648 10.7998 7.14648 12.066V12.1431C7.14648 13.4094 7.14648 14.4124 7.22751 15.1971C7.31118 16.0045 7.48701 16.6582 7.88314 17.1742C8.27979 17.6895 8.78237 17.9182 9.40304 18.0271C10.0068 18.1325 10.7773 18.1325 11.7507 18.1325H13.9283C14.9017 18.1325 15.6728 18.1325 16.276 18.0271C16.8966 17.9182 17.3992 17.6895 17.7959 17.1742C18.192 16.6582 18.3678 16.0045 18.4515 15.1971C18.5325 14.4117 18.5325 13.4094 18.5325 12.1431V12.066C18.5325 10.7998 18.5325 9.79674 18.4515 9.01208C18.3678 8.20468 18.192 7.55091 17.7959 7.03493C17.3992 6.51963 16.8966 6.29091 16.276 6.18206C15.6723 6.07666 14.9017 6.07666 13.9283 6.07666H11.7507ZM8.44502 7.76585C8.66904 7.47445 8.9762 7.29946 9.50896 7.20646C10.0534 7.11139 10.7704 7.11002 11.7803 7.11002H13.8987C14.9086 7.11002 15.6262 7.11139 16.1706 7.20646C16.7028 7.29946 17.01 7.47445 17.234 7.76585C17.458 8.05726 17.5925 8.45682 17.664 9.14986C17.7371 9.85805 17.7382 10.7908 17.7382 12.1046C17.7382 13.4183 17.7371 14.3511 17.664 15.06C17.5925 15.7523 17.458 16.1519 17.234 16.4433C17.01 16.7347 16.7028 16.9097 16.1701 17.0027C15.6262 17.0977 14.9086 17.0991 13.8987 17.0991H11.7803C10.7704 17.0991 10.0534 17.0977 9.50843 17.0027C8.9762 16.9097 8.66904 16.7347 8.44502 16.4433C8.22101 16.1519 8.0865 15.7523 8.015 15.0593C7.94192 14.3511 7.94086 13.4183 7.94086 12.1046C7.94086 10.7908 7.94192 9.85805 8.015 9.14917C8.0865 8.45682 8.22101 8.05726 8.44502 7.76585Z" fill="#A3EC9D"/>
<path d="M8.44502 7.76585C8.66904 7.47445 8.9762 7.29946 9.50896 7.20646C10.0534 7.11139 10.7704 7.11002 11.7803 7.11002H13.8987C14.9086 7.11002 15.6262 7.11139 16.1706 7.20646C16.7028 7.29946 17.01 7.47445 17.234 7.76585C17.458 8.05726 17.5925 8.45682 17.664 9.14986C17.7371 9.85805 17.7382 10.7908 17.7382 12.1046C17.7382 13.4183 17.7371 14.3511 17.664 15.06C17.5925 15.7523 17.458 16.1519 17.234 16.4433C17.01 16.7347 16.7028 16.9097 16.1701 17.0027C15.6262 17.0977 14.9086 17.0991 13.8987 17.0991H11.7803C10.7704 17.0991 10.0534 17.0977 9.50843 17.0027C8.9762 16.9097 8.66904 16.7347 8.44502 16.4433C8.22101 16.1519 8.0865 15.7523 8.015 15.0593C7.94192 14.3511 7.94086 13.4183 7.94086 12.1046C7.94086 10.7908 7.94192 9.85805 8.015 9.14917C8.0865 8.45682 8.22101 8.05726 8.44502 7.76585Z" fill="#A3EC9D"/>
<path d="M8.70939 12.8021C8.89443 12.8021 9.07188 12.7286 9.20272 12.5977C9.33356 12.4669 9.40707 12.2894 9.40707 12.1044C9.40707 11.9194 9.33356 11.7419 9.20272 11.6111C9.07188 11.4802 8.89443 11.4067 8.70939 11.4067C8.52436 11.4067 8.3469 11.4802 8.21606 11.6111C8.08522 11.7419 8.01172 11.9194 8.01172 12.1044C8.01172 12.2894 8.08522 12.4669 8.21606 12.5977C8.3469 12.7286 8.52436 12.8021 8.70939 12.8021ZM12.1978 12.1044C12.1978 12.2894 12.1243 12.4669 11.9934 12.5977C11.8626 12.7286 11.6851 12.8021 11.5001 12.8021C11.3151 12.8021 11.1376 12.7286 11.0068 12.5977C10.8759 12.4669 10.8024 12.2894 10.8024 12.1044C10.8024 11.9194 10.8759 11.7419 11.0068 11.6111C11.1376 11.4802 11.3151 11.4067 11.5001 11.4067C11.6851 11.4067 11.8626 11.4802 11.9934 11.6111C12.1243 11.7419 12.1978 11.9194 12.1978 12.1044ZM14.2908 12.8021C14.4758 12.8021 14.6533 12.7286 14.7841 12.5977C14.915 12.4669 14.9885 12.2894 14.9885 12.1044C14.9885 11.9194 14.915 11.7419 14.7841 11.6111C14.6533 11.4802 14.4758 11.4067 14.2908 11.4067C14.1058 11.4067 13.9283 11.4802 13.7975 11.6111C13.6666 11.7419 13.5931 11.9194 13.5931 12.1044C13.5931 12.2894 13.6666 12.4669 13.7975 12.5977C13.9283 12.7286 14.1058 12.8021 14.2908 12.8021Z" fill="black"/>
<path fill-rule="evenodd" clip-rule="evenodd" d="M10.0656 6C8.78326 6 7.76744 6 6.97279 6.10674C6.15512 6.21698 5.49302 6.4486 4.97047 6.97047C4.4486 7.49302 4.21698 8.15512 4.10674 8.97279C4 9.76814 4 10.7833 4 12.0656V12.1437C4 13.426 4 14.4419 4.10674 15.2365C4.21698 16.0542 4.4486 16.7163 4.97047 17.2388C5.49302 17.7607 6.15512 17.9923 6.97279 18.1026C7.76814 18.2093 8.78326 18.2093 10.0656 18.2093H12.9344C14.2167 18.2093 15.2326 18.2093 16.0272 18.1026C16.8449 17.9923 17.507 17.7607 18.0295 17.2388C18.5514 16.7163 18.783 16.0542 18.8933 15.2365C19 14.4412 19 13.426 19 12.1437V12.0656C19 10.7833 19 9.76744 18.8933 8.97279C18.783 8.15512 18.5514 7.49302 18.0295 6.97047C17.507 6.4486 16.8449 6.21698 16.0272 6.10674C15.2319 6 14.2167 6 12.9344 6H10.0656ZM5.7107 7.7107C6.00581 7.41558 6.41047 7.23837 7.11233 7.14419C7.82953 7.04791 8.77419 7.04651 10.1047 7.04651H12.8953C14.2258 7.04651 15.1712 7.04791 15.8884 7.14419C16.5895 7.23837 16.9942 7.41558 17.2893 7.7107C17.5844 8.00581 17.7616 8.41047 17.8558 9.11233C17.9521 9.82954 17.9535 10.7742 17.9535 12.1047C17.9535 13.4351 17.9521 14.3798 17.8558 15.0977C17.7616 15.7988 17.5844 16.2035 17.2893 16.4986C16.9942 16.7937 16.5895 16.9709 15.8877 17.0651C15.1712 17.1614 14.2258 17.1628 12.8953 17.1628H10.1047C8.77419 17.1628 7.82953 17.1614 7.11163 17.0651C6.41047 16.9709 6.00581 16.7937 5.7107 16.4986C5.41558 16.2035 5.23837 15.7988 5.14419 15.097C5.04791 14.3798 5.04651 13.4351 5.04651 12.1047C5.04651 10.7742 5.04791 9.82954 5.14419 9.11163C5.23837 8.41047 5.41558 8.00581 5.7107 7.7107Z" fill="black"/>
</svg>
