<svg width="23" height="24" viewBox="0 0 23 24" fill="none" xmlns="http://www.w3.org/2000/svg">
<rect width="23" height="24" rx="5" fill="#9DADEC"/>
<rect x="9.0459" y="6.84619" width="7.01538" height="4.8" rx="0.738462" fill="#9DADEC"/>
<rect x="7.93823" y="14.231" width="9.23077" height="4.8" rx="1.47692" fill="#9DADEC"/>
<rect x="7.56909" y="14.231" width="9.23077" height="4.8" rx="1.47692" fill="#9DADEC"/>
<path d="M13.8462 8.23077C13.6013 8.23077 13.3666 8.32802 13.1934 8.50113C13.0203 8.67424 12.9231 8.90903 12.9231 9.15385C12.9231 9.39866 13.0203 9.63345 13.1934 9.80656C13.3666 9.97967 13.6013 10.0769 13.8462 10.0769C14.091 10.0769 14.3258 9.97967 14.4989 9.80656C14.672 9.63345 14.7692 9.39866 14.7692 9.15385C14.7692 8.90903 14.672 8.67424 14.4989 8.50113C14.3258 8.32802 14.091 8.23077 13.8462 8.23077ZM9.23077 9.15385C9.23077 8.90903 9.32802 8.67424 9.50113 8.50113C9.67424 8.32802 9.90903 8.23077 10.1538 8.23077C10.3987 8.23077 10.6334 8.32802 10.8066 8.50113C10.9797 8.67424 11.0769 8.90903 11.0769 9.15385C11.0769 9.39866 10.9797 9.63345 10.8066 9.80656C10.6334 9.97967 10.3987 10.0769 10.1538 10.0769C9.90903 10.0769 9.67424 9.97967 9.50113 9.80656C9.32802 9.63345 9.23077 9.39866 9.23077 9.15385ZM12.4615 5.46154C12.4615 5.33913 12.4129 5.22174 12.3264 5.13518C12.2398 5.04863 12.1224 5 12 5C11.8776 5 11.7602 5.04863 11.6736 5.13518C11.5871 5.22174 11.5385 5.33913 11.5385 5.46154V5.92308H8.76923C8.40201 5.92308 8.04983 6.06896 7.79016 6.32862C7.53049 6.58829 7.38462 6.94047 7.38462 7.30769V11C7.38462 11.3672 7.53049 11.7194 7.79016 11.9791C8.04983 12.2387 8.40201 12.3846 8.76923 12.3846H15.2308C15.598 12.3846 15.9502 12.2387 16.2098 11.9791C16.4695 11.7194 16.6154 11.3672 16.6154 11V7.30769C16.6154 6.94047 16.4695 6.58829 16.2098 6.32862C15.9502 6.06896 15.598 5.92308 15.2308 5.92308H12.4615V5.46154ZM8.76923 6.84615H15.2308C15.3532 6.84615 15.4706 6.89478 15.5571 6.98134C15.6437 7.06789 15.6923 7.18528 15.6923 7.30769V11C15.6923 11.1224 15.6437 11.2398 15.5571 11.3264C15.4706 11.4129 15.3532 11.4615 15.2308 11.4615H8.76923C8.64682 11.4615 8.52943 11.4129 8.44287 11.3264C8.35632 11.2398 8.30769 11.1224 8.30769 11V7.30769C8.30769 7.18528 8.35632 7.06789 8.44287 6.98134C8.52943 6.89478 8.64682 6.84615 8.76923 6.84615ZM12.2308 19.7674C14.6455 19.7369 16.1031 19.2182 16.9588 18.4382C17.7665 17.6997 17.964 16.7978 17.9954 16.0788H18V15.4418C17.9998 14.9989 17.8236 14.5742 17.5103 14.261C17.197 13.9479 16.7722 13.772 16.3292 13.772H13.3846V13.7692H10.6154V13.772H7.67077C6.74769 13.772 6 14.5197 6 15.4428V16.0788H6.00462C6.036 16.7988 6.23354 17.7006 7.04123 18.4372C7.89692 19.2182 9.35446 19.7369 11.7692 19.7674V19.7692H12.2308V19.7674ZM7.67077 14.6951H16.3292C16.5275 14.6951 16.7177 14.7739 16.8579 14.9141C16.9981 15.0543 17.0769 15.2445 17.0769 15.4428V15.8462C17.0769 16.4831 16.956 17.1902 16.3366 17.756C15.7015 18.3348 14.4554 18.8462 12 18.8462C9.54462 18.8462 8.29846 18.3348 7.66338 17.756C7.04492 17.1902 6.92308 16.4822 6.92308 15.8462V15.4418C6.92332 15.2437 7.0022 15.0538 7.1424 14.9137C7.28259 14.7737 7.47263 14.6951 7.67077 14.6951Z" fill="black"/>
</svg>
