<svg width="65" height="65" viewBox="0 0 65 65" fill="none" xmlns="http://www.w3.org/2000/svg">
<circle cx="32.9482" cy="32.9482" r="32.0517" fill="#12201B"/>
<path d="M29.7744 23.9756C30.624 24.9424 31.0488 26.251 31.0488 27.9014C31.0488 29.5518 30.624 30.8652 29.7744 31.8418C28.9248 32.8184 27.7871 33.3066 26.3613 33.3066C24.9355 33.3066 23.7979 32.8184 22.9482 31.8418C22.1084 30.8652 21.6885 29.5518 21.6885 27.9014C21.6885 26.251 22.1084 24.9424 22.9482 23.9756C23.7979 22.999 24.9355 22.5107 26.3613 22.5107C27.7871 22.5107 28.9248 22.999 29.7744 23.9756ZM26.3613 31.0068C26.9082 31.0068 27.333 30.7334 27.6357 30.1865C27.9482 29.6299 28.1045 28.8682 28.1045 27.9014C28.1045 26.9248 27.9482 26.1631 27.6357 25.6162C27.333 25.0596 26.9082 24.7812 26.3613 24.7812C25.8242 24.7812 25.3994 25.0596 25.0869 25.6162C24.7842 26.1631 24.6328 26.9248 24.6328 27.9014C24.6328 28.8682 24.7842 29.6299 25.0869 30.1865C25.3994 30.7334 25.8242 31.0068 26.3613 31.0068ZM26.6543 44H23.4609L31.6494 32.7939L38.915 22.8623H42.0791L34.1104 33.7754L26.6543 44ZM42.5918 34.9326C43.4414 35.9092 43.8662 37.2227 43.8662 38.873C43.8662 40.5234 43.4414 41.8369 42.5918 42.8135C41.7422 43.7803 40.6045 44.2637 39.1787 44.2637C37.7529 44.2637 36.6152 43.7803 35.7656 42.8135C34.9258 41.8369 34.5059 40.5234 34.5059 38.873C34.5059 37.2227 34.9258 35.9092 35.7656 34.9326C36.6152 33.9561 37.7529 33.4678 39.1787 33.4678C40.6045 33.4678 41.7422 33.9561 42.5918 34.9326ZM37.9043 41.1436C38.2168 41.7002 38.6416 41.9785 39.1787 41.9785C39.7158 41.9785 40.1406 41.7002 40.4531 41.1436C40.7656 40.5869 40.9219 39.8252 40.9219 38.8584C40.9219 37.8916 40.7656 37.1299 40.4531 36.5732C40.1406 36.0166 39.7158 35.7383 39.1787 35.7383C38.6416 35.7383 38.2168 36.0166 37.9043 36.5732C37.6016 37.1299 37.4502 37.8916 37.4502 38.8584C37.4502 39.8252 37.6016 40.5869 37.9043 41.1436Z" fill="white"/>
</svg>
