<svg width="24" height="23" viewBox="0 0 24 23" fill="none" xmlns="http://www.w3.org/2000/svg">
<path d="M4.79999 10.8062C4.79999 7.67131 4.79999 6.10386 5.92399 5.12981C7.04932 4.15576 8.85865 4.15576 12.48 4.15576H16.32C19.94 4.15576 21.7493 4.15576 22.8747 5.12981C24 6.10386 24 7.67131 24 10.8062V16.3492C24 19.4841 24 21.0516 22.8747 22.0256C21.7507 22.9997 19.94 22.9997 16.32 22.9997H12.48C8.85865 22.9997 7.04932 22.9997 5.92399 22.0256C4.79999 21.0516 4.79999 19.4841 4.79999 16.3492V10.8062Z" fill="#82CA92"/>
<path opacity="0.5" d="M1.56267 1.3478C-1.58946e-07 2.69445 0 4.86335 0 9.2V11.5C0 15.8367 -1.58946e-07 18.0056 1.56267 19.3522C2.38533 20.0629 3.47333 20.3987 5.056 20.5574C4.8 19.5914 4.8 18.262 4.8 16.3484V10.8066C4.8 7.67165 4.8 6.1042 5.924 5.13015C7.04933 4.1561 8.85867 4.1561 12.48 4.1561H16.32C18.5227 4.1561 20.0533 4.1561 21.1707 4.3746C20.9867 3.00265 20.5973 2.0608 19.7707 1.3478C18.2093 -1.37091e-07 15.6947 0 10.6667 0C5.63867 0 3.124 -1.37091e-07 1.56267 1.3478Z" fill="#82CA92"/>
</svg>
