<svg width="35" height="36" viewBox="0 0 35 36" fill="none" xmlns="http://www.w3.org/2000/svg">
<ellipse cx="17.2669" cy="17.8284" rx="17.2669" ry="17.8284" fill="#231E54"/>
<path d="M9.96399 14.7415C9.75756 15.2719 9.6036 15.8298 9.50873 16.4085C9.69205 15.7447 10.2767 15.2554 10.9747 15.2379C10.9876 15.2376 11.0004 15.2375 11.0134 15.2375C11.5172 15.2375 11.9654 15.4833 12.2515 15.8651C12.4398 16.1162 12.5578 16.4262 12.5754 16.7637C12.6203 16.5403 12.6796 16.3224 12.7524 16.1111C13.4166 14.1831 15.2003 12.8026 17.2964 12.8026C18.8781 12.8026 20.2818 13.5886 21.161 14.8027L23.8065 13.9305L24.0165 13.8612C24.1323 13.8616 24.2353 13.9185 24.3007 14.0066C24.266 13.9381 24.2304 13.8702 24.1938 13.8028C22.8425 11.3111 20.2601 9.62669 17.2964 9.62669C13.9741 9.62669 11.1309 11.7435 9.96399 14.7415Z" fill="white"/>
<path d="M23.8854 21.2613L21.9513 20.2865C21.7811 20.2008 21.5875 20.221 21.4407 20.3223C21.4323 20.3369 21.4238 20.3514 21.4153 20.3659C21.335 20.5017 21.2485 20.6332 21.1564 20.76C20.277 21.9706 18.8753 22.7538 17.2964 22.7538C15.7013 22.7538 14.287 21.9543 13.4094 20.7224L10.3814 21.7208C11.7278 24.2305 14.3198 25.9297 17.2964 25.9297C19.2057 25.9297 20.9568 25.2306 22.3224 24.0669C23.0641 23.4348 23.6922 22.6657 24.17 21.7971C24.1729 21.7715 24.1739 21.7459 24.1731 21.7204C24.1672 21.5306 24.0622 21.3504 23.8854 21.2613Z" fill="white"/>
<path d="M9.3977 17.7782C9.3977 18.0781 9.4134 18.3742 9.44398 18.6657C9.55924 19.7643 9.88601 20.7974 10.3814 21.7208L13.4094 20.7224L18.6341 18.9999L22.1172 17.8515L24.7581 16.9809L24.8884 16.9379C24.9824 16.8863 25.0839 16.7956 25.125 16.6868C25.1122 16.5879 25.0976 16.4895 25.0814 16.3917C24.9483 15.59 24.7017 14.8282 24.3593 14.1247C24.3401 14.0852 24.3205 14.0458 24.3007 14.0066C24.2353 13.9185 24.1323 13.8616 24.0165 13.8612L23.8065 13.9305L21.161 14.8027L14.5358 16.987L12.4763 17.666C12.4784 17.5722 12.4829 17.4791 12.4898 17.3867C12.5058 17.175 12.5346 16.9671 12.5754 16.7637C12.5578 16.4262 12.4398 16.1162 12.2515 15.8651C11.9654 15.4833 11.5172 15.2375 11.0134 15.2375C11.0004 15.2375 10.9876 15.2376 10.9747 15.2379C10.2767 15.2554 9.69205 15.7447 9.50873 16.4085C9.48513 16.5524 9.4652 16.6976 9.44901 16.844C9.41512 17.1505 9.3977 17.4623 9.3977 17.7782Z" fill="#F6B41A"/>
<path fill-rule="evenodd" clip-rule="evenodd" d="M6.42285 17.7782C6.42285 18.4034 6.47239 19.0167 6.56765 19.614C6.73949 20.6916 7.06008 21.7175 7.50694 22.6685C9.26791 26.4159 12.9898 28.9997 17.2964 28.9997C21.4526 28.9997 25.0642 26.5933 26.8943 23.0569C27.7085 21.4835 28.17 19.6865 28.17 17.7782C28.17 17.1402 28.1185 16.5146 28.0193 15.9057C27.8441 14.8288 27.5202 13.804 27.0702 12.8545C25.3028 9.12509 21.5903 6.55664 17.2964 6.55664C12.7888 6.55664 8.92182 9.38723 7.27336 13.42C6.72565 14.7599 6.42285 16.2326 6.42285 17.7782ZM21.9513 20.2865L23.8854 21.2613C24.0622 21.3504 24.1672 21.5306 24.1731 21.7204C24.1739 21.7459 24.1729 21.7715 24.17 21.7971C23.6922 22.6657 23.0641 23.4348 22.3224 24.0669C20.9568 25.2306 19.2057 25.9297 17.2964 25.9297C14.3198 25.9297 11.7278 24.2305 10.3814 21.7208C9.88601 20.7974 9.55924 19.7643 9.44398 18.6657C9.4134 18.3742 9.3977 18.0781 9.3977 17.7782C9.3977 17.4623 9.41512 17.1505 9.44901 16.844C9.4652 16.6976 9.48513 16.5524 9.50873 16.4085C9.6036 15.8298 9.75756 15.2719 9.96399 14.7415C11.1309 11.7435 13.9741 9.62669 17.2964 9.62669C20.2601 9.62669 22.8425 11.3111 24.1938 13.8028C24.2304 13.8702 24.266 13.9381 24.3007 14.0066C24.3205 14.0458 24.3401 14.0852 24.3593 14.1247C24.7017 14.8282 24.9483 15.59 25.0814 16.3917C25.0976 16.4895 25.1122 16.5879 25.125 16.6868C25.0839 16.7956 24.9824 16.8863 24.8884 16.9379L24.7581 16.9809L22.1172 17.8515L18.6341 18.9999L13.4094 20.7224C14.287 21.9543 15.7013 22.7538 17.2964 22.7538C18.8753 22.7538 20.277 21.9706 21.1564 20.76C21.2485 20.6332 21.335 20.5017 21.4153 20.3659C21.4238 20.3514 21.4323 20.3369 21.4407 20.3223C21.5875 20.221 21.7811 20.2008 21.9513 20.2865Z" fill="#231E54"/>
<path d="M17.2964 12.8026C15.2003 12.8026 13.4166 14.1831 12.7524 16.1111C12.6796 16.3224 12.6203 16.5403 12.5754 16.7637C12.5346 16.9671 12.5058 17.175 12.4898 17.3867C12.4829 17.4791 12.4784 17.5722 12.4763 17.666L14.5358 16.987L21.161 14.8027C20.2818 13.5886 18.8781 12.8026 17.2964 12.8026Z" fill="#231E54"/>
<path d="M28.7901 18C28.7901 24.52 23.727 29.7901 17.5 29.7901C11.273 29.7901 6.20989 24.52 6.20989 18C6.20989 11.48 11.273 6.20989 17.5 6.20989C23.727 6.20989 28.7901 11.48 28.7901 18Z" stroke="white" stroke-width="0.419778"/>
</svg>
