<svg width="25" height="26" viewBox="0 0 25 26" fill="none" xmlns="http://www.w3.org/2000/svg">
<path d="M14.7059 16.3548C11.8052 16.3548 9.45378 14.0079 9.45378 11.1129C9.45378 9.93193 9.84508 8.84217 10.5053 7.96573C8.53082 8.78702 7.14286 10.7317 7.14286 13C7.14286 16.0108 9.58836 18.4516 12.605 18.4516C14.6728 18.4516 16.4722 17.3049 17.3997 15.6138C16.612 16.0844 15.6906 16.3548 14.7059 16.3548Z" fill="white"/>
<path fill-rule="evenodd" clip-rule="evenodd" d="M1.05042 0H23.9496C24.5297 0 25 0.469379 25 1.04839V24.9516C25 25.5306 24.5297 26 23.9496 26H1.05042C0.470289 26 0 25.5306 0 24.9516V1.04839C0 0.469379 0.470289 0 1.05042 0ZM6.09244 13C6.09244 16.5899 9.00823 19.5 12.605 19.5C15.8278 19.5 18.5038 17.1637 19.0256 14.0954C19.053 13.9338 19.0745 13.7702 19.0898 13.6047C19.0985 13.5105 19.1052 13.4157 19.1099 13.3203C19.0623 13.02 18.8017 12.7903 18.4874 12.7903C18.4282 12.7903 18.3708 12.7985 18.3165 12.8137C18.2411 12.9728 18.1555 13.1261 18.0605 13.2728C18.0004 13.3655 17.9366 13.4556 17.8693 13.5428C17.1394 14.4879 15.9939 15.0968 14.7059 15.0968C12.5014 15.0968 10.7143 13.3131 10.7143 11.1129C10.7143 9.70303 11.4481 8.46421 12.5553 7.75613C12.6682 7.68394 12.7849 7.61726 12.9052 7.55648C12.9858 7.51573 13.068 7.47764 13.1517 7.44231C13.2049 7.35007 13.2353 7.24309 13.2353 7.12903C13.2353 6.78163 12.9531 6.5 12.605 6.5C12.4638 6.5 12.3236 6.50449 12.1846 6.51333C8.78375 6.72958 6.09244 9.5511 6.09244 13ZM14.7059 16.3548C15.6906 16.3548 16.612 16.0844 17.3997 15.6138C16.4722 17.3049 14.6728 18.4516 12.605 18.4516C9.58836 18.4516 7.14286 16.0108 7.14286 13C7.14286 10.7317 8.53082 8.78702 10.5053 7.96573C9.84508 8.84217 9.45378 9.93193 9.45378 11.1129C9.45378 14.0079 11.8052 16.3548 14.7059 16.3548Z" fill="white"/>
</svg>
