<svg width="23" height="24" viewBox="0 0 23 24" fill="none" xmlns="http://www.w3.org/2000/svg">
<rect width="23" height="24" rx="5" fill="#9DADEC"/>
<path d="M7.28674 8.92692C7.28674 8.3359 7.28674 8.04073 7.32774 7.79442C7.41513 7.26555 7.63997 6.77906 7.97293 6.39842C8.30588 6.01778 8.73149 5.76067 9.19423 5.66062C9.41034 5.61377 9.6692 5.61377 10.1857 5.61377C10.4118 5.61377 10.5254 5.61377 10.6344 5.62515C11.1035 5.6755 11.5484 5.88637 11.9111 6.23022C11.9954 6.30987 12.0751 6.40089 12.2355 6.58429L12.5577 6.95241C13.0356 7.49858 13.2745 7.77167 13.5603 7.95305C13.7174 8.05311 13.884 8.13217 14.0569 8.18865C14.372 8.29106 14.71 8.29106 15.3852 8.29106H15.6042C17.1457 8.29106 17.917 8.29106 18.4177 8.80644C18.464 8.85329 18.5079 8.90349 18.5489 8.95637C18.9999 9.52864 18.9999 10.4101 18.9999 12.1718V13.6456C18.9999 16.1697 18.9999 17.432 18.3135 18.2158C17.6277 19.0002 16.5231 19.0002 14.3146 19.0002H11.972C9.76349 19.0002 8.65894 19.0002 7.97313 18.2158C7.28674 17.432 7.28674 16.1697 7.28674 13.6456V8.92692Z" fill="#9DADEC"/>
<path d="M16.1552 10.5776H12.6692" stroke="black" stroke-linecap="round"/>
<path d="M5 8.4512C5 7.83556 5 7.52809 5.0488 7.27151C5.15285 6.72061 5.42051 6.21384 5.81689 5.81734C6.21326 5.42085 6.71994 5.15302 7.27082 5.0488C7.52809 5 7.83625 5 8.4512 5C8.72032 5 8.85558 5 8.98526 5.01185C9.54376 5.0643 10.0735 5.28396 10.5052 5.64213C10.6056 5.7251 10.7004 5.81992 10.8914 6.01096L11.2749 6.39442C11.8438 6.96335 12.1283 7.24781 12.4685 7.43675C12.6555 7.54098 12.8539 7.62333 13.0598 7.68217C13.4349 7.78884 13.8372 7.78884 14.641 7.78884H14.9018C16.7369 7.78884 17.6551 7.78884 18.2512 8.3257C18.3063 8.3745 18.3586 8.42679 18.4074 8.48187C18.9442 9.07799 18.9442 9.99622 18.9442 11.8313V13.3665C18.9442 15.9957 18.9442 17.3107 18.1271 18.1271C17.3107 18.9442 15.9957 18.9442 13.3665 18.9442H10.5777C7.94851 18.9442 6.63357 18.9442 5.81713 18.1271C5 17.3107 5 15.9957 5 13.3665V8.4512Z" stroke="black"/>
</svg>
