<svg width="29" height="29" viewBox="0 0 29 29" fill="none" xmlns="http://www.w3.org/2000/svg">
<path opacity="0.5" fill-rule="evenodd" clip-rule="evenodd" d="M16.9165 26.5837H12.0832C7.52655 26.5837 5.24763 26.5837 3.83267 25.1675C2.4165 23.7525 2.4165 21.4736 2.4165 16.917V12.0837C2.4165 7.52703 2.4165 5.24812 3.83267 3.83316C5.24763 2.41699 7.53863 2.41699 12.1194 2.41699C12.8517 2.41699 13.4377 2.41699 13.9319 2.43753C13.9162 2.5342 13.9078 2.63208 13.9078 2.73237L13.8957 6.15678C13.8957 7.48233 13.8957 8.65441 14.0225 9.59812C14.1603 10.6216 14.4757 11.645 15.3118 12.4812C16.1456 13.3149 17.1703 13.6315 18.1937 13.7693C19.1374 13.8962 20.3095 13.8962 21.635 13.8962H26.5312C26.5832 14.5414 26.5832 15.3341 26.5832 16.3889V16.917C26.5832 21.4736 26.5832 23.7525 25.167 25.1675C23.752 26.5837 21.4731 26.5837 16.9165 26.5837Z" fill="#231E54"/>
<path d="M13.9076 2.73098L13.8955 6.1566C13.8955 7.48214 13.8955 8.65302 14.0224 9.59793C14.1601 10.6214 14.4755 11.6449 15.3117 12.4798C16.1454 13.3148 17.1701 13.6314 18.1935 13.7691C19.1373 13.896 20.3093 13.896 21.6349 13.896H26.5311C26.5468 14.0833 26.5576 14.2839 26.5649 14.5001H26.583C26.583 14.1763 26.583 14.0144 26.5709 13.8235C26.4779 12.6753 26.0781 11.5731 25.4133 10.6323C25.2998 10.4776 25.2224 10.3858 25.069 10.2009C24.1108 9.05539 22.8493 7.62714 21.7497 6.64598C20.7709 5.77114 19.4285 4.81535 18.2576 4.03356C17.2523 3.36293 16.7496 3.02702 16.0596 2.77689C15.8589 2.70548 15.6549 2.64379 15.4482 2.59202C14.9842 2.47723 14.5323 2.43735 13.8955 2.42285L13.9076 2.73098Z" fill="#231E54"/>
</svg>
