<svg width="87" height="93" viewBox="0 0 87 93" fill="none" xmlns="http://www.w3.org/2000/svg">
<rect x="0.670624" y="0.993652" width="86.3294" height="91.2469" rx="21.8555" fill="#123869"/>
<path d="M9.95935 46.6175C9.95935 48.581 10.1149 50.507 10.4141 52.3831L19.4474 49.4049C19.3514 48.4894 19.3021 47.5594 19.3021 46.6175C19.3021 45.6254 19.3568 44.6464 19.4632 43.6836C19.4654 43.2095 19.5307 42.7508 19.6507 42.316C19.9487 40.4986 20.4322 38.7463 21.0805 37.0807L12.6304 32.9303C10.9103 37.1385 9.95935 41.7634 9.95935 46.6175Z" fill="#123869"/>
<path d="M13.364 61.9758L22.3914 58.9995C20.8356 56.0995 19.8094 52.855 19.4474 49.4049L10.4141 52.3831C10.9538 55.7674 11.9606 58.9892 13.364 61.9758Z" fill="#123869"/>
<path d="M44.1086 81.8596C57.1614 81.8596 68.5038 74.302 74.2512 63.1957L65.8012 59.0454C65.7662 59.1102 65.7311 59.1748 65.6956 59.2393C65.6753 59.4222 65.625 59.6048 65.5422 59.7797L62.6441 65.9041C62.2537 66.7291 61.2892 67.0713 60.4898 66.6684L59.893 66.3676C55.6043 70.0223 50.1049 72.2179 44.1086 72.2179C34.7604 72.2179 26.6199 66.8815 22.3914 58.9995L13.364 61.9758C18.8945 73.7449 30.5833 81.8596 44.1086 81.8596Z" fill="#123869"/>
<path d="M78.2579 46.6175C78.2579 44.6138 78.0959 42.6491 77.7846 40.7367L68.7573 43.713C68.8616 44.6663 68.9152 45.6355 68.9152 46.6175C68.9152 51.1276 67.7851 55.3653 65.8012 59.0454L74.2512 63.1957C76.8083 58.2544 78.2579 52.6107 78.2579 46.6175Z" fill="#123869"/>
<path d="M66.106 34.7727C66.1875 34.8825 66.2505 35.0078 66.2901 35.1435C67.3653 37.3529 68.1397 39.7452 68.5578 42.2631C68.6088 42.5702 68.6545 42.8792 68.6948 43.19C68.7173 43.3637 68.7381 43.5381 68.7573 43.713L77.7846 40.7367C77.2341 37.3548 76.2169 34.1364 74.8037 31.1542L65.7703 34.1325C65.885 34.3441 65.9969 34.5575 66.106 34.7727Z" fill="#123869"/>
<path d="M12.6304 32.9303L21.0805 37.0807C24.7452 27.6652 33.6746 21.0172 44.1086 21.0172C53.416 21.0172 61.5262 26.3071 65.7703 34.1325L74.8037 31.1542C69.2531 19.4419 57.5937 11.3755 44.1086 11.3755C29.9521 11.3755 17.8075 20.2652 12.6304 32.9303Z" fill="#123869"/>
<path d="M44.1086 30.9913C37.5256 30.9913 31.9238 35.3268 29.8378 41.3818L35.4386 44.1327L56.2455 37.2727C53.4845 33.4597 49.0759 30.9913 44.1086 30.9913Z" fill="#123869"/>
<path d="M29.2891 43.7084C29.2891 44.2971 29.1919 44.8623 29.0132 45.388C28.9913 45.6782 28.9771 45.9706 28.9707 46.2651L35.4386 44.1327L29.8378 41.3818C29.6092 42.0456 29.4228 42.7299 29.2819 43.4315C29.2867 43.5232 29.2891 43.6155 29.2891 43.7084Z" fill="#123869"/>
<path d="M44.1086 62.2437C49.0672 62.2437 53.4691 59.7839 56.2311 55.9823L56.5731 55.2594C56.6754 55.0433 56.817 54.8604 56.9848 54.7152L48.3097 50.4544L31.9012 55.8642C34.6574 59.7329 39.0989 62.2437 44.1086 62.2437Z" fill="#123869"/>
<path d="M48.3097 50.4544L56.9848 54.7152C57.0294 54.6766 57.0759 54.6407 57.1239 54.6076C58.4389 52.3312 59.209 49.6808 59.2487 46.8479L48.3097 50.4544Z" fill="#123869"/>
<path d="M58.7274 54.4952L64.8017 57.5565C65.357 57.8364 65.6866 58.4023 65.7051 58.9983L65.8012 59.0454C67.7851 55.3653 68.9152 51.1276 68.9152 46.6175C68.9152 45.6355 68.8616 44.6663 68.7573 43.713L67.9517 43.9786C67.8267 44.0472 67.6886 44.0938 67.5424 44.1135L59.2487 46.8479C59.209 49.6808 58.4389 52.3312 57.1239 54.6076C57.585 54.2895 58.1931 54.2259 58.7274 54.4952Z" fill="#123869"/>
<path d="M62.6441 65.9041L65.5422 59.7797C65.625 59.6048 65.6753 59.4222 65.6956 59.2393C64.1948 61.9672 62.2225 64.3826 59.893 66.3676L60.4898 66.6684C61.2892 67.0713 62.2537 66.7291 62.6441 65.9041Z" fill="#123869"/>
<path d="M68.7573 43.713C68.7381 43.5381 68.7173 43.3637 68.6948 43.19C68.5656 43.5316 68.2469 43.8164 67.9517 43.9786L68.7573 43.713Z" fill="#123869"/>
<path d="M35.4386 44.1327L28.9707 46.2651C28.9682 46.3822 28.967 46.4997 28.967 46.6175C28.967 50.0776 30.0567 53.275 31.9012 55.8642L48.3097 50.4544L35.4386 44.1327Z" fill="#00C1C8"/>
<path d="M56.2455 37.2727L35.4386 44.1327L48.3097 50.4544L59.2487 46.8479C59.2497 46.7712 59.2503 46.6945 59.2503 46.6175C59.2503 43.1136 58.1328 39.8791 56.2455 37.2727Z" fill="#00C1C8"/>
<path d="M67.3849 44.124C66.7177 44.124 66.1768 43.5658 66.1768 42.8772C66.1768 42.1887 66.7177 41.6305 67.3849 41.6305C67.8358 41.6305 68.3025 41.8853 68.5578 42.2631C68.1397 39.7452 67.3653 37.3529 66.2901 35.1435C66.3212 35.2499 66.3379 35.3628 66.3379 35.4797C66.3379 36.1224 65.833 36.6434 65.2103 36.6434C64.5876 36.6434 64.0827 36.1224 64.0827 35.4797C64.0827 35.0898 64.2685 34.7447 64.5537 34.5336L56.2455 37.2727C58.1328 39.8791 59.2503 43.1136 59.2503 46.6175C59.2503 46.6945 59.2497 46.7712 59.2487 46.8479L67.5424 44.1135C67.4908 44.1204 67.4383 44.124 67.3849 44.124Z" fill="#00C1C8"/>
<path d="M65.2103 36.6434C65.833 36.6434 66.3379 36.1224 66.3379 35.4797C66.3379 35.3628 66.3212 35.2499 66.2901 35.1435C66.2297 35.0193 66.1683 34.8957 66.106 34.7727C65.9005 34.4959 65.5772 34.3171 65.2135 34.3161L64.5537 34.5336C64.2685 34.7447 64.0827 35.0898 64.0827 35.4797C64.0827 36.1224 64.5876 36.6434 65.2103 36.6434Z" fill="#00C1C8"/>
<path d="M66.1768 42.8772C66.1768 43.5658 66.7177 44.124 67.3849 44.124C67.4383 44.124 67.4908 44.1204 67.5424 44.1135L67.9517 43.9786C68.2469 43.8164 68.5656 43.5316 68.6948 43.19C68.6545 42.8792 68.6088 42.5702 68.5578 42.2631C68.3025 41.8853 67.8358 41.6305 67.3849 41.6305C66.7177 41.6305 66.1768 42.1887 66.1768 42.8772Z" fill="#00C1C8"/>
<path d="M24.3761 48.7786C23.713 48.7786 23.0806 48.643 22.5035 48.3973L19.4474 49.4049C19.8094 52.855 20.8356 56.0995 22.3914 58.9995L31.9012 55.8642C30.0567 53.275 28.967 50.0776 28.967 46.6175C28.967 46.4997 28.9682 46.3822 28.9707 46.2651L28.5352 46.4087C27.6653 47.8326 26.1278 48.7786 24.3761 48.7786Z" fill="#00C1C8"/>
<path d="M19.4632 43.6836C19.4632 43.6918 19.4632 43.7001 19.4632 43.7084C19.4632 45.8243 20.719 47.6374 22.5035 48.3973L28.5352 46.4087C28.7295 46.0906 28.8905 45.7486 29.0132 45.388C29.0633 44.7233 29.1537 44.0703 29.2819 43.4315C29.2266 42.3715 28.8559 41.398 28.2647 40.6092L24.2548 38.6397C22.0627 38.6946 20.2265 40.2312 19.6507 42.316C19.5767 42.7679 19.514 43.2239 19.4632 43.6836Z" fill="#00C1C8"/>
<path d="M19.3021 46.6175C19.3021 47.5594 19.3514 48.4894 19.4474 49.4049L22.5035 48.3973C20.719 47.6374 19.4632 45.8243 19.4632 43.7084C19.4632 43.7001 19.4632 43.6918 19.4632 43.6836C19.3568 44.6464 19.3021 45.6254 19.3021 46.6175Z" fill="#00C1C8"/>
<path d="M22.5035 48.3973C23.0806 48.643 23.713 48.7786 24.3761 48.7786C26.1278 48.7786 27.6653 47.8326 28.5352 46.4087L22.5035 48.3973Z" fill="#00C1C8"/>
<path d="M24.2548 38.6397L28.2647 40.6092C27.3662 39.4102 25.9585 38.6382 24.3761 38.6382C24.3356 38.6382 24.2951 38.6387 24.2548 38.6397Z" fill="#00C1C8"/>
<path d="M28.9707 46.2651C28.9771 45.9706 28.9913 45.6782 29.0132 45.388C28.8905 45.7486 28.7295 46.0906 28.5352 46.4087L28.9707 46.2651Z" fill="#00C1C8"/>
<path d="M29.0132 45.388C29.1919 44.8623 29.2891 44.2971 29.2891 43.7084C29.2891 43.6155 29.2867 43.5232 29.2819 43.4315C29.1537 44.0703 29.0633 44.7233 29.0132 45.388Z" fill="#123869"/>
<path d="M44.1086 21.0172C33.6746 21.0172 24.7452 27.6652 21.0805 37.0807L24.2548 38.6397C24.2951 38.6387 24.3356 38.6382 24.3761 38.6382C25.9585 38.6382 27.3662 39.4102 28.2647 40.6092L29.8378 41.3818C31.9238 35.3268 37.5256 30.9913 44.1086 30.9913C49.0759 30.9913 53.4845 33.4597 56.2455 37.2727L64.5537 34.5336C64.7386 34.3967 64.9654 34.3161 65.2103 34.3161L65.2135 34.3161L65.7703 34.1325C61.5262 26.3071 53.416 21.0172 44.1086 21.0172Z" fill="white"/>
<path d="M54.4155 63.6071C53.6161 63.2042 53.2846 62.2088 53.675 61.3838L56.2311 55.9823C53.4691 59.7839 49.0672 62.2437 44.1086 62.2437C39.0989 62.2437 34.6574 59.7329 31.9012 55.8642L22.3914 58.9995C26.6199 66.8815 34.7604 72.2179 44.1086 72.2179C50.1049 72.2179 55.6043 70.0223 59.893 66.3676L54.4155 63.6071Z" fill="white"/>
<path d="M53.675 61.3838C53.2846 62.2088 53.6161 63.2042 54.4155 63.6071L59.893 66.3676C62.2225 64.3826 64.1948 61.9672 65.6956 59.2393C65.7045 59.1588 65.7076 59.0783 65.7051 58.9983L57.044 54.7443C56.7919 55.1708 56.5205 55.5839 56.2311 55.9823L53.675 61.3838Z" fill="white"/>
<path d="M21.0805 37.0807C20.4322 38.7463 19.9487 40.4986 19.6507 42.316C20.2265 40.2312 22.0627 38.6946 24.2548 38.6397L21.0805 37.0807Z" fill="white"/>
<path d="M29.2819 43.4315C29.4228 42.7299 29.6092 42.0456 29.8378 41.3818L28.2647 40.6092C28.8559 41.398 29.2266 42.3715 29.2819 43.4315Z" fill="white"/>
<path d="M64.8017 57.5565L58.7274 54.4952C58.1931 54.2259 57.585 54.2895 57.1239 54.6076C57.0975 54.6533 57.0709 54.6989 57.044 54.7443L65.7051 58.9983C65.6866 58.4023 65.357 57.8364 64.8017 57.5565Z" fill="white"/>
<path d="M56.5731 55.2594L56.2311 55.9823C56.5205 55.5839 56.7919 55.1708 57.044 54.7443L56.9848 54.7152C56.817 54.8604 56.6754 55.0433 56.5731 55.2594Z" fill="white"/>
<path d="M57.1239 54.6076C57.0759 54.6407 57.0294 54.6766 56.9848 54.7152L57.044 54.7443C57.0709 54.6989 57.0975 54.6533 57.1239 54.6076Z" fill="white"/>
<path d="M65.6956 59.2393C65.7311 59.1748 65.7662 59.1102 65.8012 59.0454L65.7051 58.9983C65.7076 59.0783 65.7045 59.1588 65.6956 59.2393Z" fill="#123869"/>
<path d="M66.106 34.7727C65.9969 34.5575 65.885 34.3441 65.7703 34.1325L65.2135 34.3161C65.5772 34.3171 65.9005 34.4959 66.106 34.7727Z" fill="white"/>
<path d="M65.2103 34.3161C64.9654 34.3161 64.7386 34.3967 64.5537 34.5336L65.2135 34.3161L65.2103 34.3161Z" fill="white"/>
<path d="M66.106 34.7727C66.1875 34.8825 66.2505 35.0078 66.2901 35.1435C66.2297 35.0193 66.1683 34.8957 66.106 34.7727Z" fill="#123869"/>
<path d="M67.9517 43.9786C67.8267 44.0472 67.6886 44.0938 67.5424 44.1135L67.9517 43.9786Z" fill="#123869"/>
</svg>
