<svg width="47" height="45" viewBox="0 0 47 45" fill="none" xmlns="http://www.w3.org/2000/svg">
<rect width="46.3783" height="44.4048" rx="10" fill="#78E590"/>
<rect x="8.55009" y="7.76941" width="28.9473" height="30.5962" rx="14.4737" fill="#231E54"/>
<path d="M11.6647 23.0676C11.6647 23.726 11.7169 24.3718 11.8172 25.0008L14.8462 24.0022C14.814 23.6952 14.7974 23.3834 14.7974 23.0676C14.7974 22.7349 14.8158 22.4066 14.8515 22.0838C14.8522 21.9248 14.8741 21.771 14.9144 21.6252C15.0143 21.0158 15.1764 20.4283 15.3938 19.8698L12.5604 18.4781C11.9836 19.8891 11.6647 21.4399 11.6647 23.0676Z" fill="#231E54"/>
<path d="M12.8063 28.2174L15.8333 27.2194C15.3117 26.247 14.9675 25.1591 14.8462 24.0022L11.8172 25.0008C11.9981 26.1356 12.3357 27.216 12.8063 28.2174Z" fill="#231E54"/>
<path d="M23.1154 34.8847C27.4922 34.8847 31.2954 32.3505 33.2226 28.6265L30.3892 27.2348C30.3775 27.2565 30.3657 27.2782 30.3538 27.2998C30.347 27.3612 30.3301 27.4224 30.3023 27.481L29.3306 29.5346C29.1997 29.8112 28.8762 29.926 28.6082 29.7909L28.4081 29.69C26.97 30.9155 25.126 31.6517 23.1154 31.6517C19.9808 31.6517 17.2512 29.8624 15.8333 27.2194L12.8063 28.2174C14.6608 32.1637 18.5802 34.8847 23.1154 34.8847Z" fill="#231E54"/>
<path d="M34.5661 23.0676C34.5661 22.3957 34.5117 21.7369 34.4074 21.0957L31.3804 22.0936C31.4154 22.4133 31.4333 22.7383 31.4333 23.0676C31.4333 24.5799 31.0544 26.0008 30.3892 27.2348L33.2226 28.6265C34.08 26.9696 34.5661 25.0772 34.5661 23.0676Z" fill="#231E54"/>
<path d="M30.4914 19.0959C30.5187 19.1327 30.5398 19.1747 30.5531 19.2202C30.9136 19.9611 31.1733 20.7632 31.3135 21.6075C31.3306 21.7105 31.3459 21.8141 31.3594 21.9183C31.367 21.9766 31.374 22.035 31.3804 22.0936L34.4074 21.0957C34.2228 19.9617 33.8817 18.8825 33.4078 17.8826L30.3788 18.8812C30.4173 18.9521 30.4548 19.0237 30.4914 19.0959Z" fill="#231E54"/>
<path d="M12.5604 18.4781L15.3938 19.8698C16.6226 16.7126 19.6167 14.4835 23.1154 14.4835C26.2363 14.4835 28.9557 16.2572 30.3788 18.8812L33.4078 17.8826C31.5467 13.9553 27.6371 11.2505 23.1154 11.2505C18.3685 11.2505 14.2963 14.2313 12.5604 18.4781Z" fill="#231E54"/>
<path d="M23.1154 17.8279C20.908 17.8279 19.0297 19.2816 18.3302 21.312L20.2082 22.2344L27.185 19.9342C26.2592 18.6556 24.781 17.8279 23.1154 17.8279Z" fill="#231E54"/>
<path d="M18.1462 22.0921C18.1462 22.2895 18.1136 22.479 18.0537 22.6553C18.0463 22.7526 18.0416 22.8507 18.0395 22.9494L20.2082 22.2344L18.3302 21.312C18.2535 21.5345 18.191 21.764 18.1438 21.9993C18.1454 22.03 18.1462 22.061 18.1462 22.0921Z" fill="#231E54"/>
<path d="M23.1154 28.3072C24.7781 28.3072 26.2541 27.4824 27.1802 26.2077L27.2949 25.9653C27.3292 25.8929 27.3767 25.8315 27.4329 25.7828L24.5241 24.3541L19.0221 26.1681C19.9463 27.4653 21.4356 28.3072 23.1154 28.3072Z" fill="#231E54"/>
<path d="M24.5241 24.3541L27.4329 25.7828C27.4479 25.7699 27.4635 25.7579 27.4796 25.7467C27.9205 24.9835 28.1787 24.0947 28.192 23.1448L24.5241 24.3541Z" fill="#231E54"/>
<path d="M28.0172 25.7091L30.054 26.7356C30.2402 26.8294 30.3507 27.0192 30.357 27.219L30.3892 27.2348C31.0544 26.0008 31.4333 24.5799 31.4333 23.0676C31.4333 22.7383 31.4154 22.4133 31.3804 22.0936L31.1103 22.1827C31.0683 22.2057 31.0221 22.2214 30.973 22.228L28.192 23.1448C28.1787 24.0947 27.9205 24.9835 27.4796 25.7467C27.6342 25.6401 27.8381 25.6188 28.0172 25.7091Z" fill="#231E54"/>
<path d="M29.3306 29.5346L30.3023 27.481C30.3301 27.4224 30.347 27.3612 30.3538 27.2998C29.8505 28.2145 29.1892 29.0244 28.4081 29.69L28.6082 29.7909C28.8762 29.926 29.1997 29.8112 29.3306 29.5346Z" fill="#231E54"/>
<path d="M31.3804 22.0936C31.374 22.035 31.367 21.9766 31.3594 21.9183C31.3161 22.0328 31.2092 22.1283 31.1103 22.1827L31.3804 22.0936Z" fill="#231E54"/>
<path d="M20.2082 22.2344L18.0395 22.9494C18.0386 22.9887 18.0382 23.0281 18.0382 23.0676C18.0382 24.2278 18.4036 25.2999 19.0221 26.1681L24.5241 24.3541L20.2082 22.2344Z" fill="#F6B41A"/>
<path d="M27.185 19.9342L20.2082 22.2344L24.5241 24.3541L28.192 23.1448C28.1924 23.1191 28.1926 23.0934 28.1926 23.0676C28.1926 21.8927 27.8179 20.8081 27.185 19.9342Z" fill="#F6B41A"/>
<path d="M30.9202 22.2315C30.6965 22.2315 30.5151 22.0443 30.5151 21.8134C30.5151 21.5825 30.6965 21.3954 30.9202 21.3954C31.0714 21.3954 31.2279 21.4808 31.3135 21.6075C31.1733 20.7632 30.9136 19.9611 30.5531 19.2202C30.5635 19.2559 30.5691 19.2937 30.5691 19.3329C30.5691 19.5484 30.3999 19.7231 30.191 19.7231C29.9822 19.7231 29.813 19.5484 29.813 19.3329C29.813 19.2022 29.8752 19.0865 29.9709 19.0157L27.185 19.9342C27.8179 20.8081 28.1926 21.8927 28.1926 23.0676C28.1926 23.0934 28.1924 23.1191 28.192 23.1448L30.973 22.228C30.9557 22.2303 30.9381 22.2315 30.9202 22.2315Z" fill="#F6B41A"/>
<path d="M30.191 19.7231C30.3999 19.7231 30.5691 19.5484 30.5691 19.3329C30.5691 19.2937 30.5635 19.2559 30.5531 19.2202C30.5328 19.1786 30.5123 19.1371 30.4914 19.0959C30.4225 19.0031 30.3141 18.9431 30.1921 18.9428L29.9709 19.0157C29.8752 19.0865 29.813 19.2022 29.813 19.3329C29.813 19.5484 29.9822 19.7231 30.191 19.7231Z" fill="#F6B41A"/>
<path d="M30.5151 21.8134C30.5151 22.0443 30.6965 22.2315 30.9202 22.2315C30.9381 22.2315 30.9557 22.2303 30.973 22.228L31.1103 22.1827C31.2092 22.1283 31.3161 22.0328 31.3594 21.9183C31.3459 21.8141 31.3306 21.7105 31.3135 21.6075C31.2279 21.4808 31.0714 21.3954 30.9202 21.3954C30.6965 21.3954 30.5151 21.5825 30.5151 21.8134Z" fill="#F6B41A"/>
<path d="M16.4988 23.7922C16.2765 23.7922 16.0644 23.7468 15.8709 23.6644L14.8462 24.0022C14.9675 25.1591 15.3117 26.247 15.8333 27.2194L19.0221 26.1681C18.4036 25.2999 18.0382 24.2278 18.0382 23.0676C18.0382 23.0281 18.0386 22.9887 18.0395 22.9494L17.8934 22.9976C17.6017 23.475 17.0862 23.7922 16.4988 23.7922Z" fill="#F6B41A"/>
<path d="M14.8515 22.0838C14.8515 22.0866 14.8514 22.0893 14.8514 22.0921C14.8514 22.8016 15.2726 23.4096 15.8709 23.6644L17.8934 22.9976C17.9586 22.8909 18.0126 22.7762 18.0537 22.6553C18.0705 22.4324 18.1008 22.2135 18.1438 21.9993C18.1253 21.6438 18.0009 21.3174 17.8027 21.0529L16.4582 20.3925C15.7231 20.4109 15.1074 20.9262 14.9144 21.6252C14.8895 21.7768 14.8685 21.9297 14.8515 22.0838Z" fill="#F6B41A"/>
<path d="M14.7974 23.0676C14.7974 23.3834 14.814 23.6952 14.8462 24.0022L15.8709 23.6644C15.2726 23.4096 14.8514 22.8016 14.8514 22.0921C14.8514 22.0893 14.8515 22.0866 14.8515 22.0838C14.8158 22.4066 14.7974 22.7349 14.7974 23.0676Z" fill="#F6B41A"/>
<path d="M15.8709 23.6644C16.0644 23.7468 16.2765 23.7922 16.4988 23.7922C17.0862 23.7922 17.6017 23.475 17.8934 22.9976L15.8709 23.6644Z" fill="#F6B41A"/>
<path d="M16.4582 20.3925L17.8027 21.0529C17.5014 20.6509 17.0294 20.392 16.4988 20.392C16.4852 20.392 16.4717 20.3922 16.4582 20.3925Z" fill="#F6B41A"/>
<path d="M18.0395 22.9494C18.0416 22.8507 18.0463 22.7526 18.0537 22.6553C18.0126 22.7762 17.9586 22.8909 17.8934 22.9976L18.0395 22.9494Z" fill="#F6B41A"/>
<path d="M18.0537 22.6553C18.1136 22.479 18.1462 22.2895 18.1462 22.0921C18.1462 22.061 18.1454 22.03 18.1438 21.9993C18.1008 22.2135 18.0705 22.4324 18.0537 22.6553Z" fill="#231E54"/>
<path d="M23.1154 14.4835C19.6167 14.4835 16.6226 16.7126 15.3938 19.8698L16.4582 20.3925C16.4717 20.3922 16.4852 20.392 16.4988 20.392C17.0294 20.392 17.5014 20.6509 17.8027 21.0529L18.3302 21.312C19.0297 19.2816 20.908 17.8279 23.1154 17.8279C24.781 17.8279 26.2592 18.6556 27.185 19.9342L29.9709 19.0157C30.0329 18.9698 30.1089 18.9428 30.191 18.9428L30.1921 18.9428L30.3788 18.8812C28.9557 16.2572 26.2363 14.4835 23.1154 14.4835Z" fill="white"/>
<path d="M26.5714 28.7644C26.3034 28.6293 26.1922 28.2955 26.3231 28.0189L27.1802 26.2077C26.2541 27.4824 24.7781 28.3072 23.1154 28.3072C21.4356 28.3072 19.9463 27.4653 19.0221 26.1681L15.8333 27.2194C17.2512 29.8624 19.9808 31.6517 23.1154 31.6517C25.126 31.6517 26.97 30.9155 28.4081 29.69L26.5714 28.7644Z" fill="white"/>
<path d="M26.3231 28.0189C26.1922 28.2955 26.3034 28.6293 26.5714 28.7644L28.4081 29.69C29.1892 29.0244 29.8505 28.2145 30.3538 27.2998C30.3568 27.2728 30.3578 27.2458 30.357 27.219L27.4528 25.7926C27.3682 25.9356 27.2772 26.0741 27.1802 26.2077L26.3231 28.0189Z" fill="white"/>
<path d="M15.3938 19.8698C15.1764 20.4283 15.0143 21.0158 14.9144 21.6252C15.1074 20.9262 15.7231 20.4109 16.4582 20.3925L15.3938 19.8698Z" fill="white"/>
<path d="M18.1438 21.9993C18.191 21.764 18.2535 21.5345 18.3302 21.312L17.8027 21.0529C18.0009 21.3174 18.1253 21.6438 18.1438 21.9993Z" fill="white"/>
<path d="M30.054 26.7356L28.0172 25.7091C27.8381 25.6188 27.6342 25.6401 27.4796 25.7467C27.4707 25.7621 27.4618 25.7774 27.4528 25.7926L30.357 27.219C30.3507 27.0192 30.2402 26.8294 30.054 26.7356Z" fill="white"/>
<path d="M27.2949 25.9653L27.1802 26.2077C27.2772 26.0741 27.3682 25.9356 27.4528 25.7926L27.4329 25.7828C27.3767 25.8315 27.3292 25.8929 27.2949 25.9653Z" fill="white"/>
<path d="M27.4796 25.7467C27.4635 25.7579 27.4479 25.7699 27.4329 25.7828L27.4528 25.7926C27.4618 25.7774 27.4707 25.7621 27.4796 25.7467Z" fill="white"/>
<path d="M30.3538 27.2998C30.3657 27.2782 30.3775 27.2565 30.3892 27.2348L30.357 27.219C30.3578 27.2458 30.3568 27.2728 30.3538 27.2998Z" fill="#231E54"/>
<path d="M30.4914 19.0959C30.4548 19.0237 30.4173 18.9521 30.3788 18.8812L30.1921 18.9428C30.3141 18.9431 30.4225 19.0031 30.4914 19.0959Z" fill="white"/>
<path d="M30.191 18.9428C30.1089 18.9428 30.0329 18.9698 29.9709 19.0157L30.1921 18.9428L30.191 18.9428Z" fill="white"/>
<path d="M30.4914 19.0959C30.5187 19.1327 30.5398 19.1747 30.5531 19.2202C30.5328 19.1786 30.5123 19.1371 30.4914 19.0959Z" fill="#231E54"/>
<path d="M31.1103 22.1827C31.0683 22.2057 31.0221 22.2214 30.973 22.228L31.1103 22.1827Z" fill="#231E54"/>
</svg>
