<svg width="47" height="47" viewBox="0 0 47 47" fill="none" xmlns="http://www.w3.org/2000/svg">
<rect width="47" height="47" rx="10" fill="white"/>
<path d="M25.1 27C25.1 28.205 24.1598 29.1818 23 29.1818C21.8402 29.1818 20.9 28.205 20.9 27C20.9 25.795 21.8402 24.8182 23 24.8182C24.1598 24.8182 25.1 25.795 25.1 27Z" fill="#F6B41A"/>
<path fill-rule="evenodd" clip-rule="evenodd" d="M12.5 35C10.567 35 9 33.3719 9 31.3636V30.3973V23.6027V22.6364C9 20.6281 10.567 19 12.5 19H13.4301H33.2699H33.5C35.433 19 37 20.6281 37 22.6364V24.2671V29.7329V31.3636C37 33.3719 35.433 35 33.5 35H33.2699H13.4301H12.5ZM11.45 24.8182C13.1897 24.8182 14.6 23.3529 14.6 21.5455C14.6 21.1629 14.5368 20.7958 14.4208 20.4545H32.1C32.1596 20.4545 32.2188 20.4561 32.2777 20.4591C32.1626 20.7991 32.1 21.1647 32.1 21.5455C32.1 23.3529 33.5103 24.8182 35.25 24.8182C35.3683 24.8182 35.4851 24.8114 35.6 24.7982V29.2018C35.4851 29.1886 35.3683 29.1818 35.25 29.1818C33.5103 29.1818 32.1 30.6471 32.1 32.4545C32.1 32.8353 32.1626 33.2009 32.2777 33.5409C32.2188 33.5439 32.1596 33.5455 32.1 33.5455H14.4208C14.5368 33.2042 14.6 32.8371 14.6 32.4545C14.6 30.6471 13.1897 29.1818 11.45 29.1818C11.0818 29.1818 10.7284 29.2474 10.4 29.368V24.632C10.7284 24.7526 11.0818 24.8182 11.45 24.8182Z" fill="#F6B41A"/>
<path d="M28.5 13H29.25V12.25H28.5V13ZM15.4697 12.4697C15.1768 12.7626 15.1768 13.2374 15.4697 13.5303L20.2426 18.3033C20.5355 18.5962 21.0104 18.5962 21.3033 18.3033C21.5962 18.0104 21.5962 17.5355 21.3033 17.2426L17.0607 13L21.3033 8.75736C21.5962 8.46447 21.5962 7.98959 21.3033 7.6967C21.0104 7.40381 20.5355 7.40381 20.2426 7.6967L15.4697 12.4697ZM29.25 17V13H27.75V17H29.25ZM28.5 12.25L16 12.25V13.75L28.5 13.75V12.25Z" fill="#F6B41A"/>
</svg>
