<svg width="67" height="67" viewBox="0 0 67 67" fill="none" xmlns="http://www.w3.org/2000/svg">
<circle cx="33.6925" cy="33.1779" r="33.1212" fill="#F6B41A"/>
<path d="M37.3733 31.57H37.3731C37.246 31.57 37.143 31.467 37.143 31.34L37.1428 22.1267L45.4524 31.5694L37.3733 31.57ZM35.7628 20.9879L35.7629 31.34C35.7629 32.2294 36.4841 32.9503 37.3734 32.95C37.3735 32.95 37.3736 32.95 37.3736 32.95L45.8829 32.9494V41.4586C45.8829 43.6181 44.1323 45.3688 41.9728 45.3688H25.4122C23.2527 45.3688 21.502 43.6181 21.502 41.4586V24.898C21.502 22.7385 23.2527 20.9879 25.4122 20.9879H35.7628Z" stroke="white" stroke-width="1.38005"/>
</svg>
