<svg width="67" height="67" viewBox="0 0 67 67" fill="none" xmlns="http://www.w3.org/2000/svg">
<circle cx="33.4015" cy="33.7355" r="33.1212" fill="#23AA59"/>
<path d="M23.3106 28.5217C23.3106 29.0744 22.8589 29.5224 22.3016 29.5224C21.7443 29.5224 21.2925 29.0744 21.2925 28.5217C21.2925 27.969 21.7443 27.5209 22.3016 27.5209C22.8589 27.5209 23.3106 27.969 23.3106 28.5217Z" fill="white"/>
<path d="M36.1763 23.518H22.8061C20.0196 23.518 17.7607 25.7582 17.7607 28.5217V42.532C17.7607 45.2955 20.0196 47.5357 22.8061 47.5357H41.9784C44.7649 47.5357 47.0238 45.2955 47.0238 42.532V29.5224M41.4739 47.5357L26.4462 32.0243L17.7607 39.78M47.0238 40.5305L39.9506 33.5254L33.4013 39.2796M43.7443 19.0146V23.6504M43.7443 23.6504V29.5224M43.7443 23.6504H38.4467M43.7443 23.6504H49.0419M23.3106 28.5217C23.3106 29.0744 22.8589 29.5224 22.3016 29.5224C21.7443 29.5224 21.2925 29.0744 21.2925 28.5217C21.2925 27.969 21.7443 27.5209 22.3016 27.5209C22.8589 27.5209 23.3106 27.969 23.3106 28.5217Z" stroke="white" stroke-width="1.38005"/>
</svg>
