<svg width="67" height="67" viewBox="0 0 67 67" fill="none" xmlns="http://www.w3.org/2000/svg">
<circle cx="33.7374" cy="33.7355" r="33.1212" fill="#231E54"/>
<path d="M23.6466 28.5217C23.6466 29.0744 23.1948 29.5224 22.6375 29.5224C22.0802 29.5224 21.6284 29.0744 21.6284 28.5217C21.6284 27.969 22.0802 27.5209 22.6375 27.5209C23.1948 27.5209 23.6466 27.969 23.6466 28.5217Z" fill="white"/>
<path d="M36.5122 23.518H23.142C20.3556 23.518 18.0967 25.7582 18.0967 28.5217V42.532C18.0967 45.2955 20.3556 47.5357 23.142 47.5357H42.3144C45.1008 47.5357 47.3597 45.2955 47.3597 42.532V29.5224M41.8098 47.5357L26.7821 32.0243L18.0967 39.78M47.3597 40.5305L40.2865 33.5254L33.7373 39.2796M44.0802 19.0146V23.6504M44.0802 23.6504V29.5224M44.0802 23.6504H38.7826M44.0802 23.6504H49.3778M23.6466 28.5217C23.6466 29.0744 23.1948 29.5224 22.6375 29.5224C22.0802 29.5224 21.6284 29.0744 21.6284 28.5217C21.6284 27.969 22.0802 27.5209 22.6375 27.5209C23.1948 27.5209 23.6466 27.969 23.6466 28.5217Z" stroke="white" stroke-width="1.38005"/>
</svg>
