<svg width="67" height="67" viewBox="0 0 67 67" fill="none" xmlns="http://www.w3.org/2000/svg">
<circle cx="33.4015" cy="33.1779" r="33.1212" fill="#23AA59"/>
<path d="M37.0823 31.57H37.0821C36.955 31.57 36.852 31.467 36.852 31.34L36.8518 22.1267L45.1614 31.5694L37.0823 31.57ZM35.4717 20.9879L35.4719 31.34C35.4719 32.2294 36.193 32.9503 37.0824 32.95C37.0825 32.95 37.0826 32.95 37.0826 32.95L45.5919 32.9494V41.4586C45.5919 43.6181 43.8413 45.3688 41.6818 45.3688H25.1212C22.9617 45.3688 21.211 43.6181 21.211 41.4586V24.898C21.211 22.7385 22.9617 20.9879 25.1212 20.9879H35.4717Z" stroke="white" stroke-width="1.38005"/>
</svg>
