<svg width="67" height="67" viewBox="0 0 67 67" fill="none" xmlns="http://www.w3.org/2000/svg">
<circle cx="33.7374" cy="33.1779" r="33.1212" fill="#231E54"/>
<path d="M37.4182 31.57H37.418C37.2909 31.57 37.1879 31.467 37.1879 31.34L37.1878 22.1267L45.4973 31.5694L37.4182 31.57ZM35.8077 20.9879L35.8079 31.34C35.8079 32.2294 36.529 32.9503 37.4183 32.95C37.4184 32.95 37.4185 32.95 37.4186 32.95L45.9279 32.9494V41.4586C45.9279 43.6181 44.1772 45.3688 42.0177 45.3688H25.4571C23.2976 45.3688 21.547 43.6181 21.547 41.4586V24.898C21.547 22.7385 23.2976 20.9879 25.4571 20.9879H35.8077Z" stroke="white" stroke-width="1.38005"/>
</svg>
