<svg width="67" height="67" viewBox="0 0 67 67" fill="none" xmlns="http://www.w3.org/2000/svg">
<circle cx="33.6925" cy="33.7355" r="33.1212" fill="#F6B41A"/>
<path d="M23.6016 28.5217C23.6016 29.0744 23.1499 29.5224 22.5926 29.5224C22.0353 29.5224 21.5835 29.0744 21.5835 28.5217C21.5835 27.969 22.0353 27.5209 22.5926 27.5209C23.1499 27.5209 23.6016 27.969 23.6016 28.5217Z" fill="white"/>
<path d="M36.4673 23.518H23.0971C20.3106 23.518 18.0518 25.7582 18.0518 28.5217V42.532C18.0518 45.2955 20.3106 47.5357 23.0971 47.5357H42.2694C45.0559 47.5357 47.3148 45.2955 47.3148 42.532V29.5224M41.7649 47.5357L26.7372 32.0243L18.0518 39.78M47.3148 40.5305L40.2416 33.5254L33.6923 39.2796M44.0353 19.0146V23.6504M44.0353 23.6504V29.5224M44.0353 23.6504H38.7377M44.0353 23.6504H49.3329M23.6016 28.5217C23.6016 29.0744 23.1499 29.5224 22.5926 29.5224C22.0353 29.5224 21.5835 29.0744 21.5835 28.5217C21.5835 27.969 22.0353 27.5209 22.5926 27.5209C23.1499 27.5209 23.6016 27.969 23.6016 28.5217Z" stroke="white" stroke-width="1.38005"/>
</svg>
