<svg width="23" height="24" viewBox="0 0 23 24" fill="none" xmlns="http://www.w3.org/2000/svg">
<rect width="23" height="24" rx="5" fill="#D79DEC"/>
<path d="M12.5097 9.42322C12.0498 9.42322 11.6088 9.63222 11.2836 10.0042C10.9584 10.3763 10.7757 10.8808 10.7757 11.4069C10.7757 11.933 10.9584 12.4376 11.2836 12.8096C11.6088 13.1817 12.0498 13.3907 12.5097 13.3907C12.9696 13.3907 13.4106 13.1817 13.7358 12.8096C14.061 12.4376 14.2437 11.933 14.2437 11.4069C14.2437 10.8808 14.061 10.3763 13.7358 10.0042C13.4106 9.63222 12.9696 9.42322 12.5097 9.42322ZM11.4982 11.4069C11.4982 11.1 11.6048 10.8057 11.7945 10.5887C11.9842 10.3717 12.2415 10.2498 12.5097 10.2498C12.778 10.2498 13.0353 10.3717 13.2249 10.5887C13.4146 10.8057 13.5212 11.1 13.5212 11.4069C13.5212 11.7138 13.4146 12.0082 13.2249 12.2252C13.0353 12.4422 12.778 12.5641 12.5097 12.5641C12.2415 12.5641 11.9842 12.4422 11.7945 12.2252C11.6048 12.0082 11.4982 11.7138 11.4982 11.4069ZM16.2652 14.8784L13.3498 18.4194C13.2417 18.5507 13.1113 18.6553 12.9666 18.7268C12.8219 18.7983 12.6659 18.8352 12.5083 18.8352C12.3506 18.8352 12.1946 18.7983 12.0499 18.7268C11.9052 18.6553 11.7748 18.5507 11.6667 18.4194L8.75133 14.8784H8.76231L8.7574 14.8718L8.75133 14.8636C8.00303 13.8511 7.59336 12.5675 7.59534 11.2416C7.59534 8.13744 9.79489 5.62109 12.5083 5.62109C15.2217 5.62109 17.4212 8.13744 17.4212 11.2416C17.4232 12.5675 17.0135 13.8511 16.2652 14.8636L16.2591 14.8718L16.2542 14.8784H16.2652ZM15.7037 14.3432C16.3476 13.4778 16.7004 12.378 16.6987 11.2416C16.6987 8.59402 14.8225 6.44764 12.5083 6.44764C10.194 6.44764 8.31783 8.59402 8.31783 11.2416C8.31603 12.3781 8.66887 13.4779 9.31285 14.3432L9.40186 14.4632L12.1927 17.8524C12.2332 17.9016 12.2821 17.9408 12.3364 17.9676C12.3907 17.9945 12.4492 18.0083 12.5083 18.0083C12.5674 18.0083 12.6259 17.9945 12.6801 17.9676C12.7344 17.9408 12.7833 17.9016 12.8239 17.8524L15.6147 14.4632L15.7037 14.3432Z" fill="#D79DEC"/>
<path fill-rule="evenodd" clip-rule="evenodd" d="M15.7037 14.3432C16.3476 13.4778 16.7004 12.378 16.6987 11.2416C16.6987 8.59402 14.8225 6.44764 12.5083 6.44764C10.194 6.44764 8.31783 8.59402 8.31783 11.2416C8.31603 12.3781 8.66887 13.4779 9.31285 14.3432L9.40186 14.4632L12.1927 17.8524C12.2332 17.9016 12.2821 17.9408 12.3364 17.9676C12.3907 17.9945 12.4492 18.0083 12.5083 18.0083C12.5674 18.0083 12.6259 17.9945 12.6801 17.9676C12.7344 17.9408 12.7833 17.9016 12.8239 17.8524L15.6147 14.4632L15.7037 14.3432ZM11.2836 10.0042C11.6088 9.63222 12.0498 9.42322 12.5097 9.42322C12.9696 9.42322 13.4106 9.63222 13.7358 10.0042C14.061 10.3763 14.2437 10.8808 14.2437 11.4069C14.2437 11.933 14.061 12.4376 13.7358 12.8096C13.4106 13.1817 12.9696 13.3907 12.5097 13.3907C12.0498 13.3907 11.6088 13.1817 11.2836 12.8096C10.9584 12.4376 10.7757 11.933 10.7757 11.4069C10.7757 10.8808 10.9584 10.3763 11.2836 10.0042Z" fill="#D79DEC"/>
<path d="M11.4982 11.4069C11.4982 11.1 11.6048 10.8057 11.7945 10.5887C11.9842 10.3717 12.2415 10.2498 12.5097 10.2498C12.778 10.2498 13.0353 10.3717 13.2249 10.5887C13.4146 10.8057 13.5212 11.1 13.5212 11.4069C13.5212 11.7138 13.4146 12.0082 13.2249 12.2252C13.0353 12.4422 12.778 12.5641 12.5097 12.5641C12.2415 12.5641 11.9842 12.4422 11.7945 12.2252C11.6048 12.0082 11.4982 11.7138 11.4982 11.4069Z" fill="#D79DEC"/>
<path d="M12.0018 9.05882C11.4401 9.05882 10.9015 9.28193 10.5044 9.67906C10.1072 10.0762 9.88412 10.6148 9.88412 11.1765C9.88412 11.7381 10.1072 12.2767 10.5044 12.6739C10.9015 13.071 11.4401 13.2941 12.0018 13.2941C12.5634 13.2941 13.102 13.071 13.4992 12.6739C13.8963 12.2767 14.1194 11.7381 14.1194 11.1765C14.1194 10.6148 13.8963 10.0762 13.4992 9.67906C13.102 9.28193 12.5634 9.05882 12.0018 9.05882ZM10.7665 11.1765C10.7665 10.8488 10.8966 10.5346 11.1283 10.303C11.3599 10.0713 11.6741 9.94117 12.0018 9.94117C12.3294 9.94117 12.6436 10.0713 12.8752 10.303C13.1069 10.5346 13.2371 10.8488 13.2371 11.1765C13.2371 11.5041 13.1069 11.8183 12.8752 12.0499C12.6436 12.2816 12.3294 12.4118 12.0018 12.4118C11.6741 12.4118 11.3599 12.2816 11.1283 12.0499C10.8966 11.8183 10.7665 11.5041 10.7665 11.1765ZM16.5882 14.8823L13.0278 18.6623C12.8958 18.8025 12.7365 18.9142 12.5598 18.9905C12.383 19.0668 12.1925 19.1062 12 19.1062C11.8075 19.1062 11.617 19.0668 11.4402 18.9905C11.2635 18.9142 11.1042 18.8025 10.9722 18.6623L7.41177 14.8823H7.42518L7.41918 14.8753L7.41177 14.8665C6.4979 13.7856 5.99758 12.4154 6.00001 11C6.00001 7.68623 8.68624 5 12 5C15.3138 5 18 7.68623 18 11C18.0024 12.4154 17.5021 13.7856 16.5882 14.8665L16.5808 14.8753L16.5748 14.8823H16.5882ZM15.9025 14.3109C16.6889 13.3872 17.1198 12.2131 17.1176 11C17.1176 8.17364 14.8263 5.88235 12 5.88235C9.17365 5.88235 6.88236 8.17364 6.88236 11C6.88015 12.2131 7.31107 13.3872 8.09753 14.3109L8.20624 14.439L11.6146 18.057C11.6641 18.1096 11.7238 18.1515 11.7901 18.1801C11.8564 18.2087 11.9278 18.2235 12 18.2235C12.0722 18.2235 12.1436 18.2087 12.2099 18.1801C12.2762 18.1515 12.3359 18.1096 12.3854 18.057L15.7938 14.439L15.9025 14.3109Z" fill="black"/>
</svg>
