<svg width="23" height="24" viewBox="0 0 23 24" fill="none" xmlns="http://www.w3.org/2000/svg">
<rect width="23" height="24" rx="5" fill="#ECDB9D"/>
<rect x="9.31152" y="6.92383" width="9.408" height="10.752" rx="1.68" fill="#ECDB9D"/>
<path d="M8.325 6C7.44316 6 6.59743 6.35031 5.97387 6.97387C5.35031 7.59743 5 8.44316 5 9.325V14.225C5 14.6427 5.16594 15.0433 5.46131 15.3387C5.75668 15.6341 6.15728 15.8 6.575 15.8H6.75V14.75H6.575C6.43576 14.75 6.30223 14.6947 6.20377 14.5962C6.10531 14.4978 6.05 14.3642 6.05 14.225V9.325C6.05 8.72163 6.28969 8.14298 6.71633 7.71633C7.14298 7.28969 7.72163 7.05 8.325 7.05H15.325C15.4642 7.05 15.5978 7.10531 15.6962 7.20377C15.7947 7.30223 15.85 7.43576 15.85 7.575V7.75H16.9V7.575C16.9 7.36817 16.8593 7.16336 16.7801 6.97227C16.701 6.78119 16.5849 6.60756 16.4387 6.46131C16.2924 6.31505 16.1188 6.19904 15.9277 6.11989C15.7366 6.04074 15.5318 6 15.325 6H8.325ZM17.0778 8.45H17.425C17.8241 8.44995 18.2083 8.60141 18.5 8.87376C18.7917 9.14611 18.9692 9.51905 18.9965 9.9172L19 10.025V10.7278C18.9998 10.8608 18.9491 10.9887 18.8583 11.0857C18.7674 11.1828 18.6431 11.2418 18.5104 11.2507C18.3778 11.2597 18.2467 11.218 18.1436 11.1341C18.0404 11.0502 17.973 10.9302 17.9549 10.7985L17.95 10.7278V10.025C17.95 9.89813 17.904 9.77556 17.8207 9.67995C17.7373 9.58434 17.6221 9.52215 17.4964 9.5049L17.425 9.5H17.0778C16.9448 9.49996 16.8167 9.44943 16.7195 9.35862C16.6223 9.26781 16.5632 9.14349 16.5542 9.01078C16.5451 8.87808 16.5868 8.74688 16.6707 8.64369C16.7546 8.54051 16.8746 8.47303 17.0064 8.4549L17.0778 8.45ZM7.975 11.95C8.10197 11.95 8.22463 11.9961 8.32026 12.0796C8.41589 12.1631 8.478 12.2785 8.4951 12.4043L8.5 12.4757V14.2215C8.49996 14.3545 8.44943 14.4826 8.35862 14.5798C8.26781 14.6769 8.14349 14.7361 8.01078 14.7451C7.87808 14.7542 7.74688 14.7125 7.64369 14.6286C7.54051 14.5447 7.47303 14.4247 7.4549 14.2929L7.45 14.2215V12.4757C7.45 12.3365 7.50531 12.2029 7.60377 12.1045C7.70223 12.006 7.83576 11.9507 7.975 11.9507V11.95ZM8.4951 15.9001C8.47697 15.7683 8.40949 15.6483 8.30631 15.5644C8.20312 15.4805 8.07192 15.4388 7.93922 15.4479C7.80651 15.4569 7.68219 15.516 7.59138 15.6132C7.50057 15.7104 7.45004 15.8385 7.45 15.9715V16.675L7.4535 16.7828C7.48082 17.181 7.65826 17.5539 7.94997 17.8262C8.24169 18.0986 8.62591 18.25 9.025 18.25H9.375L9.4464 18.2451C9.57818 18.227 9.69816 18.1595 9.7821 18.0563C9.86604 17.9531 9.90768 17.8219 9.89862 17.6892C9.88955 17.5565 9.83045 17.4322 9.73325 17.3414C9.63606 17.2506 9.50802 17.2 9.375 17.2H9.025L8.9536 17.1951C8.82791 17.1778 8.71272 17.1157 8.62934 17.0201C8.54595 16.9244 8.50001 16.8019 8.5 16.675V15.9715L8.4951 15.9001ZM19 15.9715C19 15.8323 18.9447 15.6987 18.8462 15.6003C18.7478 15.5018 18.6142 15.4465 18.475 15.4465C18.3358 15.4465 18.2022 15.5018 18.1038 15.6003C18.0053 15.6987 17.95 15.8323 17.95 15.9715V16.675C17.95 16.8142 17.8947 16.9478 17.7962 17.0462C17.6978 17.1447 17.5642 17.2 17.425 17.2H16.7229C16.5837 17.2 16.4501 17.2553 16.3517 17.3538C16.2532 17.4522 16.1979 17.5858 16.1979 17.725C16.1979 17.8642 16.2532 17.9978 16.3517 18.0962C16.4501 18.1947 16.5837 18.25 16.7229 18.25H17.425C17.8427 18.25 18.2433 18.0841 18.5387 17.7887C18.8341 17.4933 19 17.0927 19 16.675V15.9715ZM13.9271 17.2H14.9736C15.1066 17.2 15.2347 17.2506 15.3319 17.3414C15.4291 17.4322 15.4882 17.5565 15.4972 17.6892C15.5063 17.8219 15.4646 17.9531 15.3807 18.0563C15.2968 18.1595 15.1768 18.227 15.045 18.2451L14.9736 18.25H13.9271C13.7941 18.25 13.666 18.1994 13.5688 18.1086C13.4717 18.0178 13.4125 17.8935 13.4035 17.7608C13.3944 17.6281 13.4361 17.4969 13.52 17.3937C13.6039 17.2905 13.7239 17.223 13.8557 17.2049L13.9271 17.2ZM12.1722 17.2H11.1257L11.0543 17.2049C10.9225 17.223 10.8025 17.2905 10.7186 17.3937C10.6347 17.4969 10.593 17.6281 10.6021 17.7608C10.6111 17.8935 10.6702 18.0178 10.7674 18.1086C10.8646 18.1994 10.9927 18.25 11.1257 18.25H12.1722L12.2436 18.2451C12.3754 18.227 12.4954 18.1595 12.5793 18.0563C12.6632 17.9531 12.7049 17.8219 12.6958 17.6892C12.6868 17.5565 12.6276 17.4322 12.5305 17.3414C12.4333 17.2506 12.3052 17.2 12.1722 17.2ZM18.9951 12.4043C18.977 12.2725 18.9095 12.1525 18.8063 12.0686C18.7031 11.9847 18.5719 11.943 18.4392 11.9521C18.3065 11.9611 18.1822 12.0203 18.0914 12.1174C18.0006 12.2146 17.95 12.3427 17.95 12.4757V14.2215L17.9549 14.2929C17.973 14.4247 18.0405 14.5447 18.1437 14.6286C18.2469 14.7125 18.3781 14.7542 18.5108 14.7451C18.6435 14.7361 18.7678 14.6769 18.8586 14.5798C18.9494 14.4826 19 14.3545 19 14.2215V12.4757L18.9951 12.4043ZM10.2521 8.975C10.2521 8.83576 10.1968 8.70223 10.0983 8.60377C9.99987 8.50531 9.86634 8.45 9.7271 8.45H9.025C8.60728 8.45 8.20668 8.61594 7.91131 8.91131C7.61594 9.20668 7.45 9.60728 7.45 10.025V10.7278C7.45 10.867 7.50531 11.0006 7.60377 11.099C7.70223 11.1975 7.83576 11.2528 7.975 11.2528C8.11424 11.2528 8.24777 11.1975 8.34623 11.099C8.44469 11.0006 8.5 10.867 8.5 10.7278V10.025C8.5 9.88576 8.55531 9.75223 8.65377 9.65377C8.75223 9.55531 8.88576 9.5 9.025 9.5H9.7271C9.86634 9.5 9.99987 9.44469 10.0983 9.34623C10.1968 9.24777 10.2521 9.11424 10.2521 8.975ZM14.2743 8.45H15.3264C15.4594 8.45004 15.5875 8.50057 15.6847 8.59138C15.7818 8.68219 15.841 8.80651 15.85 8.93922C15.8591 9.07192 15.8174 9.20312 15.7335 9.30631C15.6496 9.40949 15.5296 9.47697 15.3978 9.4951L15.3264 9.5H14.2743C14.1413 9.49996 14.0132 9.44943 13.916 9.35862C13.8189 9.26781 13.7597 9.14349 13.7507 9.01078C13.7416 8.87808 13.7833 8.74688 13.8672 8.64369C13.9511 8.54051 14.0711 8.47303 14.2029 8.4549L14.2743 8.45ZM12.5215 8.45H11.475L11.4036 8.4549C11.2718 8.47303 11.1518 8.54051 11.0679 8.64369C10.984 8.74688 10.9423 8.87808 10.9514 9.01078C10.9604 9.14349 11.0196 9.26781 11.1167 9.35862C11.2139 9.44943 11.342 9.49996 11.475 9.5H12.5215L12.5929 9.4951C12.7247 9.47697 12.8447 9.40949 12.9286 9.30631C13.0125 9.20312 13.0542 9.07192 13.0451 8.93922C13.0361 8.80651 12.9769 8.68219 12.8798 8.59138C12.7826 8.50057 12.6545 8.45004 12.5215 8.45Z" fill="black"/>
</svg>
