<svg width="26" height="26" viewBox="0 0 26 26" fill="none" xmlns="http://www.w3.org/2000/svg">
<path d="M1 13.2804C1 10.5256 1 9.14882 1.62581 8.00791C2.24922 6.8658 3.39133 6.15815 5.67435 4.74044L8.08132 3.24691C10.4943 1.74857 11.7014 1 13.0349 1C14.3683 1 15.5742 1.74857 17.9884 3.24691L20.3954 4.74044C22.6784 6.15815 23.8205 6.8658 24.4452 8.00791C25.0698 9.14882 25.0698 10.5256 25.0698 13.2792V15.1109C25.0698 19.8045 25.0698 22.1525 23.6593 23.6111C22.25 25.0698 19.9802 25.0698 15.4419 25.0698H10.6279C6.08955 25.0698 3.81977 25.0698 2.41049 23.6111C1 22.1525 1 19.8057 1 15.1109V13.2804Z" stroke="#BEBEBE" stroke-width="1.5"/>
<path d="M13.0349 16.6455V20.256" stroke="#BEBEBE" stroke-width="1.5" stroke-linecap="round"/>
</svg>
