<svg width="38" height="38" viewBox="0 0 38 38" fill="none" xmlns="http://www.w3.org/2000/svg">
<circle cx="18.9483" cy="18.9483" r="18.9483" fill="#5FD2A9"/>
<rect x="13.985" y="11.5039" width="11.4141" height="1.98506" fill="white"/>
<rect x="15.4741" y="9.02246" width="11.4141" height="2.48132" rx="1.02675" fill="white"/>
<rect x="11.0076" y="12.9927" width="17.3693" height="15.8805" rx="4.10702" fill="white"/>
<rect x="9.36459" y="13.4716" width="19.1661" height="15.0591" rx="3.76476" stroke="black" stroke-width="0.684503"/>
<rect x="12.787" y="11.4184" width="12.321" height="2.05351" stroke="black" stroke-width="0.684503"/>
<rect x="11.4177" y="9.36471" width="15.0591" height="2.05351" rx="0.684503" stroke="black" stroke-width="0.684503"/>
<circle cx="19.2897" cy="20.6592" r="5.54447" fill="white" stroke="black" stroke-width="0.821403"/>
<path d="M18.1726 22.5518H17.3312V17.6752H18.0882L20.5078 21.0918H20.5382V17.6752H21.3763V22.5518H20.6261L18.2031 19.1318H18.1726V22.5518Z" fill="black"/>
<line x1="16.2103" y1="20.358" x2="17.5945" y2="20.358" stroke="black" stroke-width="0.692107"/>
<line x1="16.2103" y1="21.7428" x2="17.5945" y2="21.7428" stroke="black" stroke-width="0.692107"/>
<line x1="21.0549" y1="20.358" x2="22.4391" y2="20.358" stroke="black" stroke-width="0.692107"/>
<line x1="21.0549" y1="21.7428" x2="22.4391" y2="21.7428" stroke="black" stroke-width="0.692107"/>
</svg>
