<svg width="38" height="38" viewBox="0 0 38 38" fill="none" xmlns="http://www.w3.org/2000/svg">
<circle cx="18.9483" cy="18.9483" r="18.9483" fill="#E36DA6"/>
<rect x="14.4963" y="25.6572" width="12.3622" height="2.47244" rx="1.23622" fill="white"/>
<rect x="14.4963" y="28.9531" width="12.3622" height="2.47244" rx="1.23622" fill="white"/>
<ellipse cx="20.6754" cy="11.646" rx="5.35696" ry="5.76903" fill="white"/>
<path d="M25.6807 19.4199C24.7439 19.143 23.4633 19.1877 22.5837 19.7673C21.7041 20.3469 21.1578 21.506 21.0427 22.4761C22.0356 22.8481 23.1865 22.7567 24.1397 22.1286C25.0928 21.5006 25.6309 20.479 25.6807 19.4199Z" fill="white"/>
<path d="M14.4488 17.7715C15.3856 17.4945 16.6662 17.5393 17.5458 18.1189C18.4254 18.6985 18.9717 19.8575 19.0868 20.8276C18.0939 21.1997 16.943 21.1083 15.9898 20.4802C15.0367 19.8521 14.4986 18.8306 14.4488 17.7715Z" fill="white"/>
<circle cx="19.5306" cy="11.7978" r="6.34785" stroke="black" stroke-width="0.793481"/>
<path d="M25.3441 20.5161C24.4073 20.2392 23.1268 20.2839 22.2472 20.8635C21.3676 21.4431 20.8213 22.6022 20.7062 23.5723C21.699 23.9443 22.85 23.8529 23.8031 23.2248C24.7563 22.5968 25.2943 21.5752 25.3441 20.5161Z" stroke="black" stroke-width="0.793481"/>
<path d="M13.5642 18.9297C14.501 18.6527 15.7816 18.6975 16.6612 19.2771C17.5407 19.8567 18.0871 21.0158 18.2022 21.9858C17.2093 22.3579 16.0583 22.2665 15.1052 21.6384C14.1521 21.0103 13.614 19.9888 13.5642 18.9297Z" stroke="black" stroke-width="0.793481"/>
<line x1="19.5305" y1="18.542" x2="19.5305" y2="25.6833" stroke="black" stroke-width="0.793481"/>
<line x1="19.7005" y1="24.4013" x2="22.8745" y2="22.1841" stroke="black" stroke-width="0.793481"/>
<line y1="-0.396741" x2="3.87165" y2="-0.396741" transform="matrix(-0.819787 -0.572669 -0.572669 0.819787 19.1338 23.1396)" stroke="black" stroke-width="0.793481"/>
<rect x="11.5958" y="25.2864" width="15.0761" height="3.17393" rx="1.58696" stroke="black" stroke-width="0.793481"/>
<rect x="11.5958" y="28.4602" width="15.0761" height="3.17393" rx="1.58696" stroke="black" stroke-width="0.793481"/>
<path d="M18.2081 13.6411H17.2434V8.05032H18.1113L20.8853 11.9674H20.9202V8.05032H21.8811V13.6411H21.021L18.243 9.7202H18.2081V13.6411Z" fill="black"/>
<line x1="15.9583" y1="11.0051" x2="17.5452" y2="11.0051" stroke="black" stroke-width="0.793481"/>
<line x1="15.9583" y1="12.5915" x2="17.5452" y2="12.5915" stroke="black" stroke-width="0.793481"/>
<line x1="21.5122" y1="11.0051" x2="23.0992" y2="11.0051" stroke="black" stroke-width="0.793481"/>
<line x1="21.5122" y1="12.5915" x2="23.0992" y2="12.5915" stroke="black" stroke-width="0.793481"/>
</svg>
