<svg width="25" height="25" viewBox="0 0 25 25" fill="none" xmlns="http://www.w3.org/2000/svg">
<path fill-rule="evenodd" clip-rule="evenodd" d="M0 12.2804C0 9.52561 0 8.14882 0.625814 7.00791C1.20904 5.93941 2.24626 5.25117 4.24696 4.00602C4.38034 3.92301 4.51801 3.83753 4.6601 3.74929L4.67435 3.74044L7.08132 2.24691C9.49432 0.74857 10.7014 0 12.0349 0C13.3681 0 14.5738 0.748306 16.9872 2.24612L19.3954 3.74044L19.4097 3.74931C21.6832 5.16111 22.8218 5.86818 23.4452 7.00791C24.0698 8.14882 24.0698 9.52561 24.0698 12.2792V14.1109C24.0698 18.8045 24.0698 21.1525 22.6593 22.6111C21.25 24.0698 18.9802 24.0698 14.4419 24.0698H9.62791C5.08955 24.0698 2.81977 24.0698 1.41049 22.6111C-1.19209e-07 21.1525 0 18.8057 0 14.1109V12.2804ZM13.5 20.2441V16H11.5L11.4651 16.2441V20.2441H13.5Z" fill="#DCDCDC"/>
</svg>
