<svg width="136" height="144" viewBox="0 0 136 144" fill="none" xmlns="http://www.w3.org/2000/svg">
<rect x="0.335938" width="135.515" height="143.234" rx="34.3076" fill="#123869"/>
<path d="M31.7934 57.3505C30.7757 59.9652 30.0167 62.7158 29.5489 65.5686C30.4527 62.296 33.3351 59.8839 36.7762 59.7978C36.8394 59.7963 36.9029 59.7955 36.9666 59.7955C39.4505 59.7955 41.6602 61.0073 43.0707 62.8894C43.9986 64.1276 44.5806 65.6558 44.6674 67.3198C44.8885 66.2184 45.1811 65.1441 45.54 64.1023C48.8145 54.5973 57.6079 47.7919 67.9415 47.7919C75.7388 47.7919 82.6592 51.6666 86.9933 57.652L100.035 53.3523L101.071 53.0108C101.642 53.0124 102.149 53.2931 102.472 53.7277C102.301 53.3898 102.125 53.0548 101.945 52.7227C95.2827 40.4388 82.5518 32.135 67.9415 32.135C51.5628 32.135 37.5459 42.5706 31.7934 57.3505Z" fill="white"/>
<path d="M100.424 89.4923L90.8893 84.6868C90.0505 84.2641 89.096 84.3639 88.3722 84.8633C88.3307 84.9351 88.2889 85.0066 88.2467 85.0779C87.8509 85.7474 87.4249 86.3959 86.9706 87.0212C82.6351 92.9888 75.7252 96.8501 67.9415 96.8501C60.0775 96.8501 53.1055 92.9088 48.7791 86.8358L33.851 91.7575C40.4887 104.13 53.2672 112.507 67.9415 112.507C77.3541 112.507 85.9867 109.06 92.719 103.324C96.3756 100.208 99.4716 96.4159 101.828 92.1338C101.842 92.0075 101.846 91.8811 101.843 91.7555C101.813 90.8199 101.296 89.9317 100.424 89.4923Z" fill="white"/>
<path d="M29.0016 72.321C29.0016 73.7994 29.079 75.2592 29.2298 76.6963C29.798 82.1122 31.4089 87.2053 33.851 91.7575L48.7791 86.8358L74.5361 78.3439L91.7075 72.6826L104.727 68.3903L105.369 68.1785C105.832 67.9239 106.333 67.4768 106.535 66.9405C106.472 66.4527 106.4 65.9677 106.32 65.4856C105.664 61.5332 104.449 57.7779 102.761 54.3096C102.666 54.1147 102.57 53.9207 102.472 53.7277C102.149 53.2931 101.642 53.0124 101.071 53.0108L100.035 53.3523L86.9933 57.652L54.3317 68.4204L44.1789 71.7677C44.1889 71.3055 44.2112 70.8464 44.2455 70.3909C44.3242 69.3475 44.4662 68.3224 44.6674 67.3198C44.5806 65.6558 43.9986 64.1276 43.0707 62.8894C41.6602 61.0073 39.4505 59.7955 36.9666 59.7955C36.9029 59.7955 36.8394 59.7963 36.7762 59.7978C33.3351 59.8839 30.4527 62.296 29.5489 65.5686C29.4326 66.2781 29.3343 66.9938 29.2546 67.7154C29.0875 69.2267 29.0016 70.7635 29.0016 72.321Z" fill="#00C1C8"/>
<path fill-rule="evenodd" clip-rule="evenodd" d="M14.3359 72.321C14.3359 75.4031 14.5802 78.4264 15.0498 81.3714C15.8969 86.6839 17.4774 91.7414 19.6804 96.4294C28.3618 114.904 46.7102 127.642 67.9415 127.642C88.4311 127.642 106.236 115.779 115.258 98.3445C119.272 90.5879 121.547 81.7287 121.547 72.321C121.547 69.1756 121.293 66.0916 120.804 63.0896C119.94 57.7809 118.343 52.7287 116.125 48.0476C107.412 29.6622 89.1096 17 67.9415 17C45.7195 17 26.6556 30.9545 18.5289 50.8356C15.8287 57.4413 14.3359 64.7012 14.3359 72.321ZM90.8893 84.6868L100.424 89.4923C101.296 89.9317 101.813 90.8199 101.843 91.7555C101.846 91.8811 101.842 92.0075 101.828 92.1338C99.4716 96.4159 96.3756 100.208 92.719 103.324C85.9867 109.06 77.3541 112.507 67.9415 112.507C53.2672 112.507 40.4887 104.13 33.851 91.7575C31.4089 87.2053 29.798 82.1122 29.2298 76.6963C29.079 75.2592 29.0016 73.7994 29.0016 72.321C29.0016 70.7635 29.0875 69.2267 29.2546 67.7154C29.3343 66.9938 29.4326 66.2781 29.5489 65.5686C30.0167 62.7158 30.7757 59.9652 31.7934 57.3505C37.5459 42.5706 51.5628 32.135 67.9415 32.135C82.5518 32.135 95.2827 40.4388 101.945 52.7227C102.125 53.0548 102.301 53.3898 102.472 53.7277C102.57 53.9207 102.666 54.1147 102.761 54.3096C104.449 57.7779 105.664 61.5332 106.32 65.4856C106.4 65.9677 106.472 66.4527 106.535 66.9405C106.333 67.4768 105.832 67.9239 105.369 68.1785L104.727 68.3903L91.7075 72.6826L74.5361 78.3439L48.7791 86.8358C53.1055 92.9088 60.0775 96.8501 67.9415 96.8501C75.7252 96.8501 82.6351 92.9888 86.9706 87.0212C87.4249 86.3959 87.8509 85.7474 88.2467 85.0779C88.2889 85.0066 88.3307 84.9351 88.3722 84.8633C89.096 84.3639 90.0505 84.2641 90.8893 84.6868Z" fill="#123869"/>
<path d="M67.9415 47.7919C57.6079 47.7919 48.8145 54.5973 45.54 64.1023C45.1811 65.1441 44.8885 66.2184 44.6674 67.3198C44.4662 68.3224 44.3242 69.3475 44.2455 70.3909C44.2112 70.8464 44.1889 71.3055 44.1789 71.7677L54.3317 68.4204L86.9933 57.652C82.6592 51.6666 75.7388 47.7919 67.9415 47.7919Z" fill="#123869"/>
</svg>
