<svg width="48" height="48" viewBox="0 0 48 48" fill="none" xmlns="http://www.w3.org/2000/svg">
<rect width="48" height="48" rx="5" fill="#F6B41A"/>
<rect x="18.5664" y="32.2075" width="15.175" height="3.03501" rx="1.5175" fill="#F6B41A"/>
<rect x="18.5664" y="36.2534" width="15.175" height="3.03501" rx="1.5175" fill="#F6B41A"/>
<ellipse cx="26.154" cy="15.0084" rx="6.57585" ry="7.08169" fill="#F6B41A"/>
<path d="M32.2966 24.5523C31.1466 24.2124 29.5746 24.2673 28.4949 24.9788C27.4152 25.6903 26.7446 27.1131 26.6033 28.3039C27.8221 28.7606 29.2349 28.6483 30.4049 27.8774C31.5749 27.1064 32.2354 25.8524 32.2966 24.5523Z" fill="#F6B41A"/>
<path d="M18.5103 22.5294C19.6603 22.1894 21.2323 22.2444 22.312 22.9559C23.3917 23.6673 24.0623 25.0901 24.2036 26.2809C22.9848 26.7376 21.572 26.6254 20.402 25.8544C19.232 25.0835 18.5715 23.8295 18.5103 22.5294Z" fill="#F6B41A"/>
<circle cx="24.7467" cy="15.1952" r="7.79221" stroke="black" stroke-width="0.974026"/>
<path d="M31.8818 25.899C30.7318 25.5591 29.1598 25.614 28.0801 26.3255C27.0004 27.037 26.3298 28.4597 26.1885 29.6505C27.4073 30.1072 28.8201 29.995 29.9901 29.2241C31.1601 28.4531 31.8206 27.1991 31.8818 25.899Z" stroke="black" stroke-width="0.974026"/>
<path d="M17.4227 23.9498C18.5727 23.6098 20.1446 23.6648 21.2243 24.3763C22.304 25.0877 22.9747 26.5105 23.116 27.7013C21.8972 28.158 20.4843 28.0458 19.3143 27.2748C18.1443 26.5039 17.4838 25.2499 17.4227 23.9498Z" stroke="black" stroke-width="0.974026"/>
<line x1="24.7468" y1="23.4746" x2="24.7468" y2="32.2408" stroke="black" stroke-width="0.974026"/>
<line x1="24.955" y1="30.6657" x2="28.8511" y2="27.944" stroke="black" stroke-width="0.974026"/>
<line y1="-0.487013" x2="4.75258" y2="-0.487013" transform="matrix(-0.819787 -0.572669 -0.572669 0.819787 24.2598 29.1177)" stroke="black" stroke-width="0.974026"/>
<rect x="15.0065" y="31.7531" width="18.5065" height="3.8961" rx="1.94805" stroke="black" stroke-width="0.974026"/>
<rect x="15.0065" y="35.6491" width="18.5065" height="3.8961" rx="1.94805" stroke="black" stroke-width="0.974026"/>
<path d="M23.1264 17.8633H21.9421V11.0004H23.0075L26.4128 15.8087H26.4556V11.0004H27.6351V17.8633H26.5792L23.1692 13.0502H23.1264V17.8633Z" fill="black"/>
<line x1="20.3638" y1="14.2205" x2="22.3118" y2="14.2205" stroke="black" stroke-width="0.974026"/>
<line x1="20.3638" y1="16.1678" x2="22.3118" y2="16.1678" stroke="black" stroke-width="0.974026"/>
<line x1="27.1819" y1="14.2205" x2="29.1299" y2="14.2205" stroke="black" stroke-width="0.974026"/>
<line x1="27.1819" y1="16.1678" x2="29.1299" y2="16.1678" stroke="black" stroke-width="0.974026"/>
</svg>
