<svg width="47" height="47" viewBox="0 0 47 47" fill="none" xmlns="http://www.w3.org/2000/svg">
<rect width="47" height="47" rx="10" fill="white"/>
<circle cx="23.6466" cy="16.0624" r="6.07922" stroke="#F6B41A"/>
<path d="M29.3165 24.5677C28.4027 24.2976 27.1535 24.3412 26.2955 24.9066C25.4375 25.472 24.9045 26.6026 24.7923 27.549C25.7608 27.9119 26.8835 27.8227 27.8133 27.21C28.7431 26.5974 29.2679 25.6009 29.3165 24.5677Z" stroke="#F6B41A"/>
<path d="M17.8265 23.0191C18.7404 22.749 19.9896 22.7927 20.8476 23.3581C21.7056 23.9234 22.2385 25.0541 22.3508 26.0004C21.3823 26.3633 20.2595 26.2741 19.3298 25.6614C18.4 25.0488 17.8751 24.0523 17.8265 23.0191Z" stroke="#F6B41A"/>
<line x1="23.7598" y1="22.6416" x2="23.7598" y2="29.6078" stroke="#F6B41A"/>
<line x1="23.7474" y1="28.2637" x2="26.8435" y2="26.1009" stroke="#F6B41A"/>
<line y1="-0.5" x2="3.77672" y2="-0.5" transform="matrix(-0.819787 -0.572669 -0.572669 0.819787 23.2598 27.1257)" stroke="#F6B41A"/>
<rect x="16.0195" y="29.3333" width="14.4805" height="2.87013" rx="1.43507" stroke="#F6B41A"/>
<rect x="16.0195" y="32.4294" width="14.4805" height="2.87013" rx="1.43507" stroke="#F6B41A"/>
<path d="M22.3591 18.0303H21.418V12.5766H22.2646L24.9706 16.3976H25.0046V12.5766H25.9419V18.0303H25.1029L22.3931 14.2055H22.3591V18.0303Z" fill="#F6B41A"/>
<line x1="20.1636" y1="15.1741" x2="21.7116" y2="15.1741" stroke="#F6B41A"/>
<line x1="20.1636" y1="16.7219" x2="21.7116" y2="16.7219" stroke="#F6B41A"/>
<line x1="25.582" y1="15.1741" x2="27.1301" y2="15.1741" stroke="#F6B41A"/>
<line x1="25.582" y1="16.7219" x2="27.1301" y2="16.7219" stroke="#F6B41A"/>
</svg>
