<svg width="48" height="45" viewBox="0 0 48 45" fill="none" xmlns="http://www.w3.org/2000/svg">
<rect width="48" height="45" rx="10" fill="#F6B41A"/>
<circle cx="24.4498" cy="14.65" r="7.20002" stroke="black" stroke-width="0.900003"/>
<path d="M31.0431 24.5388C29.9805 24.2247 28.528 24.2755 27.5303 24.9329C26.5327 25.5903 25.913 26.905 25.7825 28.0053C26.9086 28.4273 28.2141 28.3236 29.2952 27.6112C30.3763 26.8988 30.9866 25.7402 31.0431 24.5388Z" stroke="black" stroke-width="0.900003"/>
<path d="M17.6825 22.7395C18.7451 22.4254 20.1976 22.4762 21.1952 23.1336C22.1929 23.791 22.8126 25.1057 22.9431 26.206C21.817 26.628 20.5115 26.5243 19.4304 25.8119C18.3493 25.0995 17.739 23.9408 17.6825 22.7395Z" stroke="black" stroke-width="0.900003"/>
<line x1="24.45" y1="22.2998" x2="24.45" y2="30.3998" stroke="black" stroke-width="0.900003"/>
<line x1="24.6422" y1="28.946" x2="28.2422" y2="26.4312" stroke="black" stroke-width="0.900003"/>
<line y1="-0.450001" x2="4.3914" y2="-0.450001" transform="matrix(-0.819787 -0.572669 -0.572669 0.819787 24 27.5146)" stroke="black" stroke-width="0.900003"/>
<rect x="15.45" y="29.95" width="17.1001" height="3.60001" rx="1.80001" stroke="black" stroke-width="0.900003"/>
<rect x="15.45" y="33.5501" width="17.1001" height="3.60001" rx="1.80001" stroke="black" stroke-width="0.900003"/>
<path d="M22.9522 17.8003H21.8579V11.459H22.8423L25.9888 15.9018H26.0283V11.459H27.1182V17.8003H26.1426L22.9917 13.353H22.9522V17.8003Z" fill="black"/>
<line x1="20.3997" y1="13.7507" x2="22.1997" y2="13.7507" stroke="black" stroke-width="0.900003"/>
<line x1="20.3997" y1="15.55" x2="22.1997" y2="15.55" stroke="black" stroke-width="0.900003"/>
<line x1="26.6997" y1="13.7507" x2="28.4997" y2="13.7507" stroke="black" stroke-width="0.900003"/>
<line x1="26.6997" y1="15.55" x2="28.4997" y2="15.55" stroke="black" stroke-width="0.900003"/>
</svg>
