<svg width="20" height="33" viewBox="0 0 20 33" fill="none" xmlns="http://www.w3.org/2000/svg">
<circle cx="10.1093" cy="8.18372" r="7.70233" stroke="#BEBEBE" stroke-width="0.962791"/>
<path d="M17.1622 18.7626C16.0255 18.4266 14.4717 18.481 13.4045 19.1842C12.3372 19.8875 11.6743 21.2938 11.5346 22.4709C12.7394 22.9224 14.1359 22.8114 15.2924 22.0494C16.4489 21.2873 17.1018 20.0478 17.1622 18.7626Z" stroke="#BEBEBE" stroke-width="0.962791"/>
<path d="M2.86962 16.8374C4.00633 16.5013 5.56014 16.5557 6.6274 17.2589C7.69467 17.9622 8.35756 19.3686 8.49723 20.5456C7.29249 20.9971 5.89595 20.8861 4.73944 20.1241C3.58294 19.362 2.93007 18.1225 2.86962 16.8374Z" stroke="#BEBEBE" stroke-width="0.962791"/>
<line x1="10.1093" y1="16.3677" x2="10.1093" y2="25.0328" stroke="#BEBEBE" stroke-width="0.962791"/>
<line x1="10.315" y1="23.4769" x2="14.1662" y2="20.7867" stroke="#BEBEBE" stroke-width="0.962791"/>
<line y1="-0.481395" x2="4.69776" y2="-0.481395" transform="matrix(-0.819787 -0.572669 -0.572669 0.819787 9.62793 21.9463)" stroke="#BEBEBE" stroke-width="0.962791"/>
<rect x="0.481395" y="24.5512" width="18.293" height="3.85116" rx="1.92558" stroke="#BEBEBE" stroke-width="0.962791"/>
<rect x="0.481395" y="28.4023" width="18.293" height="3.85116" rx="1.92558" stroke="#BEBEBE" stroke-width="0.962791"/>
<path d="M8.50713 10.9258H7.33655V4.14206H8.3896L11.7556 8.89489H11.7979V4.14206H12.9638V10.9258H11.9201L8.54944 6.16824H8.50713V10.9258Z" fill="#BEBEBE"/>
<line x1="5.77673" y1="7.22124" x2="7.70231" y2="7.22124" stroke="#BEBEBE" stroke-width="0.962791"/>
<line x1="5.77673" y1="9.14653" x2="7.70231" y2="9.14653" stroke="#BEBEBE" stroke-width="0.962791"/>
<line x1="12.5162" y1="7.22124" x2="14.4418" y2="7.22124" stroke="#BEBEBE" stroke-width="0.962791"/>
<line x1="12.5162" y1="9.14653" x2="14.4418" y2="9.14653" stroke="#BEBEBE" stroke-width="0.962791"/>
</svg>
