<svg width="20" height="31" viewBox="0 0 20 31" fill="none" xmlns="http://www.w3.org/2000/svg">
<path d="M17.1622 16.3579C16.0255 16.0218 14.4717 16.0762 13.4045 16.7794C12.3372 17.4827 11.6743 18.8891 11.5346 20.0661C12.7394 20.5176 14.1359 20.4066 15.2924 19.6446C16.4489 18.8825 17.1018 17.643 17.1622 16.3579Z" fill="#BEBEBE"/>
<path d="M2.86962 14.4326C4.00633 14.0966 5.56014 14.1509 6.6274 14.8541C7.69467 15.5574 8.35756 16.9638 8.49723 18.1409C7.29249 18.5923 5.89595 18.4813 4.73944 17.7193C3.58294 16.9572 2.93007 15.7177 2.86962 14.4326Z" fill="#BEBEBE"/>
<line x1="10.1279" y1="13.9629" x2="10.1279" y2="22.628" stroke="#BEBEBE"/>
<line x1="10.3044" y1="21.0569" x2="14.1555" y2="18.3666" stroke="#BEBEBE"/>
<line y1="-0.5" x2="4.69776" y2="-0.5" transform="matrix(-0.819787 -0.572669 -0.572669 0.819787 9.62793 19.5415)" stroke="#BEBEBE"/>
<rect y="22" width="19" height="4" rx="2" fill="#BEBEBE"/>
<rect y="27" width="19.2558" height="4" rx="2" fill="#BEBEBE"/>
<path fill-rule="evenodd" clip-rule="evenodd" d="M17 7C17 10.866 13.866 14 10 14C6.13401 14 3 10.866 3 7C3 3.13401 6.13401 0 10 0C13.866 0 17 3.13401 17 7ZM7.6 10H8.5985V5.7921H8.63459L11.5098 10H12.4V8.28572H14V7.42857H12.4V6.57143H14V5.71429H12.4V4H11.4055V8.20374H11.3694L8.49825 4H7.6V5.71429H6V6.57143H7.6V7.42857H6V8.28572H7.6V10Z" fill="#BEBEBE"/>
</svg>
