<svg width="16" height="17" viewBox="0 0 16 17" fill="none" xmlns="http://www.w3.org/2000/svg">
<path d="M3.88444 0.715555C4.86963 0.715555 5.61556 1.13074 6.12222 1.96111C6.62889 2.77741 6.88222 3.93148 6.88222 5.42333C6.88222 6.91518 6.64296 8.08333 6.16444 8.92778C5.68593 9.75815 4.92593 10.1733 3.88444 10.1733C3.25111 10.1733 2.7163 9.98333 2.28 9.60333C1.8437 9.22333 1.51296 8.68148 1.28778 7.97778C1.06259 7.26 0.95 6.40852 0.95 5.42333C0.95 3.93148 1.18222 2.77741 1.64667 1.96111C2.11111 1.13074 2.85704 0.715555 3.88444 0.715555ZM3.88444 2.02444C3.39185 2.02444 3.03296 2.31296 2.80778 2.89C2.58259 3.45296 2.47 4.29741 2.47 5.42333C2.47 6.54926 2.58259 7.40074 2.80778 7.97778C3.03296 8.55481 3.39185 8.84333 3.88444 8.84333C4.37704 8.84333 4.74296 8.56185 4.98222 7.99889C5.23556 7.42185 5.36222 6.56333 5.36222 5.42333C5.36222 4.29741 5.23556 3.45296 4.98222 2.89C4.74296 2.31296 4.37704 2.02444 3.88444 2.02444ZM13.0256 0.926666L5.17222 16H3.58889L11.4422 0.926666H13.0256ZM12.6456 6.75333C13.293 6.75333 13.8419 6.94333 14.2922 7.32333C14.7426 7.68926 15.0804 8.22407 15.3056 8.92778C15.5448 9.61741 15.6644 10.4619 15.6644 11.4611C15.6644 12.953 15.4181 14.1211 14.9256 14.9656C14.447 15.7959 13.687 16.2111 12.6456 16.2111C12.0122 16.2111 11.4774 16.0211 11.0411 15.6411C10.6048 15.2611 10.2741 14.7193 10.0489 14.0156C9.8237 13.2978 9.71111 12.4463 9.71111 11.4611C9.71111 9.96926 9.94333 8.81519 10.4078 7.99889C10.8863 7.16852 11.6322 6.75333 12.6456 6.75333ZM12.6456 8.08333C12.167 8.08333 11.8152 8.36481 11.59 8.92778C11.3648 9.49074 11.2522 10.3352 11.2522 11.4611C11.2522 12.6011 11.3648 13.4596 11.59 14.0367C11.8152 14.5996 12.167 14.8811 12.6456 14.8811C13.1522 14.8811 13.5252 14.5996 13.7644 14.0367C14.0037 13.4737 14.1233 12.6152 14.1233 11.4611C14.1233 10.3352 14.0037 9.49074 13.7644 8.92778C13.5252 8.36481 13.1522 8.08333 12.6456 8.08333Z" fill="#F6B41A"/>
</svg>
