<svg width="23" height="24" viewBox="0 0 23 24" fill="none" xmlns="http://www.w3.org/2000/svg">
<path d="M13.5294 15.0968C10.8608 15.0968 8.69748 12.9304 8.69748 10.2581C8.69748 9.16793 9.05747 8.162 9.66491 7.35298C7.84836 8.1111 6.57143 9.90622 6.57143 12C6.57143 14.7792 8.82129 17.0323 11.5966 17.0323C13.499 17.0323 15.1544 15.9737 16.0077 14.4127C15.2831 14.8471 14.4354 15.0968 13.5294 15.0968Z" fill="black"/>
<path fill-rule="evenodd" clip-rule="evenodd" d="M0.966387 0H22.0336C22.5673 0 23 0.433273 23 0.967742V23.0323C23 23.5667 22.5673 24 22.0336 24H0.966386C0.432666 24 0 23.5667 0 23.0323V0.967742C0 0.433273 0.432666 0 0.966387 0ZM5.60504 12C5.60504 15.3137 8.28757 18 11.5966 18C14.5616 18 17.0235 15.8434 17.5035 13.0112C17.5288 12.862 17.5486 12.7109 17.5626 12.5582C17.5707 12.4712 17.5768 12.3837 17.5811 12.2957C17.5373 12.0184 17.2976 11.8065 17.0084 11.8065C16.9539 11.8065 16.9012 11.814 16.8511 11.8281C16.7818 11.9749 16.7031 12.1164 16.6157 12.2518C16.5604 12.3374 16.5017 12.4205 16.4397 12.5011C15.7683 13.3734 14.7144 13.9355 13.5294 13.9355C11.5013 13.9355 9.85714 12.289 9.85714 10.2581C9.85714 8.95664 10.5322 7.81312 11.5509 7.15951C11.6547 7.09286 11.7621 7.03131 11.8728 6.97521C11.947 6.9376 12.0226 6.90243 12.0996 6.86982C12.1485 6.78468 12.1765 6.68593 12.1765 6.58064C12.1765 6.25996 11.9169 6 11.5966 6C11.4667 6 11.3377 6.00414 11.2099 6.0123C8.08105 6.21192 5.60504 8.8164 5.60504 12ZM13.5294 15.0968C14.4354 15.0968 15.2831 14.8471 16.0077 14.4127C15.1544 15.9737 13.499 17.0323 11.5966 17.0323C8.82129 17.0323 6.57143 14.7792 6.57143 12C6.57143 9.90622 7.84836 8.1111 9.66491 7.35298C9.05747 8.162 8.69748 9.16793 8.69748 10.2581C8.69748 12.9304 10.8608 15.0968 13.5294 15.0968Z" fill="black"/>
</svg>
