<svg width="23" height="24" viewBox="0 0 23 24" fill="none" xmlns="http://www.w3.org/2000/svg">
<rect width="23" height="24" rx="5" fill="#9DECBD"/>
<path d="M14.0255 18.2496L14.317 17.6637L13.6231 17.175L13.623 17.1752L13.3311 17.7609L14.0255 18.2496ZM11.8707 17.6637L12.1622 18.2496L12.8561 17.7609L12.5651 17.175L11.8707 17.6637ZM13.3311 17.7609C13.3059 17.8087 13.271 17.8482 13.2295 17.8755C13.188 17.9029 13.1413 17.9172 13.0938 17.9172C13.0464 17.9172 12.9997 17.9029 12.9582 17.8755C12.9167 17.8482 12.8818 17.8087 12.8566 17.7609L12.1622 18.2496C12.578 19.0856 13.6091 19.0856 14.0255 18.2496L13.3316 17.7609H13.3311ZM12.287 6.08349H13.9007V5.12402H12.287V6.08349ZM18.0693 11.0408V11.6804H18.8762V11.0408H18.0693ZM8.11836 11.6804V11.0408H7.31152V11.6804H8.11836ZM7.31152 11.6804C7.31152 12.4192 7.31152 12.9968 7.33842 13.4631C7.36531 13.9332 7.42072 14.3247 7.54712 14.6867L8.29264 14.3196C8.21357 14.0944 8.16731 13.8194 8.1431 13.3979C8.11836 12.9718 8.11836 12.432 8.11836 11.6804H7.31152ZM10.8363 15.9929C10.1607 15.9788 9.8068 15.9277 9.52925 15.7908L9.22104 16.6773C9.65404 16.891 10.1467 16.9389 10.8223 16.953L10.8363 15.9929ZM7.54712 14.6867C7.70255 15.133 7.93038 15.5385 8.21759 15.88C8.5048 16.2216 8.84577 16.4925 9.22104 16.6773L9.52925 15.7908C8.96913 15.5149 8.52465 14.9857 8.29264 14.3196L7.54712 14.6867ZM18.0693 11.6804C18.0693 12.432 18.0693 12.9718 18.0446 13.3979C18.0204 13.8194 17.9741 14.0944 17.8956 14.3196L18.6406 14.6867C18.767 14.3247 18.8224 13.9332 18.8498 13.4631C18.8767 12.9968 18.8762 12.4192 18.8762 11.6804H18.0693ZM15.3654 16.9517C16.041 16.9383 16.5337 16.891 16.9667 16.6773L16.6579 15.7908C16.3809 15.9277 16.027 15.9788 15.3519 15.9929L15.3654 16.9524V16.9517ZM17.8956 14.3196C17.6636 14.9857 17.2186 15.5149 16.6585 15.7908L16.9667 16.6773C17.3419 16.4925 17.6829 16.2216 17.9701 15.88C18.2573 15.5385 18.4851 15.133 18.6406 14.6867L17.8956 14.3196ZM13.9007 6.08349C14.7887 6.08349 15.4267 6.08349 15.9242 6.14042C16.4159 6.19607 16.7284 6.30225 16.978 6.48391L17.3991 5.6658C17.0016 5.37668 16.5509 5.24748 16.0006 5.18479C15.4563 5.12338 14.7731 5.12402 13.9007 5.12402V6.08349ZM18.8762 11.0408C18.8762 10.0032 18.8762 9.19154 18.8245 8.54357C18.7724 7.88922 18.6637 7.35255 18.4206 6.88049L17.7325 7.38105L17.7321 7.38134C17.8854 7.67813 17.9747 8.04977 18.0215 8.63504C18.0688 9.22608 18.0693 9.9847 18.0693 11.0408H18.8762ZM16.9774 6.48391C17.2851 6.70792 17.5438 7.01535 17.7325 7.38105C17.7325 7.38115 17.7326 7.38124 17.7326 7.38134L18.4206 6.88049C18.1655 6.38539 17.8155 5.96914 17.3991 5.6658L16.978 6.48455L16.9774 6.48391ZM12.287 5.12402C11.4146 5.12402 10.732 5.12402 10.1871 5.18479C9.63682 5.24748 9.18553 5.37668 8.78857 5.6658L9.2095 6.48409L9.20974 6.48455C9.45932 6.30225 9.77184 6.19607 10.264 6.14042C10.761 6.08413 11.399 6.08349 12.287 6.08349V5.12402ZM8.11836 11.0408C8.11836 9.9847 8.11836 9.22608 8.16623 8.6344C8.21303 8.04977 8.30232 7.67813 8.45508 7.38134L7.76712 6.88113C7.52399 7.35319 7.41534 7.88922 7.36262 8.54357C7.31152 9.19217 7.31152 10.0032 7.31152 11.0408H8.11836ZM8.78857 5.6658C8.37223 5.96914 8.0222 6.38603 7.76712 6.88113L8.45562 7.38134C8.6439 7.01575 8.90223 6.7083 9.2095 6.48409C9.20958 6.48403 9.20966 6.48397 9.20974 6.48391L8.78857 5.6658ZM12.5646 17.175C12.5632 17.1722 12.5618 17.1694 12.5604 17.1666C12.4535 16.9506 12.359 16.7598 12.2666 16.6095C12.1703 16.4426 12.0453 16.3019 11.8997 16.1969L11.4942 17.0266C11.5194 17.0445 11.5544 17.0765 11.6146 17.175C11.6797 17.2811 11.7534 17.4283 11.8707 17.6637L12.5646 17.175ZM10.8223 16.9517C11.059 16.9568 11.208 16.9607 11.322 16.9754C11.4285 16.9895 11.47 17.0099 11.4942 17.0266L11.8997 16.1969C11.7491 16.0977 11.5824 16.038 11.4108 16.0217C11.2563 16.0013 11.0718 15.9976 10.8602 15.9934C10.8523 15.9932 10.8443 15.9931 10.8363 15.9929L10.8223 16.953V16.9517ZM14.317 17.6637C14.4343 17.4289 14.508 17.2811 14.573 17.175C14.6333 17.0765 14.6683 17.0445 14.6935 17.0266L14.288 16.1969C14.132 16.3057 14.019 16.4496 13.9211 16.6095C13.8281 16.7617 13.7318 16.9549 13.6226 17.175L13.623 17.1752L14.317 17.6637ZM15.3519 15.9929C15.3438 15.9931 15.3357 15.9932 15.3277 15.9934C15.1162 15.9976 14.9313 16.0013 14.7769 16.0217C14.6096 16.0441 14.4456 16.0882 14.288 16.1969L14.6935 17.0266C14.7177 17.0099 14.7592 16.9895 14.8657 16.9754C14.9797 16.9607 15.1292 16.9562 15.3659 16.9517L15.3519 15.9923V15.9929Z" fill="#9DECBD"/>
<path d="M13.623 17.1752L13.6226 17.175C13.7318 16.9549 13.8281 16.7617 13.9211 16.6095C14.019 16.4496 14.132 16.3057 14.288 16.1969C14.4456 16.0882 14.6096 16.0441 14.7769 16.0217C14.9313 16.0013 15.1162 15.9976 15.3277 15.9934L15.3519 15.9929C16.027 15.9788 16.3809 15.9277 16.6579 15.7908L16.8123 16.234L16.9667 16.6773L16.6585 15.7908C17.2186 15.5149 17.6636 14.9857 17.8956 14.3196C17.9741 14.0944 18.0204 13.8194 18.0446 13.3979C18.0693 12.9718 18.0693 12.432 18.0693 11.6804V11.0408C18.0693 9.9847 18.0688 9.22608 18.0215 8.63504C17.9747 8.04977 17.8854 7.67813 17.7321 7.38134L17.7325 7.38105C17.544 7.0156 17.2854 6.70852 16.978 6.48455L17.3991 5.6658L16.978 6.48391C16.7284 6.30225 16.4159 6.19607 15.9242 6.14042C15.4267 6.08349 14.7887 6.08349 13.9007 6.08349H12.287C11.399 6.08349 10.761 6.08413 10.264 6.14042C9.77184 6.19607 9.45932 6.30225 9.20974 6.48455L9.2095 6.48409C8.90223 6.7083 8.6439 7.01575 8.45562 7.38134L8.11137 7.13123L7.76712 6.88113L8.45508 7.38134C8.30232 7.67813 8.21303 8.04977 8.16623 8.6344C8.11836 9.22608 8.11836 9.9847 8.11836 11.0408V11.6804C8.11836 12.432 8.11836 12.9718 8.1431 13.3979C8.16731 13.8194 8.21357 14.0944 8.29264 14.3196C8.52465 14.9857 8.96913 15.5149 9.52925 15.7908C9.8068 15.9277 10.1607 15.9788 10.8363 15.9929L10.8602 15.9934C11.0718 15.9976 11.2563 16.0013 11.4108 16.0217C11.5824 16.038 11.7491 16.0977 11.8997 16.1969C12.0453 16.3019 12.1703 16.4426 12.2666 16.6095C12.359 16.7598 12.4535 16.9506 12.5604 17.1666L12.5646 17.175L12.2176 17.4193L11.8707 17.6637L12.5651 17.175L12.8561 17.7609L12.5092 18.0052L12.8566 17.7609C12.8818 17.8087 12.9167 17.8482 12.9582 17.8755C12.9997 17.9029 13.0464 17.9172 13.0938 17.9172C13.1413 17.9172 13.188 17.9029 13.2295 17.8755C13.271 17.8482 13.3059 17.8087 13.3311 17.7609L13.623 17.1752Z" fill="#9DECBD"/>
<path d="M13.1278 18.3619L13.4807 17.7654L12.6407 17.2679L12.2872 17.8644L13.1278 18.3619ZM10.5193 17.7654L10.8722 18.3619L11.7122 17.8644L11.3599 17.2679L10.5193 17.7654ZM12.2872 17.8644C12.2567 17.9131 12.2144 17.9533 12.1642 17.9811C12.1139 18.0089 12.0574 18.0236 12 18.0236C11.9426 18.0236 11.8861 18.0089 11.8358 17.9811C11.7856 17.9533 11.7433 17.9131 11.7128 17.8644L10.8722 18.3619C11.3755 19.2129 12.6238 19.2129 13.1278 18.3619L12.2878 17.8644H12.2872ZM11.0233 5.97674H12.9767V5H11.0233V5.97674ZM18.0233 11.0233V11.6744H19V11.0233H18.0233ZM5.97674 11.6744V11.0233H5V11.6744H5.97674ZM5 11.6744C5 12.4265 5 13.0145 5.03256 13.4892C5.06512 13.9678 5.13219 14.3663 5.28521 14.7349L6.18772 14.3611C6.092 14.1319 6.036 13.8519 6.0067 13.4228C5.97674 12.9891 5.97674 12.4395 5.97674 11.6744H5ZM9.26707 16.0646C8.44921 16.0502 8.02074 15.9981 7.68474 15.8588L7.31163 16.7613C7.83581 16.9788 8.43228 17.0276 9.25014 17.042L9.26707 16.0646ZM5.28521 14.7349C5.47337 15.1892 5.74918 15.6019 6.09687 15.9496C6.44456 16.2973 6.85734 16.5731 7.31163 16.7613L7.68474 15.8588C7.00667 15.5779 6.4686 15.0392 6.18772 14.3611L5.28521 14.7349ZM18.0233 11.6744C18.0233 12.4395 18.0233 12.9891 17.9933 13.4228C17.964 13.8519 17.908 14.1319 17.8129 14.3611L18.7148 14.7349C18.8678 14.3663 18.9349 13.9678 18.9681 13.4892C19.0007 13.0145 19 12.4265 19 11.6744H18.0233ZM14.7499 17.0406C15.5677 17.027 16.1642 16.9788 16.6884 16.7613L16.3146 15.8588C15.9793 15.9981 15.5508 16.0502 14.7336 16.0646L14.7499 17.0413V17.0406ZM17.8129 14.3611C17.5321 15.0392 16.9933 15.5779 16.3153 15.8588L16.6884 16.7613C17.1427 16.5731 17.5554 16.2973 17.9031 15.9496C18.2508 15.6019 18.5266 15.1892 18.7148 14.7349L17.8129 14.3611ZM12.9767 5.97674C14.0518 5.97674 14.8241 5.97674 15.4264 6.0347C16.0216 6.09135 16.3999 6.19944 16.702 6.38437L17.2119 5.55154C16.7307 5.25721 16.185 5.12567 15.5189 5.06186C14.8599 4.99935 14.0329 5 12.9767 5V5.97674ZM19 11.0233C19 9.96707 19 9.14074 18.9375 8.48112C18.8743 7.81498 18.7428 7.26865 18.4485 6.78809L17.615 7.29795C17.8006 7.60009 17.9086 7.97842 17.9653 8.57423C18.0226 9.17591 18.0233 9.94819 18.0233 11.0233H19ZM16.7014 6.38437C17.074 6.61247 17.3873 6.92554 17.6156 7.29795L18.4485 6.78809C18.1397 6.28408 17.7159 5.86034 17.2119 5.55154L16.702 6.38502L16.7014 6.38437ZM11.0233 5C9.96707 5 9.14074 5 8.48112 5.06186C7.81498 5.12567 7.26865 5.25721 6.78809 5.55154L7.29795 6.38502C7.60009 6.19944 7.97842 6.09135 8.57423 6.0347C9.17591 5.9774 9.94819 5.97674 11.0233 5.97674V5ZM5.97674 11.0233C5.97674 9.94819 5.97674 9.17591 6.0347 8.57358C6.09135 7.97842 6.19944 7.60009 6.38437 7.29795L5.55153 6.78874C5.25721 7.2693 5.12567 7.81498 5.06186 8.48112C5 9.1414 5 9.96707 5 11.0233H5.97674ZM6.78809 5.55154C6.28408 5.86034 5.86034 6.28473 5.55153 6.78874L6.38502 7.29795C6.61302 6.92569 6.92585 6.61263 7.29795 6.38437L6.78809 5.55154ZM11.3593 17.2679C11.2277 17.0446 11.1118 16.8473 10.9985 16.6923C10.882 16.5223 10.7306 16.3792 10.5544 16.2723L10.0634 17.1168C10.094 17.1351 10.1364 17.1676 10.2093 17.2679C10.2881 17.376 10.3773 17.5258 10.5193 17.7654L11.3593 17.2679ZM9.25014 17.0406C9.53665 17.0459 9.71702 17.0498 9.85507 17.0647C9.984 17.0791 10.0341 17.0999 10.0634 17.1168L10.5544 16.2723C10.3721 16.1713 10.1703 16.1104 9.96251 16.0939C9.76847 16.0724 9.53535 16.0691 9.26707 16.0646L9.25014 17.042V17.0406ZM13.4807 17.7654C13.6227 17.5264 13.7119 17.376 13.7907 17.2679C13.8636 17.1676 13.906 17.1351 13.9366 17.1168L13.4456 16.2723C13.2567 16.383 13.12 16.5295 13.0015 16.6923C12.8888 16.8473 12.7723 17.0439 12.6401 17.2679L13.4807 17.7654ZM14.7336 16.0646C14.4653 16.0691 14.2315 16.0724 14.0375 16.0939C13.835 16.1167 13.6364 16.1616 13.4456 16.2723L13.9366 17.1168C13.9659 17.0999 14.016 17.0791 14.1449 17.0647C14.283 17.0498 14.464 17.0452 14.7505 17.0406L14.7336 16.0639V16.0646Z" fill="black"/>
<path d="M9.39526 11.3491H9.40112M11.9941 11.3491H11.9999M14.5987 11.3491H14.6046" stroke="black" stroke-width="1.30233" stroke-linecap="round" stroke-linejoin="round"/>
</svg>
