<svg width="46" height="46" viewBox="0 0 46 46" fill="none" xmlns="http://www.w3.org/2000/svg">
<path d="M23 0C22.4475 0 21.9176 0.219493 21.5269 0.610194C21.1362 1.00089 20.9167 1.5308 20.9167 2.08333V8.41652C20.9167 8.96906 21.1362 9.49896 21.5269 9.88966C21.9176 10.2804 22.4475 10.4999 23 10.4999C23.5526 10.4999 24.0825 10.2804 24.4732 9.88966C24.8639 9.49896 25.0834 8.96906 25.0834 8.41652V2.08333C25.0834 1.5308 24.8639 1.00089 24.4732 0.610194C24.0825 0.219493 23.5526 0 23 0ZM43.9167 20.9165H37.5834C37.0308 20.9165 36.5009 21.136 36.1102 21.5267C35.7195 21.9174 35.5 22.4473 35.5 22.9999C35.5 23.5524 35.7195 24.0823 36.1102 24.473C36.5009 24.8637 37.0308 25.0832 37.5834 25.0832H43.9167C44.4692 25.0832 44.9991 24.8637 45.3898 24.473C45.7805 24.0823 46 23.5524 46 22.9999C46 22.4473 45.7805 21.9174 45.3898 21.5267C44.9991 21.136 44.4692 20.9165 43.9167 20.9165ZM10.5 22.9999C10.5 22.4473 10.2805 21.9174 9.88983 21.5267C9.49913 21.136 8.96922 20.9165 8.41669 20.9165H2.08333C1.5308 20.9165 1.00089 21.136 0.610194 21.5267C0.219493 21.9174 0 22.4473 0 22.9999C0 23.5524 0.219493 24.0823 0.610194 24.473C1.00089 24.8637 1.5308 25.0832 2.08333 25.0832H8.41669C8.96922 25.0832 9.49913 24.8637 9.88983 24.473C10.2805 24.0823 10.5 23.5524 10.5 22.9999ZM9.00678 6.57534C8.60067 6.19133 8.05864 5.98437 7.49994 6C6.94124 6.01563 6.41163 6.25256 6.02762 6.65867C5.6436 7.06478 5.43665 7.60681 5.45228 8.16551C5.46791 8.72422 5.70484 9.25383 6.11095 9.63784L11.0625 14.3749C11.2638 14.5693 11.5023 14.7211 11.7636 14.8213C12.0249 14.9215 12.3037 14.9681 12.5834 14.9582C12.864 14.9571 13.1415 14.8994 13.3993 14.7884C13.657 14.6774 13.8897 14.5155 14.0834 14.3124C14.4714 13.922 14.6892 13.394 14.6892 12.8436C14.6892 12.2932 14.4714 11.7652 14.0834 11.3749L9.00678 6.57534ZM33.4167 14.9582C33.9531 14.9561 34.468 14.7471 34.8542 14.3749L39.3124 10.0625C39.6784 9.68011 39.8851 9.17275 39.8906 8.64348C39.896 8.1142 39.6998 7.6027 39.3418 7.21285C38.9838 6.82301 38.4908 6.58405 37.9629 6.54452C37.4351 6.50498 36.912 6.66784 36.4999 7L32.0417 11.3749C31.6537 11.7652 31.4359 12.2932 31.4359 12.8436C31.4359 13.394 31.6537 13.922 32.0417 14.3124C32.4024 14.693 32.8934 14.9236 33.4167 14.9582ZM23 35.4999C22.4475 35.4999 21.9176 35.7193 21.5269 36.1101C21.1362 36.5008 20.9167 37.0307 20.9167 37.5832V43.9167C20.9167 44.4692 21.1362 44.9991 21.5269 45.3898C21.9176 45.7805 22.4475 46 23 46C23.5526 46 24.0825 45.7805 24.4732 45.3898C24.8639 44.9991 25.0834 44.4692 25.0834 43.9167V37.5832C25.0834 37.0307 24.8639 36.5008 24.4732 36.1101C24.0825 35.7193 23.5526 35.4999 23 35.4999ZM34.9375 31.6249C34.5397 31.2408 34.0056 31.0306 33.4528 31.0404C32.8999 31.0501 32.3736 31.2791 31.9896 31.6769C31.6056 32.0748 31.3953 32.6088 31.4051 33.1617C31.4149 33.7145 31.6439 34.2408 32.0417 34.6249L36.2491 39.0769C36.6353 39.4491 37.1502 39.6581 37.6865 39.6602C37.9657 39.6619 38.2423 39.6074 38.5 39.5C38.7577 39.3926 38.9911 39.2346 39.1866 39.0352C39.3818 38.8415 39.5368 38.6111 39.6426 38.3573C39.7483 38.1034 39.8028 37.8311 39.8028 37.5561C39.8028 37.281 39.7483 37.0087 39.6426 36.7549C39.5368 36.501 39.3818 36.2706 39.1866 36.0769L34.9375 31.6249ZM11.0625 31.6249L6 35.9167C5.80473 36.1103 5.64974 36.3408 5.54398 36.5946C5.43821 36.8485 5.38375 37.1208 5.38375 37.3958C5.38375 37.6709 5.43821 37.9432 5.54398 38.197C5.64974 38.4509 5.80473 38.6813 6 38.875C6.1954 39.0744 6.42887 39.2324 6.68655 39.3398C6.94423 39.4471 7.22085 39.5016 7.5 39.5C8.01357 39.5044 8.51066 39.3189 8.89583 38.9792L13.9584 34.6874C14.3562 34.3033 14.5852 33.777 14.5949 33.2242C14.6047 32.6713 14.3944 32.1373 14.0104 31.7394C13.6264 31.3416 13.1001 31.1126 12.5473 31.1029C11.9944 31.0931 11.4603 31.3033 11.0625 31.6874V31.6249Z" fill="black"/>
</svg>
