<svg width="47" height="45" viewBox="0 0 47 45" fill="none" xmlns="http://www.w3.org/2000/svg">
<rect width="46.3783" height="44.4048" rx="6.90741" fill="#9DADEC"/>
<rect x="12.5641" y="14.8462" width="22.4359" height="17.3077" rx="3.20513" fill="#9DADEC"/>
<rect x="10.3205" y="15.1667" width="24.359" height="16.6667" rx="2.88462" stroke="black" stroke-width="0.641026"/>
<path d="M17.3718 12.2821C17.3718 11.751 17.8023 11.3205 18.3333 11.3205H26.6667C27.1977 11.3205 27.6282 11.751 27.6282 12.2821V15.1667H17.3718V12.2821Z" stroke="black" stroke-width="0.641026"/>
<circle cx="22.5" cy="23.5" r="5.12821" fill="white" stroke="black" stroke-width="0.641026"/>
<path d="M21.2181 25.3335H20.387V20.5166H21.1347L23.5248 23.8914H23.5548V20.5166H24.3827V25.3335H23.6416L21.2482 21.9553H21.2181V25.3335Z" fill="black"/>
<line x1="19.2794" y1="23.0937" x2="20.6467" y2="23.0937" stroke="black" stroke-width="0.683644"/>
<line x1="19.2794" y1="24.4609" x2="20.6467" y2="24.4609" stroke="black" stroke-width="0.683644"/>
<line x1="24.0652" y1="23.0937" x2="25.4325" y2="23.0937" stroke="black" stroke-width="0.683644"/>
<line x1="24.0652" y1="24.4609" x2="25.4325" y2="24.4609" stroke="black" stroke-width="0.683644"/>
</svg>
