<?xml version="1.0" encoding="UTF-8"?>
<!DOCTYPE svg PUBLIC "-//W3C//DTD SVG 1.1//EN" "http://www.w3.org/Graphics/SVG/1.1/DTD/svg11.dtd">
<svg xmlns="http://www.w3.org/2000/svg" version="1.1" width="980px" height="798px" style="shape-rendering:geometricPrecision; text-rendering:geometricPrecision; image-rendering:optimizeQuality; fill-rule:evenodd; clip-rule:evenodd" xmlns:xlink="http://www.w3.org/1999/xlink">
<g><path style="opacity:1" fill="#010101" d="M 849.5,-0.5 C 850.167,-0.5 850.833,-0.5 851.5,-0.5C 851.5,-0.166667 851.5,0.166667 851.5,0.5C 851.5,1.83333 852.167,2.5 853.5,2.5C 853.5,3.83333 854.167,4.5 855.5,4.5C 855.5,5.83333 856.167,6.5 857.5,6.5C 857.5,7.83333 858.167,8.5 859.5,8.5C 859.5,9.83333 860.167,10.5 861.5,10.5C 861.5,11.8333 862.167,12.5 863.5,12.5C 863.5,13.8333 864.167,14.5 865.5,14.5C 865.5,15.8333 866.167,16.5 867.5,16.5C 867.5,17.8333 868.167,18.5 869.5,18.5C 869.5,19.8333 870.167,20.5 871.5,20.5C 871.5,21.8333 872.167,22.5 873.5,22.5C 873.5,23.8333 874.167,24.5 875.5,24.5C 875.5,25.8333 876.167,26.5 877.5,26.5C 877.5,27.8333 878.167,28.5 879.5,28.5C 879.5,29.8333 880.167,30.5 881.5,30.5C 881.5,31.8333 882.167,32.5 883.5,32.5C 883.5,33.8333 884.167,34.5 885.5,34.5C 885.5,35.8333 886.167,36.5 887.5,36.5C 887.5,37.8333 888.167,38.5 889.5,38.5C 889.5,39.8333 890.167,40.5 891.5,40.5C 891.5,41.8333 892.167,42.5 893.5,42.5C 893.5,43.8333 894.167,44.5 895.5,44.5C 895.5,45.8333 896.167,46.5 897.5,46.5C 897.5,47.8333 898.167,48.5 899.5,48.5C 899.5,49.8333 900.167,50.5 901.5,50.5C 901.5,51.8333 902.167,52.5 903.5,52.5C 903.5,53.8333 904.167,54.5 905.5,54.5C 905.5,55.8333 906.167,56.5 907.5,56.5C 907.5,57.8333 908.167,58.5 909.5,58.5C 909.5,59.8333 910.167,60.5 911.5,60.5C 911.5,61.8333 912.167,62.5 913.5,62.5C 913.5,63.8333 914.167,64.5 915.5,64.5C 915.5,65.8333 916.167,66.5 917.5,66.5C 917.5,67.8333 918.167,68.5 919.5,68.5C 919.5,69.8333 920.167,70.5 921.5,70.5C 921.5,71.8333 922.167,72.5 923.5,72.5C 923.5,73.8333 924.167,74.5 925.5,74.5C 925.5,75.8333 926.167,76.5 927.5,76.5C 927.5,77.8333 928.167,78.5 929.5,78.5C 929.5,79.8333 930.167,80.5 931.5,80.5C 931.5,81.8333 932.167,82.5 933.5,82.5C 933.5,83.8333 934.167,84.5 935.5,84.5C 935.5,85.8333 936.167,86.5 937.5,86.5C 937.5,87.8333 938.167,88.5 939.5,88.5C 939.5,89.8333 940.167,90.5 941.5,90.5C 941.5,91.8333 942.167,92.5 943.5,92.5C 943.5,93.8333 944.167,94.5 945.5,94.5C 945.5,95.8333 946.167,96.5 947.5,96.5C 947.5,97.8333 948.167,98.5 949.5,98.5C 949.5,99.8333 950.167,100.5 951.5,100.5C 951.5,101.833 952.167,102.5 953.5,102.5C 953.5,103.833 954.167,104.5 955.5,104.5C 955.5,105.833 956.167,106.5 957.5,106.5C 957.5,107.833 958.167,108.5 959.5,108.5C 959.5,109.833 960.167,110.5 961.5,110.5C 961.5,111.833 962.167,112.5 963.5,112.5C 963.5,113.833 964.167,114.5 965.5,114.5C 965.5,115.833 966.167,116.5 967.5,116.5C 967.5,117.833 968.167,118.5 969.5,118.5C 969.5,119.833 970.167,120.5 971.5,120.5C 971.5,121.833 972.167,122.5 973.5,122.5C 973.5,123.833 974.167,124.5 975.5,124.5C 975.5,125.833 976.167,126.5 977.5,126.5C 977.833,127.833 978.167,129.167 978.5,130.5C 756.833,352.833 534.833,574.833 312.5,796.5C 311.609,795.89 310.609,795.557 309.5,795.5C 309.5,794.167 308.833,793.5 307.5,793.5C 305.251,794.08 303.585,795.413 302.5,797.5C 301.833,797.5 301.167,797.5 300.5,797.5C 200.5,697.167 100.5,596.833 0.5,496.5C 13.8333,482.167 27.1667,467.833 40.5,453.5C 45.8333,450.167 50.1667,445.833 53.5,440.5C 59.8333,436.167 65.1667,430.833 69.5,424.5C 75.5,420.5 80.5,415.5 84.5,409.5C 90.8333,405.167 96.1667,399.833 100.5,393.5C 106.5,389.5 111.5,384.5 115.5,378.5C 120.442,374.897 125.108,370.897 129.5,366.5C 164.833,401.5 200.167,436.5 235.5,471.5C 258.247,495.749 281.581,519.582 305.5,543C 306.437,543.692 307.103,543.525 307.5,542.5C 488.167,361.5 668.833,180.5 849.5,-0.5 Z"/></g>
<g><path style="opacity:1" fill="#919191" d="M 851.5,0.5 C 852.5,0.833333 853.167,1.5 853.5,2.5C 852.167,2.5 851.5,1.83333 851.5,0.5 Z"/></g>
<g><path style="opacity:1" fill="#919191" d="M 853.5,2.5 C 854.5,2.83333 855.167,3.5 855.5,4.5C 854.167,4.5 853.5,3.83333 853.5,2.5 Z"/></g>
<g><path style="opacity:1" fill="#919191" d="M 855.5,4.5 C 856.5,4.83333 857.167,5.5 857.5,6.5C 856.167,6.5 855.5,5.83333 855.5,4.5 Z"/></g>
<g><path style="opacity:1" fill="#929292" d="M 857.5,6.5 C 858.5,6.83333 859.167,7.5 859.5,8.5C 858.167,8.5 857.5,7.83333 857.5,6.5 Z"/></g>
<g><path style="opacity:1" fill="#929292" d="M 859.5,8.5 C 860.5,8.83333 861.167,9.5 861.5,10.5C 860.167,10.5 859.5,9.83333 859.5,8.5 Z"/></g>
<g><path style="opacity:1" fill="#929292" d="M 861.5,10.5 C 862.5,10.8333 863.167,11.5 863.5,12.5C 862.167,12.5 861.5,11.8333 861.5,10.5 Z"/></g>
<g><path style="opacity:1" fill="#929292" d="M 863.5,12.5 C 864.5,12.8333 865.167,13.5 865.5,14.5C 864.167,14.5 863.5,13.8333 863.5,12.5 Z"/></g>
<g><path style="opacity:1" fill="#929292" d="M 865.5,14.5 C 866.5,14.8333 867.167,15.5 867.5,16.5C 866.167,16.5 865.5,15.8333 865.5,14.5 Z"/></g>
<g><path style="opacity:1" fill="#929292" d="M 867.5,16.5 C 868.5,16.8333 869.167,17.5 869.5,18.5C 868.167,18.5 867.5,17.8333 867.5,16.5 Z"/></g>
<g><path style="opacity:1" fill="#929292" d="M 869.5,18.5 C 870.5,18.8333 871.167,19.5 871.5,20.5C 870.167,20.5 869.5,19.8333 869.5,18.5 Z"/></g>
<g><path style="opacity:1" fill="#929292" d="M 871.5,20.5 C 872.5,20.8333 873.167,21.5 873.5,22.5C 872.167,22.5 871.5,21.8333 871.5,20.5 Z"/></g>
<g><path style="opacity:1" fill="#929292" d="M 873.5,22.5 C 874.5,22.8333 875.167,23.5 875.5,24.5C 874.167,24.5 873.5,23.8333 873.5,22.5 Z"/></g>
<g><path style="opacity:1" fill="#929292" d="M 875.5,24.5 C 876.5,24.8333 877.167,25.5 877.5,26.5C 876.167,26.5 875.5,25.8333 875.5,24.5 Z"/></g>
<g><path style="opacity:1" fill="#929292" d="M 877.5,26.5 C 878.5,26.8333 879.167,27.5 879.5,28.5C 878.167,28.5 877.5,27.8333 877.5,26.5 Z"/></g>
<g><path style="opacity:1" fill="#929292" d="M 879.5,28.5 C 880.5,28.8333 881.167,29.5 881.5,30.5C 880.167,30.5 879.5,29.8333 879.5,28.5 Z"/></g>
<g><path style="opacity:1" fill="#929292" d="M 881.5,30.5 C 882.5,30.8333 883.167,31.5 883.5,32.5C 882.167,32.5 881.5,31.8333 881.5,30.5 Z"/></g>
<g><path style="opacity:1" fill="#939393" d="M 883.5,32.5 C 884.5,32.8333 885.167,33.5 885.5,34.5C 884.167,34.5 883.5,33.8333 883.5,32.5 Z"/></g>
<g><path style="opacity:1" fill="#939393" d="M 885.5,34.5 C 886.5,34.8333 887.167,35.5 887.5,36.5C 886.167,36.5 885.5,35.8333 885.5,34.5 Z"/></g>
<g><path style="opacity:1" fill="#939393" d="M 887.5,36.5 C 888.5,36.8333 889.167,37.5 889.5,38.5C 888.167,38.5 887.5,37.8333 887.5,36.5 Z"/></g>
<g><path style="opacity:1" fill="#939393" d="M 889.5,38.5 C 890.5,38.8333 891.167,39.5 891.5,40.5C 890.167,40.5 889.5,39.8333 889.5,38.5 Z"/></g>
<g><path style="opacity:1" fill="#939393" d="M 891.5,40.5 C 892.5,40.8333 893.167,41.5 893.5,42.5C 892.167,42.5 891.5,41.8333 891.5,40.5 Z"/></g>
<g><path style="opacity:1" fill="#939393" d="M 893.5,42.5 C 894.5,42.8333 895.167,43.5 895.5,44.5C 894.167,44.5 893.5,43.8333 893.5,42.5 Z"/></g>
<g><path style="opacity:1" fill="#989898" d="M 895.5,44.5 C 896.5,44.8333 897.167,45.5 897.5,46.5C 896.167,46.5 895.5,45.8333 895.5,44.5 Z"/></g>
<g><path style="opacity:1" fill="#989898" d="M 897.5,46.5 C 898.5,46.8333 899.167,47.5 899.5,48.5C 898.167,48.5 897.5,47.8333 897.5,46.5 Z"/></g>
<g><path style="opacity:1" fill="#989898" d="M 899.5,48.5 C 900.5,48.8333 901.167,49.5 901.5,50.5C 900.167,50.5 899.5,49.8333 899.5,48.5 Z"/></g>
<g><path style="opacity:1" fill="#989898" d="M 901.5,50.5 C 902.5,50.8333 903.167,51.5 903.5,52.5C 902.167,52.5 901.5,51.8333 901.5,50.5 Z"/></g>
<g><path style="opacity:1" fill="#989898" d="M 903.5,52.5 C 904.5,52.8333 905.167,53.5 905.5,54.5C 904.167,54.5 903.5,53.8333 903.5,52.5 Z"/></g>
<g><path style="opacity:1" fill="#989898" d="M 905.5,54.5 C 906.5,54.8333 907.167,55.5 907.5,56.5C 906.167,56.5 905.5,55.8333 905.5,54.5 Z"/></g>
<g><path style="opacity:1" fill="#999999" d="M 907.5,56.5 C 908.5,56.8333 909.167,57.5 909.5,58.5C 908.167,58.5 907.5,57.8333 907.5,56.5 Z"/></g>
<g><path style="opacity:1" fill="#999999" d="M 909.5,58.5 C 910.5,58.8333 911.167,59.5 911.5,60.5C 910.167,60.5 909.5,59.8333 909.5,58.5 Z"/></g>
<g><path style="opacity:1" fill="#999999" d="M 911.5,60.5 C 912.5,60.8333 913.167,61.5 913.5,62.5C 912.167,62.5 911.5,61.8333 911.5,60.5 Z"/></g>
<g><path style="opacity:1" fill="#999999" d="M 913.5,62.5 C 914.5,62.8333 915.167,63.5 915.5,64.5C 914.167,64.5 913.5,63.8333 913.5,62.5 Z"/></g>
<g><path style="opacity:1" fill="#999999" d="M 915.5,64.5 C 916.5,64.8333 917.167,65.5 917.5,66.5C 916.167,66.5 915.5,65.8333 915.5,64.5 Z"/></g>
<g><path style="opacity:1" fill="#999999" d="M 917.5,66.5 C 918.5,66.8333 919.167,67.5 919.5,68.5C 918.167,68.5 917.5,67.8333 917.5,66.5 Z"/></g>
<g><path style="opacity:1" fill="#999999" d="M 919.5,68.5 C 920.5,68.8333 921.167,69.5 921.5,70.5C 920.167,70.5 919.5,69.8333 919.5,68.5 Z"/></g>
<g><path style="opacity:1" fill="#999999" d="M 921.5,70.5 C 922.5,70.8333 923.167,71.5 923.5,72.5C 922.167,72.5 921.5,71.8333 921.5,70.5 Z"/></g>
<g><path style="opacity:1" fill="#9a9a9a" d="M 923.5,72.5 C 924.5,72.8333 925.167,73.5 925.5,74.5C 924.167,74.5 923.5,73.8333 923.5,72.5 Z"/></g>
<g><path style="opacity:1" fill="#9a9a9a" d="M 925.5,74.5 C 926.5,74.8333 927.167,75.5 927.5,76.5C 926.167,76.5 925.5,75.8333 925.5,74.5 Z"/></g>
<g><path style="opacity:1" fill="#9a9a9a" d="M 927.5,76.5 C 928.5,76.8333 929.167,77.5 929.5,78.5C 928.167,78.5 927.5,77.8333 927.5,76.5 Z"/></g>
<g><path style="opacity:1" fill="#9a9a9a" d="M 929.5,78.5 C 930.5,78.8333 931.167,79.5 931.5,80.5C 930.167,80.5 929.5,79.8333 929.5,78.5 Z"/></g>
<g><path style="opacity:1" fill="#9a9a9a" d="M 931.5,80.5 C 932.5,80.8333 933.167,81.5 933.5,82.5C 932.167,82.5 931.5,81.8333 931.5,80.5 Z"/></g>
<g><path style="opacity:1" fill="#9a9a9a" d="M 933.5,82.5 C 934.5,82.8333 935.167,83.5 935.5,84.5C 934.167,84.5 933.5,83.8333 933.5,82.5 Z"/></g>
<g><path style="opacity:1" fill="#9a9a9a" d="M 935.5,84.5 C 936.5,84.8333 937.167,85.5 937.5,86.5C 936.167,86.5 935.5,85.8333 935.5,84.5 Z"/></g>
<g><path style="opacity:1" fill="#9a9a9a" d="M 937.5,86.5 C 938.5,86.8333 939.167,87.5 939.5,88.5C 938.167,88.5 937.5,87.8333 937.5,86.5 Z"/></g>
<g><path style="opacity:1" fill="#9a9a9a" d="M 939.5,88.5 C 940.5,88.8333 941.167,89.5 941.5,90.5C 940.167,90.5 939.5,89.8333 939.5,88.5 Z"/></g>
<g><path style="opacity:1" fill="#9a9a9a" d="M 941.5,90.5 C 942.5,90.8333 943.167,91.5 943.5,92.5C 942.167,92.5 941.5,91.8333 941.5,90.5 Z"/></g>
<g><path style="opacity:1" fill="#9a9a9a" d="M 943.5,92.5 C 944.5,92.8333 945.167,93.5 945.5,94.5C 944.167,94.5 943.5,93.8333 943.5,92.5 Z"/></g>
<g><path style="opacity:1" fill="#9a9a9a" d="M 945.5,94.5 C 946.5,94.8333 947.167,95.5 947.5,96.5C 946.167,96.5 945.5,95.8333 945.5,94.5 Z"/></g>
<g><path style="opacity:1" fill="#9b9b9b" d="M 947.5,96.5 C 948.5,96.8333 949.167,97.5 949.5,98.5C 948.167,98.5 947.5,97.8333 947.5,96.5 Z"/></g>
<g><path style="opacity:1" fill="#9b9b9b" d="M 949.5,98.5 C 950.5,98.8333 951.167,99.5 951.5,100.5C 950.167,100.5 949.5,99.8333 949.5,98.5 Z"/></g>
<g><path style="opacity:1" fill="#9b9b9b" d="M 951.5,100.5 C 952.5,100.833 953.167,101.5 953.5,102.5C 952.167,102.5 951.5,101.833 951.5,100.5 Z"/></g>
<g><path style="opacity:1" fill="#9b9b9b" d="M 953.5,102.5 C 954.5,102.833 955.167,103.5 955.5,104.5C 954.167,104.5 953.5,103.833 953.5,102.5 Z"/></g>
<g><path style="opacity:1" fill="#9b9b9b" d="M 955.5,104.5 C 956.5,104.833 957.167,105.5 957.5,106.5C 956.167,106.5 955.5,105.833 955.5,104.5 Z"/></g>
<g><path style="opacity:1" fill="#9b9b9b" d="M 957.5,106.5 C 958.5,106.833 959.167,107.5 959.5,108.5C 958.167,108.5 957.5,107.833 957.5,106.5 Z"/></g>
<g><path style="opacity:1" fill="#9b9b9b" d="M 959.5,108.5 C 960.5,108.833 961.167,109.5 961.5,110.5C 960.167,110.5 959.5,109.833 959.5,108.5 Z"/></g>
<g><path style="opacity:1" fill="#9b9b9b" d="M 961.5,110.5 C 962.5,110.833 963.167,111.5 963.5,112.5C 962.167,112.5 961.5,111.833 961.5,110.5 Z"/></g>
<g><path style="opacity:1" fill="#9c9c9c" d="M 963.5,112.5 C 964.5,112.833 965.167,113.5 965.5,114.5C 964.167,114.5 963.5,113.833 963.5,112.5 Z"/></g>
<g><path style="opacity:1" fill="#9c9c9c" d="M 965.5,114.5 C 966.5,114.833 967.167,115.5 967.5,116.5C 966.167,116.5 965.5,115.833 965.5,114.5 Z"/></g>
<g><path style="opacity:1" fill="#9c9c9c" d="M 967.5,116.5 C 968.5,116.833 969.167,117.5 969.5,118.5C 968.167,118.5 967.5,117.833 967.5,116.5 Z"/></g>
<g><path style="opacity:1" fill="#9c9c9c" d="M 969.5,118.5 C 970.5,118.833 971.167,119.5 971.5,120.5C 970.167,120.5 969.5,119.833 969.5,118.5 Z"/></g>
<g><path style="opacity:1" fill="#9c9c9c" d="M 971.5,120.5 C 972.5,120.833 973.167,121.5 973.5,122.5C 972.167,122.5 971.5,121.833 971.5,120.5 Z"/></g>
<g><path style="opacity:1" fill="#9c9c9c" d="M 973.5,122.5 C 974.5,122.833 975.167,123.5 975.5,124.5C 974.167,124.5 973.5,123.833 973.5,122.5 Z"/></g>
<g><path style="opacity:1" fill="#9c9c9c" d="M 975.5,124.5 C 976.5,124.833 977.167,125.5 977.5,126.5C 976.167,126.5 975.5,125.833 975.5,124.5 Z"/></g>
<g><path style="opacity:1" fill="#939393" d="M 977.5,126.5 C 978.167,126.833 978.833,127.167 979.5,127.5C 979.5,128.5 979.5,129.5 979.5,130.5C 979.167,130.5 978.833,130.5 978.5,130.5C 978.167,129.167 977.833,127.833 977.5,126.5 Z"/></g>
<g><path style="opacity:1" fill="#6e6e6e" d="M 129.5,366.5 C 125.108,370.897 120.442,374.897 115.5,378.5C 119.296,374.202 123.296,370.036 127.5,366C 128.437,365.308 129.103,365.475 129.5,366.5 Z"/></g>
<g><path style="opacity:1" fill="#6d6d6d" d="M 115.5,378.5 C 111.5,384.5 106.5,389.5 100.5,393.5C 105.167,388.167 110.167,383.167 115.5,378.5 Z"/></g>
<g><path style="opacity:1" fill="#6f6f6f" d="M 100.5,393.5 C 96.1667,399.833 90.8333,405.167 84.5,409.5C 89.5,403.833 94.8333,398.5 100.5,393.5 Z"/></g>
<g><path style="opacity:1" fill="#6f6f6f" d="M 84.5,409.5 C 80.5,415.5 75.5,420.5 69.5,424.5C 74.1667,419.167 79.1667,414.167 84.5,409.5 Z"/></g>
<g><path style="opacity:1" fill="#717171" d="M 69.5,424.5 C 65.1667,430.833 59.8333,436.167 53.5,440.5C 58.5,434.833 63.8333,429.5 69.5,424.5 Z"/></g>
<g><path style="opacity:1" fill="#717171" d="M 53.5,440.5 C 50.1667,445.833 45.8333,450.167 40.5,453.5C 44.5,448.833 48.8333,444.5 53.5,440.5 Z"/></g>
<g><path style="opacity:1" fill="#787878" d="M 40.5,453.5 C 27.1667,467.833 13.8333,482.167 0.5,496.5C 0.166667,496.5 -0.166667,496.5 -0.5,496.5C -0.5,495.5 -0.5,494.5 -0.5,493.5C 13.1667,480.167 26.8333,466.833 40.5,453.5 Z"/></g>
<g><path style="opacity:1" fill="#aeaeae" d="M 235.5,471.5 C 259.5,495.167 283.5,518.833 307.5,542.5C 307.103,543.525 306.437,543.692 305.5,543C 281.581,519.582 258.247,495.749 235.5,471.5 Z"/></g>
<g><path style="opacity:1" fill="#959595" d="M 307.5,793.5 C 308.833,793.5 309.5,794.167 309.5,795.5C 308.5,795.167 307.833,794.5 307.5,793.5 Z"/></g>
<g><path style="opacity:1" fill="#b7b7b7" d="M 309.5,795.5 C 310.609,795.557 311.609,795.89 312.5,796.5C 312.5,796.833 312.5,797.167 312.5,797.5C 311.833,797.5 311.167,797.5 310.5,797.5C 310.167,796.833 309.833,796.167 309.5,795.5 Z"/></g>
</svg>
