<svg width="47" height="47" viewBox="0 0 47 47" fill="none" xmlns="http://www.w3.org/2000/svg">
<rect width="47" height="47" rx="10" fill="white"/>
<path d="M35.6562 14.625H30.5V11.3438H28.625V14.625H17.375V11.3438H15.5V14.625H10.3438C9.97092 14.6254 9.61349 14.7737 9.34986 15.0374C9.08623 15.301 8.93793 15.6584 8.9375 16.0312V35.7188C8.93793 36.0916 9.08623 36.449 9.34986 36.7126C9.61349 36.9763 9.97092 37.1246 10.3438 37.125H35.6562C36.0291 37.1246 36.3865 36.9763 36.6501 36.7126C36.9138 36.449 37.0621 36.0916 37.0625 35.7188V16.0312C37.0621 15.6584 36.9138 15.301 36.6501 15.0374C36.3865 14.7737 36.0291 14.6254 35.6562 14.625ZM35.1875 35.25H10.8125V16.5H15.5V18.8438H17.375V16.5H28.625V18.8438H30.5V16.5H35.1875V35.25Z" fill="#F6B41A"/>
<path d="M14.5625 22.125H16.4375V24H14.5625V22.125ZM19.7188 22.125H21.5938V24H19.7188V22.125ZM24.4062 22.125H26.2812V24H24.4062V22.125ZM29.5625 22.125H31.4375V24H29.5625V22.125ZM14.5625 26.3438H16.4375V28.2188H14.5625V26.3438ZM19.7188 26.3438H21.5938V28.2188H19.7188V26.3438ZM24.4062 26.3438H26.2812V28.2188H24.4062V26.3438ZM29.5625 26.3438H31.4375V28.2188H29.5625V26.3438ZM14.5625 30.5625H16.4375V32.4375H14.5625V30.5625ZM19.7188 30.5625H21.5938V32.4375H19.7188V30.5625ZM24.4062 30.5625H26.2812V32.4375H24.4062V30.5625ZM29.5625 30.5625H31.4375V32.4375H29.5625V30.5625Z" fill="#F6B41A"/>
</svg>
