<svg width="38" height="38" viewBox="0 0 38 38" fill="none" xmlns="http://www.w3.org/2000/svg">
<circle cx="18.9483" cy="18.9483" r="18.9483" fill="#5FD2A9"/>
<rect x="13.9849" y="11.5039" width="11.4141" height="1.98506" fill="white"/>
<rect x="15.4741" y="9.02246" width="11.4141" height="2.48132" rx="1.02675" fill="white"/>
<rect x="11.0076" y="12.9927" width="17.3693" height="15.8805" rx="4.10702" fill="white"/>
<rect x="9.36447" y="13.4716" width="19.1661" height="15.0591" rx="3.76476" stroke="black" stroke-width="0.684503"/>
<rect x="12.7868" y="11.4184" width="12.321" height="2.05351" stroke="black" stroke-width="0.684503"/>
<rect x="11.4174" y="9.36471" width="15.0591" height="2.05351" rx="0.684503" stroke="black" stroke-width="0.684503"/>
<circle cx="19.2895" cy="20.6592" r="5.54447" fill="white" stroke="black" stroke-width="0.821403"/>
<path d="M18.1725 22.5518H17.331V17.6752H18.088L20.5077 21.0918H20.5381V17.6752H21.3762V22.5518H20.626L18.2029 19.1318H18.1725V22.5518Z" fill="black"/>
<line x1="16.2102" y1="20.358" x2="17.5944" y2="20.358" stroke="black" stroke-width="0.692107"/>
<line x1="16.2102" y1="21.7428" x2="17.5944" y2="21.7428" stroke="black" stroke-width="0.692107"/>
<line x1="21.0547" y1="20.358" x2="22.4389" y2="20.358" stroke="black" stroke-width="0.692107"/>
<line x1="21.0547" y1="21.7428" x2="22.4389" y2="21.7428" stroke="black" stroke-width="0.692107"/>
</svg>
