<svg width="49" height="49" viewBox="0 0 49 49" fill="none" xmlns="http://www.w3.org/2000/svg">
<circle cx="24.5" cy="24.5" r="24.5" fill="#F6B41A"/>
<rect x="19.2969" y="30.604" width="12.3622" height="2.47244" rx="1.23622" fill="white"/>
<rect x="19.2969" y="33.8999" width="12.3622" height="2.47244" rx="1.23622" fill="white"/>
<ellipse cx="25.4761" cy="16.5928" rx="5.35696" ry="5.76903" fill="white"/>
<path d="M30.4816 24.3667C29.5448 24.0898 28.2642 24.1345 27.3846 24.7141C26.505 25.2937 25.9587 26.4528 25.8436 27.4229C26.8365 27.7949 27.9875 27.7035 28.9406 27.0754C29.8937 26.4474 30.4318 25.4258 30.4816 24.3667Z" fill="white"/>
<path d="M19.2494 22.7182C20.1862 22.4413 21.4668 22.4861 22.3463 23.0657C23.2259 23.6453 23.7722 24.8043 23.8873 25.7744C22.8945 26.1465 21.7435 26.055 20.7904 25.427C19.8372 24.7989 19.2992 23.7774 19.2494 22.7182Z" fill="white"/>
<circle cx="24.3315" cy="16.7446" r="6.34785" stroke="black" stroke-width="0.793481"/>
<path d="M30.1447 25.4629C29.2079 25.1859 27.9273 25.2307 27.0477 25.8103C26.1681 26.3899 25.6218 27.549 25.5067 28.519C26.4996 28.8911 27.6505 28.7997 28.6037 28.1716C29.5568 27.5435 30.0949 26.522 30.1447 25.4629Z" stroke="black" stroke-width="0.793481"/>
<path d="M18.3651 23.8764C19.3019 23.5995 20.5825 23.6443 21.4621 24.2239C22.3416 24.8035 22.888 25.9625 23.0031 26.9326C22.0102 27.3047 20.8592 27.2132 19.9061 26.5852C18.953 25.9571 18.4149 24.9356 18.3651 23.8764Z" stroke="black" stroke-width="0.793481"/>
<line x1="24.3313" y1="23.4888" x2="24.3313" y2="30.6301" stroke="black" stroke-width="0.793481"/>
<line x1="24.5013" y1="29.3481" x2="27.6752" y2="27.1309" stroke="black" stroke-width="0.793481"/>
<line y1="-0.396741" x2="3.87165" y2="-0.396741" transform="matrix(-0.819787 -0.572669 -0.572669 0.819787 23.9346 28.0864)" stroke="black" stroke-width="0.793481"/>
<rect x="16.3967" y="30.2332" width="15.0761" height="3.17393" rx="1.58696" stroke="black" stroke-width="0.793481"/>
<rect x="16.3967" y="33.407" width="15.0761" height="3.17393" rx="1.58696" stroke="black" stroke-width="0.793481"/>
<path d="M23.0085 18.5879H22.0438V12.9971H22.9117L25.6858 16.9141H25.7206V12.9971H26.6815V18.5879H25.8214L23.0434 14.667H23.0085V18.5879Z" fill="black"/>
<line x1="20.7588" y1="15.9519" x2="22.3458" y2="15.9519" stroke="black" stroke-width="0.793481"/>
<line x1="20.7588" y1="17.5383" x2="22.3458" y2="17.5383" stroke="black" stroke-width="0.793481"/>
<line x1="26.313" y1="15.9519" x2="27.9" y2="15.9519" stroke="black" stroke-width="0.793481"/>
<line x1="26.313" y1="17.5383" x2="27.9" y2="17.5383" stroke="black" stroke-width="0.793481"/>
</svg>
