<svg width="23" height="24" viewBox="0 0 23 24" fill="none" xmlns="http://www.w3.org/2000/svg">
<rect width="23" height="24" rx="5" fill="#EC9D9D"/>
<path d="M9.58931 12.9445C10.0536 12.9444 10.5043 13.1009 10.8686 13.3886C11.2329 13.6764 11.4896 14.0785 11.5971 14.5301L17.5241 14.5314C17.6447 14.5315 17.7608 14.5773 17.8489 14.6596C17.9371 14.742 17.9907 14.8547 17.9989 14.9751C18.0071 15.0954 17.9693 15.2144 17.8932 15.3079C17.8171 15.4015 17.7083 15.4627 17.5888 15.4791L17.5241 15.4836H11.5971C11.4898 15.9354 11.2332 16.3378 10.8689 16.6258C10.5045 16.9137 10.0537 17.0704 9.58931 17.0704C9.12491 17.0704 8.67409 16.9137 8.30974 16.6258C7.94539 16.3378 7.68882 15.9354 7.5815 15.4836H5.78063C5.66 15.4836 5.54389 15.4377 5.45575 15.3554C5.36761 15.273 5.31402 15.1603 5.3058 15.04C5.29757 14.9196 5.33534 14.8006 5.41146 14.7071C5.48758 14.6135 5.59638 14.5523 5.71588 14.5359L5.78063 14.5314H7.5815C7.68878 14.0796 7.94534 13.6771 8.3097 13.3891C8.67405 13.1011 9.12489 12.9445 9.58931 12.9445ZM9.58931 13.8966C9.35895 13.8966 9.13428 13.9682 8.94641 14.1015C8.75853 14.2348 8.61673 14.4232 8.54065 14.6406L8.52732 14.6806L8.50256 14.7745C8.46615 14.9456 8.4705 15.1228 8.51526 15.2919L8.54065 15.3744L8.55652 15.4182C8.63995 15.629 8.78586 15.8092 8.97467 15.9346C9.16348 16.0601 9.38615 16.1248 9.61278 16.12C9.83942 16.1152 10.0592 16.0412 10.2425 15.908C10.4259 15.7747 10.5641 15.5885 10.6386 15.3744L10.664 15.2919L10.6526 15.33C10.7034 15.1623 10.7138 14.9851 10.683 14.8126L10.664 14.7257L10.6513 14.6812L10.6215 14.5962C10.5391 14.3897 10.3968 14.2126 10.2128 14.0879C10.0288 13.9632 9.81159 13.8966 9.58931 13.8966ZM13.7154 6.91406C14.1798 6.91407 14.6306 7.07073 14.995 7.35871C15.3593 7.64669 15.6159 8.04915 15.7232 8.50101H17.5241C17.6447 8.50105 17.7608 8.54687 17.8489 8.62922C17.9371 8.71157 17.9907 8.8243 17.9989 8.94465C18.0071 9.06499 17.9693 9.18397 17.8932 9.27754C17.8171 9.37111 17.7083 9.4323 17.5888 9.44874L17.5241 9.45318H15.7232C15.6159 9.90501 15.3593 10.3074 14.9949 10.5954C14.6306 10.8833 14.1798 11.0399 13.7154 11.0399C13.251 11.0399 12.8002 10.8833 12.4358 10.5954C12.0715 10.3074 11.8149 9.90501 11.7076 9.45318H5.78063C5.66 9.45314 5.54389 9.40732 5.45575 9.32497C5.36761 9.24262 5.31402 9.12989 5.3058 9.00955C5.29757 8.8892 5.33534 8.77023 5.41146 8.67666C5.48758 8.58309 5.59638 8.5219 5.71588 8.50546L5.78063 8.50101L11.7076 8.49974C11.8151 8.04812 12.0718 7.64595 12.4361 7.35822C12.8004 7.07048 13.2511 6.914 13.7154 6.91406ZM13.7154 7.86623C13.4849 7.86625 13.2602 7.93793 13.0723 8.07134C12.8844 8.20475 12.7427 8.39328 12.6667 8.61083L12.6534 8.65019L12.6293 8.74413C12.5927 8.91514 12.5968 9.09236 12.6413 9.26148L12.6667 9.344L12.6826 9.3878C12.766 9.5986 12.9118 9.77884 13.1006 9.90435C13.2894 10.0298 13.512 10.0946 13.7386 10.0899C13.9653 10.0852 14.185 10.0113 14.3684 9.87806C14.5518 9.74484 14.6901 9.5587 14.7647 9.34463L14.7901 9.26148L14.7786 9.29956C14.8294 9.13193 14.8399 8.95466 14.8091 8.78222L14.7901 8.69525L14.7774 8.65082L14.7475 8.56576C14.6652 8.35928 14.5229 8.18223 14.3389 8.05753C14.1548 7.93282 13.9377 7.86618 13.7154 7.86623Z" fill="#EC9D9D"/>
<path d="M9.28462 12.0304C9.74887 12.0303 10.1996 12.1868 10.5639 12.4746C10.9282 12.7623 11.1849 13.1645 11.2924 13.6161L17.2194 13.6174C17.34 13.6174 17.4561 13.6632 17.5442 13.7456C17.6324 13.8279 17.686 13.9406 17.6942 14.061C17.7024 14.1813 17.6647 14.3003 17.5885 14.3939C17.5124 14.4875 17.4036 14.5486 17.2841 14.5651L17.2194 14.5695H11.2924C11.1851 15.0213 10.9285 15.4238 10.5642 15.7117C10.1998 15.9997 9.74901 16.1563 9.28462 16.1563C8.82022 16.1563 8.3694 15.9997 8.00506 15.7117C7.64071 15.4238 7.38413 15.0213 7.27681 14.5695H5.47594C5.35532 14.5695 5.2392 14.5237 5.15106 14.4413C5.06292 14.359 5.00933 14.2462 5.00111 14.1259C4.99289 14.0055 5.03065 13.8866 5.10677 13.793C5.18289 13.6994 5.29169 13.6382 5.41119 13.6218L5.47594 13.6174H7.27681C7.38409 13.1655 7.64066 12.763 8.00501 12.4751C8.36936 12.1871 8.8202 12.0304 9.28462 12.0304ZM9.28462 12.9826C9.05426 12.9825 8.8296 13.0541 8.64172 13.1874C8.45384 13.3207 8.31205 13.5091 8.23596 13.7265L8.22263 13.7665L8.19788 13.8605C8.16146 14.0315 8.16581 14.2088 8.21057 14.3778L8.23596 14.4603L8.25183 14.5041C8.33526 14.7149 8.48117 14.8951 8.66998 15.0206C8.85879 15.146 9.08146 15.2107 9.30809 15.2059C9.53473 15.2012 9.75448 15.1272 9.93785 14.9939C10.1212 14.8606 10.2594 14.6744 10.3339 14.4603L10.3593 14.3778L10.3479 14.4159C10.3987 14.2483 10.4091 14.071 10.3783 13.8986L10.3593 13.8116L10.3466 13.7672L10.3168 13.6821C10.2345 13.4756 10.0921 13.2986 9.90809 13.1739C9.72409 13.0492 9.5069 12.9825 9.28462 12.9826ZM13.4107 6C13.8751 6.00001 14.3259 6.15667 14.6903 6.44465C15.0546 6.73263 15.3112 7.13509 15.4185 7.58695H17.2194C17.34 7.58699 17.4561 7.63281 17.5442 7.71516C17.6324 7.79751 17.686 7.91024 17.6942 8.03058C17.7024 8.15093 17.6647 8.2699 17.5885 8.36347C17.5124 8.45705 17.4036 8.51823 17.2841 8.53468L17.2194 8.53912H15.4185C15.3112 8.99094 15.0546 9.39336 14.6903 9.68131C14.3259 9.96925 13.8751 10.1259 13.4107 10.1259C12.9463 10.1259 12.4955 9.96925 12.1311 9.68131C11.7668 9.39336 11.5102 8.99094 11.4029 8.53912H5.47594C5.35532 8.53908 5.2392 8.49326 5.15106 8.41091C5.06292 8.32856 5.00933 8.21583 5.00111 8.09548C4.99289 7.97514 5.03065 7.85616 5.10677 7.76259C5.18289 7.66902 5.29169 7.60783 5.41119 7.59139L5.47594 7.58695L11.4029 7.58568C11.5104 7.13406 11.7671 6.73188 12.1314 6.44415C12.4957 6.15642 12.9464 5.99994 13.4107 6ZM13.4107 6.95217C13.1803 6.95219 12.9555 7.02387 12.7676 7.15727C12.5798 7.29068 12.438 7.47922 12.362 7.69677L12.3487 7.73612L12.3246 7.83007C12.288 8.00108 12.2921 8.1783 12.3366 8.34742L12.362 8.42994L12.3779 8.47374C12.4613 8.68453 12.6071 8.86478 12.7959 8.99028C12.9847 9.11578 13.2073 9.18053 13.4339 9.17583C13.6606 9.17113 13.8803 9.09721 14.0638 8.964C14.2472 8.83078 14.3854 8.64464 14.46 8.43057L14.4854 8.34742L14.4739 8.3855C14.5247 8.21787 14.5352 8.0406 14.5044 7.86816L14.4854 7.78119L14.4727 7.73676L14.4428 7.6517C14.3605 7.44521 14.2182 7.26817 14.0342 7.14346C13.8502 7.01876 13.633 6.95212 13.4107 6.95217Z" fill="black"/>
</svg>
