<svg width="47" height="47" viewBox="0 0 47 47" fill="none" xmlns="http://www.w3.org/2000/svg">
<rect width="47" height="47" rx="10" fill="white"/>
<path d="M18.72 16.52C19.7333 16.52 20.5133 16.9133 21.06 17.7C21.6067 18.4733 21.88 19.5667 21.88 20.98C21.88 22.3933 21.62 23.5 21.1 24.3C20.5933 25.0867 19.8 25.48 18.72 25.48C18.0667 25.48 17.5067 25.3 17.04 24.94C16.5867 24.58 16.2333 24.0667 15.98 23.4C15.74 22.72 15.62 21.9133 15.62 20.98C15.62 19.5667 15.8733 18.4733 16.38 17.7C16.8867 16.9133 17.6667 16.52 18.72 16.52ZM18.74 18.26C18.3933 18.26 18.14 18.4867 17.98 18.94C17.8333 19.3933 17.76 20.0733 17.76 20.98C17.76 21.9 17.8333 22.5933 17.98 23.06C18.14 23.5133 18.3933 23.74 18.74 23.74C19.1 23.74 19.36 23.5133 19.52 23.06C19.68 22.5933 19.76 21.9067 19.76 21C19.76 20.08 19.68 19.3933 19.52 18.94C19.36 18.4867 19.1 18.26 18.74 18.26ZM28.12 16.72L20.68 31H18.58L26.02 16.72H28.12ZM27.96 22.22C28.64 22.22 29.2133 22.4 29.68 22.76C30.1467 23.1067 30.5 23.6133 30.74 24.28C30.9933 24.9333 31.12 25.7333 31.12 26.68C31.12 28.0933 30.86 29.2 30.34 30C29.82 30.7867 29.0267 31.18 27.96 31.18C27.3067 31.18 26.7467 31 26.28 30.64C25.8267 30.28 25.4733 29.7667 25.22 29.1C24.98 28.42 24.86 27.6133 24.86 26.68C24.86 25.2667 25.1133 24.1733 25.62 23.4C26.14 22.6133 26.92 22.22 27.96 22.22ZM27.98 23.98C27.6333 23.98 27.38 24.2067 27.22 24.66C27.0733 25.1 27 25.78 27 26.7C27 27.62 27.0733 28.3133 27.22 28.78C27.38 29.2333 27.6333 29.46 27.98 29.46C28.3267 29.46 28.58 29.2333 28.74 28.78C28.9133 28.3267 29 27.6333 29 26.7C29 25.78 28.9133 25.1 28.74 24.66C28.58 24.2067 28.3267 23.98 27.98 23.98Z" fill="#F6B41A"/>
</svg>
