<svg width="30" height="31" viewBox="0 0 30 31" fill="none" xmlns="http://www.w3.org/2000/svg">
<path d="M1.07568 21.136C1.07568 17.2705 1.07568 15.3364 2.27715 14.1363C3.47725 12.9349 5.41135 12.9349 9.27681 12.9349H20.2117C24.0771 12.9349 26.0112 12.9349 27.2113 14.1363C28.4128 15.3364 28.4128 17.2705 28.4128 21.136C28.4128 25.0015 28.4128 26.9356 27.2113 28.1357C26.0112 29.3371 24.0771 29.3371 20.2117 29.3371H9.27681C5.41135 29.3371 3.47725 29.3371 2.27715 28.1357C1.07568 26.9356 1.07568 25.0015 1.07568 21.136Z" stroke="black" stroke-width="2.05028"/>
<path d="M6.54321 12.9348V10.2011C6.54321 8.02605 7.40726 5.94006 8.94527 4.40205C10.4833 2.86404 12.5693 2 14.7443 2C16.9194 2 19.0054 2.86404 20.5434 4.40205C22.0814 5.94006 22.9455 8.02605 22.9455 10.2011V12.9348" stroke="black" stroke-width="2.05028" stroke-linecap="round"/>
<path d="M9.27686 21.136H9.28916M14.732 21.136H14.7443M20.1994 21.136H20.2117" stroke="black" stroke-width="2.73371" stroke-linecap="round" stroke-linejoin="round"/>
</svg>
