<svg width="53" height="54" viewBox="0 0 53 54" fill="none" xmlns="http://www.w3.org/2000/svg">
<rect width="53" height="53.7527" rx="12.8749" fill="#123869"/>
<path d="M5.70276 26.8765C5.70276 28.0332 5.79828 29.1677 5.98194 30.2729L11.5277 28.5185C11.4688 27.9792 11.4385 27.4313 11.4385 26.8765C11.4385 26.292 11.4721 25.7153 11.5374 25.1481C11.5388 24.8688 11.5789 24.5986 11.6526 24.3425C11.8355 23.2719 12.1324 22.2396 12.5304 21.2584L7.34262 18.8135C6.28658 21.2924 5.70276 24.017 5.70276 26.8765Z" fill="#123869"/>
<path d="M7.79297 35.9239L13.3351 34.1706C12.38 32.4622 11.75 30.5509 11.5277 28.5185L5.98194 30.2729C6.31326 32.2666 6.93138 34.1645 7.79297 35.9239Z" fill="#123869"/>
<path d="M26.6679 47.6372C34.6814 47.6372 41.6448 43.1852 45.1733 36.6425L39.9856 34.1976C39.9642 34.2358 39.9426 34.2739 39.9208 34.3118C39.9083 34.4196 39.8774 34.5272 39.8266 34.6302L38.0474 38.238C37.8077 38.724 37.2156 38.9256 36.7248 38.6882L36.3584 38.5111C33.7254 40.664 30.3492 41.9574 26.6679 41.9574C20.9288 41.9574 15.9311 38.8138 13.3351 34.1706L7.79297 35.9239C11.1883 42.857 18.3644 47.6372 26.6679 47.6372Z" fill="#123869"/>
<path d="M47.6331 26.8765C47.6331 25.6961 47.5337 24.5387 47.3425 23.4121L41.8004 25.1654C41.8645 25.727 41.8974 26.2979 41.8974 26.8765C41.8974 29.5333 41.2036 32.0297 39.9856 34.1976L45.1733 36.6425C46.7432 33.7317 47.6331 30.407 47.6331 26.8765Z" fill="#123869"/>
<path d="M40.1727 19.8988C40.2228 19.9635 40.2614 20.0373 40.2858 20.1172C40.9459 21.4188 41.4213 22.8281 41.678 24.3113C41.7093 24.4922 41.7373 24.6743 41.7621 24.8573C41.7759 24.9597 41.7887 25.0624 41.8004 25.1654L47.3425 23.4121C47.0046 21.4199 46.3801 19.5239 45.5125 17.7672L39.9666 19.5217C40.0371 19.6463 40.1058 19.772 40.1727 19.8988Z" fill="#123869"/>
<path d="M7.34262 18.8135L12.5304 21.2584C14.7802 15.7118 20.2622 11.7956 26.6679 11.7956C32.382 11.7956 37.3611 14.9118 39.9666 19.5217L45.5125 17.7672C42.1049 10.8676 34.9468 6.11572 26.6679 6.11572C17.9769 6.11572 10.521 11.3525 7.34262 18.8135Z" fill="#123869"/>
<path d="M26.6679 17.6712C22.6265 17.6712 19.1873 20.2252 17.9067 23.7922L21.3451 25.4127L34.1191 21.3716C32.424 19.1253 29.7175 17.6712 26.6679 17.6712Z" fill="#123869"/>
<path d="M17.5698 25.1627C17.5698 25.5095 17.5102 25.8425 17.4004 26.1522C17.387 26.3231 17.3783 26.4954 17.3744 26.6688L21.3451 25.4127L17.9067 23.7922C17.7663 24.1832 17.6519 24.5863 17.5654 24.9996C17.5684 25.0536 17.5698 25.108 17.5698 25.1627Z" fill="#123869"/>
<path d="M26.6679 36.0817C29.7122 36.0817 32.4146 34.6327 34.1102 32.3931L34.3202 31.9673C34.383 31.84 34.47 31.7323 34.573 31.6468L29.2471 29.1367L19.1735 32.3236C20.8656 34.6026 23.5923 36.0817 26.6679 36.0817Z" fill="#123869"/>
<path d="M29.2471 29.1367L34.573 31.6468C34.6004 31.624 34.6289 31.6029 34.6584 31.5833C35.4657 30.2424 35.9385 28.681 35.9628 27.0122L29.2471 29.1367Z" fill="#123869"/>
<path d="M35.6428 31.5171L39.372 33.3205C39.7129 33.4854 39.9153 33.8187 39.9266 34.1699L39.9856 34.1976C41.2036 32.0297 41.8974 29.5333 41.8974 26.8765C41.8974 26.2979 41.8645 25.727 41.8004 25.1654L41.3059 25.3219C41.2291 25.3623 41.1444 25.3898 41.0546 25.4014L35.9628 27.0122C35.9385 28.681 35.4657 30.2424 34.6584 31.5833C34.9415 31.3959 35.3148 31.3585 35.6428 31.5171Z" fill="#123869"/>
<path d="M38.0474 38.238L39.8266 34.6302C39.8774 34.5272 39.9083 34.4196 39.9208 34.3118C38.9994 35.9188 37.7885 37.3417 36.3584 38.5111L36.7248 38.6882C37.2156 38.9256 37.8077 38.724 38.0474 38.238Z" fill="#123869"/>
<path d="M41.8004 25.1654C41.7887 25.0624 41.7759 24.9597 41.7621 24.8573C41.6828 25.0586 41.4871 25.2264 41.3059 25.3219L41.8004 25.1654Z" fill="#123869"/>
<path d="M21.3451 25.4127L17.3744 26.6688C17.3728 26.7379 17.3721 26.8071 17.3721 26.8765C17.3721 28.9148 18.0411 30.7983 19.1735 32.3236L29.2471 29.1367L21.3451 25.4127Z" fill="#00C1C8"/>
<path d="M34.1191 21.3716L21.3451 25.4127L29.2471 29.1367L35.9628 27.0122C35.9635 26.967 35.9638 26.9218 35.9638 26.8765C35.9638 24.8124 35.2778 22.9069 34.1191 21.3716Z" fill="#00C1C8"/>
<path d="M40.9579 25.4076C40.5483 25.4076 40.2162 25.0787 40.2162 24.6731C40.2162 24.2675 40.5483 23.9386 40.9579 23.9386C41.2347 23.9386 41.5212 24.0888 41.678 24.3113C41.4213 22.8281 40.9459 21.4188 40.2858 20.1172C40.3048 20.1799 40.3151 20.2464 40.3151 20.3153C40.3151 20.6939 40.0052 21.0008 39.6228 21.0008C39.2405 21.0008 38.9306 20.6939 38.9306 20.3153C38.9306 20.0856 39.0447 19.8823 39.2198 19.7579L34.1191 21.3716C35.2778 22.9069 35.9638 24.8124 35.9638 26.8765C35.9638 26.9218 35.9635 26.967 35.9628 27.0122L41.0546 25.4014C41.0229 25.4055 40.9907 25.4076 40.9579 25.4076Z" fill="#00C1C8"/>
<path d="M39.6228 21.0008C40.0052 21.0008 40.3151 20.6939 40.3151 20.3153C40.3151 20.2464 40.3048 20.1799 40.2858 20.1172C40.2487 20.0441 40.211 19.9713 40.1727 19.8988C40.0466 19.7357 39.8481 19.6304 39.6248 19.6298L39.2198 19.7579C39.0447 19.8823 38.9306 20.0856 38.9306 20.3153C38.9306 20.6939 39.2405 21.0008 39.6228 21.0008Z" fill="#00C1C8"/>
<path d="M40.2162 24.6731C40.2162 25.0787 40.5483 25.4076 40.9579 25.4076C40.9907 25.4076 41.0229 25.4055 41.0546 25.4014L41.3059 25.3219C41.4871 25.2264 41.6828 25.0586 41.7621 24.8573C41.7373 24.6743 41.7093 24.4922 41.678 24.3113C41.5212 24.0888 41.2347 23.9386 40.9579 23.9386C40.5483 23.9386 40.2162 24.2675 40.2162 24.6731Z" fill="#00C1C8"/>
<path d="M14.5536 28.1495C14.1465 28.1495 13.7583 28.0697 13.404 27.9249L11.5277 28.5185C11.75 30.5509 12.38 32.4622 13.3351 34.1706L19.1735 32.3236C18.0411 30.7983 17.3721 28.9148 17.3721 26.8765C17.3721 26.8071 17.3728 26.7379 17.3744 26.6688L17.107 26.7534C16.5729 27.5923 15.629 28.1495 14.5536 28.1495Z" fill="#00C1C8"/>
<path d="M11.5374 25.1481C11.5374 25.153 11.5374 25.1579 11.5374 25.1627C11.5374 26.4092 12.3084 27.4773 13.404 27.9249L17.107 26.7534C17.2263 26.566 17.3251 26.3646 17.4004 26.1522C17.4312 25.7606 17.4867 25.3759 17.5654 24.9996C17.5315 24.3752 17.3038 23.8017 16.9409 23.337L14.4791 22.1768C13.1333 22.2091 12.006 23.1143 11.6526 24.3425C11.6071 24.6087 11.5686 24.8773 11.5374 25.1481Z" fill="#00C1C8"/>
<path d="M11.4385 26.8765C11.4385 27.4313 11.4688 27.9792 11.5277 28.5185L13.404 27.9249C12.3084 27.4773 11.5374 26.4092 11.5374 25.1627C11.5374 25.1579 11.5374 25.153 11.5374 25.1481C11.4721 25.7153 11.4385 26.292 11.4385 26.8765Z" fill="#00C1C8"/>
<path d="M13.404 27.9249C13.7583 28.0697 14.1465 28.1495 14.5536 28.1495C15.629 28.1495 16.5729 27.5923 17.107 26.7534L13.404 27.9249Z" fill="#00C1C8"/>
<path d="M14.4791 22.1768L16.9409 23.337C16.3893 22.6307 15.5251 22.1759 14.5536 22.1759C14.5287 22.1759 14.5039 22.1762 14.4791 22.1768Z" fill="#00C1C8"/>
<path d="M17.3744 26.6688C17.3783 26.4954 17.387 26.3231 17.4004 26.1522C17.3251 26.3646 17.2263 26.566 17.107 26.7534L17.3744 26.6688Z" fill="#00C1C8"/>
<path d="M17.4004 26.1522C17.5102 25.8425 17.5698 25.5095 17.5698 25.1627C17.5698 25.108 17.5684 25.0536 17.5654 24.9996C17.4867 25.3759 17.4312 25.7606 17.4004 26.1522Z" fill="#123869"/>
<path d="M26.6679 11.7956C20.2622 11.7956 14.7802 15.7118 12.5304 21.2584L14.4791 22.1768C14.5039 22.1762 14.5287 22.1759 14.5536 22.1759C15.5251 22.1759 16.3893 22.6307 16.9409 23.337L17.9067 23.7922C19.1873 20.2252 22.6265 17.6712 26.6679 17.6712C29.7175 17.6712 32.424 19.1253 34.1191 21.3716L39.2198 19.7579C39.3333 19.6773 39.4725 19.6298 39.6228 19.6298L39.6248 19.6298L39.9666 19.5217C37.3611 14.9118 32.382 11.7956 26.6679 11.7956Z" fill="white"/>
<path d="M32.9956 36.8849C32.5049 36.6475 32.3013 36.0611 32.541 35.5752L34.1102 32.3931C32.4146 34.6327 29.7122 36.0817 26.6679 36.0817C23.5923 36.0817 20.8656 34.6026 19.1735 32.3236L13.3351 34.1706C15.9311 38.8138 20.9288 41.9574 26.6679 41.9574C30.3492 41.9574 33.7254 40.664 36.3584 38.5111L32.9956 36.8849Z" fill="white"/>
<path d="M32.541 35.5752C32.3013 36.0611 32.5049 36.6475 32.9956 36.8849L36.3584 38.5111C37.7885 37.3417 38.9994 35.9188 39.9208 34.3118C39.9263 34.2644 39.9282 34.217 39.9266 34.1699L34.6093 31.6639C34.4545 31.9151 34.2879 32.1585 34.1102 32.3931L32.541 35.5752Z" fill="white"/>
<path d="M12.5304 21.2584C12.1324 22.2396 11.8355 23.2719 11.6526 24.3425C12.006 23.1143 13.1333 22.2091 14.4791 22.1768L12.5304 21.2584Z" fill="white"/>
<path d="M17.5654 24.9996C17.6519 24.5863 17.7663 24.1832 17.9067 23.7922L16.9409 23.337C17.3038 23.8017 17.5315 24.3752 17.5654 24.9996Z" fill="white"/>
<path d="M39.372 33.3205L35.6428 31.5171C35.3148 31.3585 34.9415 31.3959 34.6584 31.5833C34.6422 31.6103 34.6258 31.6371 34.6093 31.6639L39.9266 34.1699C39.9153 33.8187 39.7129 33.4854 39.372 33.3205Z" fill="white"/>
<path d="M34.3202 31.9673L34.1102 32.3931C34.2879 32.1585 34.4545 31.9151 34.6093 31.6639L34.573 31.6468C34.47 31.7323 34.383 31.84 34.3202 31.9673Z" fill="white"/>
<path d="M34.6584 31.5833C34.6289 31.6029 34.6004 31.624 34.573 31.6468L34.6093 31.6639C34.6258 31.6371 34.6422 31.6103 34.6584 31.5833Z" fill="white"/>
<path d="M39.9208 34.3118C39.9426 34.2739 39.9642 34.2358 39.9856 34.1976L39.9266 34.1699C39.9282 34.217 39.9263 34.2644 39.9208 34.3118Z" fill="#123869"/>
<path d="M40.1727 19.8988C40.1058 19.772 40.0371 19.6463 39.9666 19.5217L39.6248 19.6298C39.8481 19.6304 40.0466 19.7357 40.1727 19.8988Z" fill="white"/>
<path d="M39.6228 19.6298C39.4725 19.6298 39.3333 19.6773 39.2198 19.7579L39.6248 19.6298L39.6228 19.6298Z" fill="white"/>
<path d="M40.1727 19.8988C40.2228 19.9635 40.2614 20.0373 40.2858 20.1172C40.2487 20.0441 40.211 19.9713 40.1727 19.8988Z" fill="#123869"/>
<path d="M41.3059 25.3219C41.2291 25.3623 41.1444 25.3898 41.0546 25.4014L41.3059 25.3219Z" fill="#123869"/>
</svg>
