<svg width="23" height="24" viewBox="0 0 23 24" fill="none" xmlns="http://www.w3.org/2000/svg">
<rect width="23" height="24" rx="5" fill="#EAEC9D"/>
<rect x="8.56006" y="5.95996" width="7.36" height="12.16" rx="0.64" fill="#EAEC9D"/>
<path d="M19 13C19.001 12.4993 18.8767 12.0064 18.6384 11.566C18.4001 11.1257 18.0554 10.752 17.6357 10.4791C17.2159 10.2061 16.7346 10.0425 16.2354 10.0032C15.7363 9.9639 15.2353 10.0501 14.778 10.2541C14.3208 10.458 13.9218 10.7732 13.6176 11.1708C13.3133 11.5684 13.1134 12.0358 13.036 12.5305C12.9587 13.0252 13.0064 13.5313 13.1747 14.0028C13.3431 14.4743 13.6268 14.8962 14 15.23V19L16 18.0535L18 19V15.23C18.3143 14.9497 18.5659 14.6061 18.7382 14.2218C18.9106 13.8375 18.9998 13.4212 19 13ZM17 17.42L16 16.9465L15 17.42V15.825C15.6462 16.0584 16.3538 16.0584 17 15.825V17.42ZM16 15C15.6044 15 15.2178 14.8827 14.8889 14.6629C14.56 14.4432 14.3036 14.1308 14.1522 13.7654C14.0009 13.3999 13.9613 12.9978 14.0384 12.6098C14.1156 12.2219 14.3061 11.8655 14.5858 11.5858C14.8655 11.3061 15.2219 11.1156 15.6098 11.0384C15.9978 10.9613 16.3999 11.0009 16.7654 11.1522C17.1308 11.3036 17.4432 11.56 17.6629 11.8889C17.8827 12.2178 18 12.6044 18 13C17.9993 13.5302 17.7884 14.0386 17.4135 14.4135C17.0385 14.7884 16.5302 14.9993 16 15ZM8.5 11H12V12H8.5V11ZM8.5 8H13.5V9H8.5V8Z" fill="black"/>
<path d="M7 19C6.73486 18.9997 6.48066 18.8943 6.29319 18.7068C6.10571 18.5193 6.00026 18.2651 6 18V6C6.00026 5.73486 6.10571 5.48066 6.29319 5.29319C6.48066 5.10571 6.73486 5.00026 7 5H15C15.2651 5.00026 15.5193 5.10571 15.7068 5.29319C15.8943 5.48066 15.9997 5.73486 16 6V8H15V6H7V18H12V19H7Z" fill="black"/>
</svg>
