<svg width="22" height="22" viewBox="0 0 22 22" fill="none" xmlns="http://www.w3.org/2000/svg">
<path d="M6.0498 10.4466C6.0498 7.94776 6.0498 6.69834 6.82255 5.92192C7.59622 5.14551 8.84014 5.14551 11.3298 5.14551H13.9698C16.4586 5.14551 17.7025 5.14551 18.4761 5.92192C19.2498 6.69834 19.2498 7.94776 19.2498 10.4466V14.8649C19.2498 17.3638 19.2498 18.6132 18.4761 19.3896C17.7034 20.166 16.4586 20.166 13.9698 20.166H11.3298C8.84014 20.166 7.59622 20.166 6.82255 19.3896C6.0498 18.6132 6.0498 17.3638 6.0498 14.8649V10.4466Z" fill="#79B4FF"/>
<path opacity="0.5" d="M3.82433 2.90734C2.75 3.98076 2.75 5.70959 2.75 9.16634V10.9997C2.75 14.4564 2.75 16.1853 3.82433 17.2587C4.38992 17.8252 5.13792 18.0928 6.226 18.2193C6.05 17.4493 6.05 16.3897 6.05 14.8643V10.4469C6.05 7.94809 6.05 6.69867 6.82275 5.92226C7.59642 5.14584 8.84033 5.14584 11.33 5.14584H13.97C15.4843 5.14584 16.5367 5.14584 17.3048 5.32001C17.1783 4.22642 16.9107 3.47567 16.3423 2.90734C15.2689 1.83301 13.5401 1.83301 10.0833 1.83301C6.62658 1.83301 4.89775 1.83301 3.82433 2.90734Z" fill="#79B4FF"/>
</svg>
