<svg width="23" height="24" viewBox="0 0 23 24" fill="none" xmlns="http://www.w3.org/2000/svg">
<rect width="23" height="24" rx="5" fill="#EC9DC3"/>
<path d="M11.1765 4C10.2404 4 9.34269 4.37185 8.6808 5.03374C8.01891 5.69563 7.64706 6.59335 7.64706 7.52941C7.64706 8.46547 8.01891 9.36319 8.6808 10.0251C9.34269 10.687 10.2404 11.0588 11.1765 11.0588C12.1125 11.0588 13.0102 10.687 13.6721 10.0251C14.334 9.36319 14.7059 8.46547 14.7059 7.52941C14.7059 6.59335 14.334 5.69563 13.6721 5.03374C13.0102 4.37185 12.1125 4 11.1765 4ZM8.52941 7.52941C8.52941 6.82737 8.8083 6.15408 9.30472 5.65766C9.80114 5.16124 10.4744 4.88235 11.1765 4.88235C11.8785 4.88235 12.5518 5.16124 13.0482 5.65766C13.5446 6.15408 13.8235 6.82737 13.8235 7.52941C13.8235 8.23146 13.5446 8.90475 13.0482 9.40117C12.5518 9.89759 11.8785 10.1765 11.1765 10.1765C10.4744 10.1765 9.80114 9.89759 9.30472 9.40117C8.8083 8.90475 8.52941 8.23146 8.52941 7.52941ZM6.77265 11.9412C6.54027 11.9402 6.30999 11.9852 6.09502 12.0735C5.88005 12.1617 5.68462 12.2915 5.51993 12.4555C5.35525 12.6194 5.22455 12.8143 5.13532 13.0289C5.0461 13.2434 5.00011 13.4735 5 13.7059C5 15.1979 5.735 16.3229 6.88382 17.0562C8.015 17.7771 9.53971 18.1176 11.1765 18.1176C11.2753 18.1176 11.3741 18.1168 11.4721 18.1141C11.3402 17.8361 11.251 17.5399 11.2074 17.2353H11.1765C9.64559 17.2353 8.30265 16.9141 7.35853 16.3115C6.43206 15.7203 5.88235 14.8618 5.88235 13.7059C5.88235 13.2179 6.27765 12.8235 6.77265 12.8235H15.5882C15.8223 12.8235 16.0467 12.9165 16.2122 13.082C16.3776 13.2474 16.4706 13.4719 16.4706 13.7059H17.3529C17.3529 13.2379 17.167 12.789 16.8361 12.458C16.5051 12.1271 16.0563 11.9412 15.5882 11.9412H6.77265ZM14.2647 14.5882C13.6797 14.5882 13.1186 14.8206 12.7049 15.2343C12.2912 15.648 12.0588 16.2091 12.0588 16.7941C12.0588 17.3792 12.2912 17.9402 12.7049 18.3539C13.1186 18.7676 13.6797 19 14.2647 19H14.7059C14.8229 19 14.9351 18.9535 15.0178 18.8708C15.1006 18.788 15.1471 18.6758 15.1471 18.5588C15.1471 18.4418 15.1006 18.3296 15.0178 18.2469C14.9351 18.1641 14.8229 18.1176 14.7059 18.1176H14.2647C13.9137 18.1176 13.577 17.9782 13.3288 17.73C13.0806 17.4818 12.9412 17.1451 12.9412 16.7941C12.9412 16.4431 13.0806 16.1065 13.3288 15.8582C13.577 15.61 13.9137 15.4706 14.2647 15.4706H14.7059C14.8229 15.4706 14.9351 15.4241 15.0178 15.3414C15.1006 15.2586 15.1471 15.1464 15.1471 15.0294C15.1471 14.9124 15.1006 14.8002 15.0178 14.7175C14.9351 14.6347 14.8229 14.5882 14.7059 14.5882H14.2647ZM17.3529 14.5882C17.2359 14.5882 17.1237 14.6347 17.041 14.7175C16.9582 14.8002 16.9118 14.9124 16.9118 15.0294C16.9118 15.1464 16.9582 15.2586 17.041 15.3414C17.1237 15.4241 17.2359 15.4706 17.3529 15.4706H17.7941C18.1451 15.4706 18.4818 15.61 18.73 15.8582C18.9782 16.1065 19.1176 16.4431 19.1176 16.7941C19.1176 17.1451 18.9782 17.4818 18.73 17.73C18.4818 17.9782 18.1451 18.1176 17.7941 18.1176H17.3529C17.2359 18.1176 17.1237 18.1641 17.041 18.2469C16.9582 18.3296 16.9118 18.4418 16.9118 18.5588C16.9118 18.6758 16.9582 18.788 17.041 18.8708C17.1237 18.9535 17.2359 19 17.3529 19H17.7941C18.3792 19 18.9402 18.7676 19.3539 18.3539C19.7676 17.9402 20 17.3792 20 16.7941C20 16.2091 19.7676 15.648 19.3539 15.2343C18.9402 14.8206 18.3792 14.5882 17.7941 14.5882H17.3529ZM13.8235 16.7941C13.8235 16.6771 13.87 16.5649 13.9527 16.4822C14.0355 16.3994 14.1477 16.3529 14.2647 16.3529H17.7941C17.9111 16.3529 18.0233 16.3994 18.1061 16.4822C18.1888 16.5649 18.2353 16.6771 18.2353 16.7941C18.2353 16.9111 18.1888 17.0233 18.1061 17.1061C18.0233 17.1888 17.9111 17.2353 17.7941 17.2353H14.2647C14.1477 17.2353 14.0355 17.1888 13.9527 17.1061C13.87 17.0233 13.8235 16.9111 13.8235 16.7941Z" fill="black"/>
</svg>
