<svg width="98" height="97" viewBox="0 0 98 97" fill="none" xmlns="http://www.w3.org/2000/svg">
<rect width="98" height="97" rx="20" fill="#78E590"/>
<path d="M52.5887 81.2554C69.2431 81.2554 82.7442 65.8092 82.7442 46.7554C82.7442 27.7016 69.2431 12.2554 52.5887 12.2554C35.9342 12.2554 22.4331 27.7016 22.4331 46.7554C22.4331 65.8092 35.9342 81.2554 52.5887 81.2554Z" fill="#78E590"/>
<path d="M48.5 81C67.5538 81 83 65.5538 83 46.5C83 27.4462 67.5538 12 48.5 12C29.4462 12 14 27.4462 14 46.5C14 65.5538 29.4462 81 48.5 81Z" stroke="#F2F2F2" stroke-width="3.125"/>
<path d="M36.4248 48.225L43.3248 55.125L60.5748 37.875" stroke="#F2F2F2" stroke-width="3.125" stroke-linecap="round" stroke-linejoin="round"/>
</svg>
