<svg width="98" height="97" viewBox="0 0 98 97" fill="none" xmlns="http://www.w3.org/2000/svg">
<rect width="98" height="97" rx="20" fill="#FF7979"/>
<path d="M30.4849 59.7441C30.4849 52.0824 30.4849 48.2489 32.4852 45.8702C34.4834 43.4888 37.7036 43.4888 44.1394 43.4888H62.3454C68.7812 43.4888 72.0014 43.4888 73.9995 45.8702C75.9999 48.2489 75.9999 52.0824 75.9999 59.7441C75.9999 67.4058 75.9999 71.2394 73.9995 73.6181C72.0014 75.9995 68.7812 75.9995 62.3454 75.9995H44.1394C37.7036 75.9995 34.4834 75.9995 32.4852 73.6181C30.4849 71.2394 30.4849 67.4058 30.4849 59.7441Z" fill="#FF7979"/>
<path d="M21.5986 59.5278C21.5986 51.8661 21.5986 48.0326 23.98 45.6539C26.3587 43.2725 30.1923 43.2725 37.854 43.2725H59.5278C67.1895 43.2725 71.0231 43.2725 73.4018 45.6539C75.7832 48.0326 75.7832 51.8661 75.7832 59.5278C75.7832 67.1895 75.7832 71.0231 73.4018 73.4018C71.0231 75.7832 67.1895 75.7832 59.5278 75.7832H37.854C30.1923 75.7832 26.3587 75.7832 23.98 73.4018C21.5986 71.0231 21.5986 67.1895 21.5986 59.5278Z" stroke="#F2F2F2" stroke-width="2.22224"/>
<path d="M32.436 43.2725V37.854C32.436 33.5428 34.1487 29.4082 37.1971 26.3597C40.2456 23.3112 44.3802 21.5986 48.6914 21.5986C53.0026 21.5986 57.1372 23.3112 60.1857 26.3597C63.2342 29.4082 64.9468 33.5428 64.9468 37.854V43.2725" stroke="#F2F2F2" stroke-width="2.22224" stroke-linecap="round"/>
<path d="M37.854 59.5278H37.8784M48.6665 59.5278H48.6909M59.5035 59.5278H59.5278" stroke="#F2F2F2" stroke-width="5.41846" stroke-linecap="round" stroke-linejoin="round"/>
</svg>
