<svg width="98" height="97" viewBox="0 0 98 97" fill="none" xmlns="http://www.w3.org/2000/svg">
<rect width="98" height="97" rx="20" fill="#FF7979"/>
<path d="M52.7878 78.3348C68.1708 78.3348 80.6411 64.9772 80.6411 48.4997C80.6411 32.0222 68.1708 18.6646 52.7878 18.6646C37.4049 18.6646 24.9346 32.0222 24.9346 48.4997C24.9346 64.9772 37.4049 78.3348 52.7878 78.3348Z" fill="#FF7979"/>
<path d="M48.9998 80.119C66.2521 80.119 80.2379 65.9626 80.2379 48.4999C80.2379 31.0372 66.2521 16.8809 48.9998 16.8809C31.7475 16.8809 17.7617 31.0372 17.7617 48.4999C17.7617 65.9626 31.7475 80.119 48.9998 80.119Z" stroke="#F2F2F2" stroke-width="2.38095" stroke-linecap="round" stroke-linejoin="round"/>
<path d="M37.2856 36.6426L60.7142 60.3569M60.7142 36.6426L37.2856 60.3569" stroke="#F2F2F2" stroke-width="2.38095" stroke-linecap="round" stroke-linejoin="round"/>
</svg>
