<svg width="98" height="97" viewBox="0 0 98 97" fill="none" xmlns="http://www.w3.org/2000/svg">
<rect width="98" height="97" rx="20" fill="#FF7979"/>
<path fill-rule="evenodd" clip-rule="evenodd" d="M23.5867 23.5869C23.9617 23.2123 24.47 23.002 25 23.002C25.53 23.002 26.0383 23.2123 26.4133 23.5869L48.832 46.0055C49.2535 45.982 49.6752 46.0477 50.0696 46.1983C50.464 46.3489 50.8221 46.581 51.1206 46.8795C51.4192 47.178 51.6513 47.5362 51.8019 47.9306C51.9525 48.325 52.0182 48.7467 51.9947 49.1682L55.8933 53.0642C56.7933 51.536 57.1601 49.752 56.9362 47.9927C56.7122 46.2333 55.9102 44.5982 54.656 43.3442C54.4702 43.1584 54.3228 42.9379 54.2223 42.6951C54.1218 42.4524 54.07 42.1923 54.07 41.9295C54.07 41.6668 54.1218 41.4066 54.2223 41.1639C54.3228 40.9212 54.4702 40.7006 54.656 40.5149C54.8418 40.3291 55.0623 40.1817 55.305 40.0812C55.5478 39.9806 55.8079 39.9289 56.0707 39.9289C56.3334 39.9289 56.5935 39.9806 56.8363 40.0812C57.079 40.1817 57.2995 40.3291 57.4853 40.5149C59.4908 42.5205 60.7212 45.1714 60.9584 47.9977C61.1956 50.824 60.4244 53.643 58.7813 55.9549L61.64 58.8135C64.03 55.7346 65.2142 51.8891 64.9701 47.9991C64.7261 44.109 63.0707 40.4417 60.3147 37.6855C59.9614 37.3064 59.769 36.8049 59.7782 36.2868C59.7873 35.7687 59.9972 35.2743 60.3637 34.9079C60.7301 34.5414 61.2245 34.3315 61.7426 34.3224C62.2607 34.3133 62.7622 34.5056 63.1413 34.8589C66.6474 38.3647 68.7264 43.0477 68.9753 47.9995C69.2241 52.9514 67.625 57.8193 64.488 61.6589L67.3253 64.4989C71.2124 59.9029 73.2305 54.0141 72.9796 48C72.7287 41.9859 70.2271 36.2857 65.9707 32.0295C65.6174 31.6504 65.425 31.1489 65.4342 30.6308C65.4433 30.1127 65.6532 29.6183 66.0197 29.2519C66.3861 28.8854 66.8805 28.6755 67.3986 28.6664C67.9167 28.6573 68.4182 28.8496 68.7973 29.2029C79.2587 39.6615 79.712 56.3362 70.1627 67.3362L74.4133 71.5869C74.6098 71.77 74.7674 71.9908 74.8767 72.2361C74.9861 72.4814 75.0448 72.7463 75.0496 73.0148C75.0543 73.2833 75.0049 73.5501 74.9043 73.7991C74.8037 74.0482 74.654 74.2744 74.4641 74.4643C74.2742 74.6542 74.048 74.8039 73.7989 74.9045C73.5499 75.0051 73.2831 75.0545 73.0146 75.0498C72.7461 75.045 72.4812 74.9863 72.2359 74.8769C71.9906 74.7676 71.7698 74.61 71.5867 74.4135L65.9707 68.8002L60.3147 63.1415L47.7653 50.5922C47.6394 50.4942 47.5257 50.3814 47.4267 50.2562L23.5867 26.4135C23.4008 26.2278 23.2534 26.0073 23.1528 25.7645C23.0522 25.5218 23.0004 25.2616 23.0004 24.9989C23.0004 24.7361 23.0522 24.4759 23.1528 24.2332C23.2534 23.9905 23.4008 23.7726 23.5867 23.5869ZM26.7573 35.3789C26.9914 35.4985 27.1995 35.6631 27.3699 35.8633C27.5403 36.0634 27.6695 36.2952 27.7503 36.5453C27.831 36.7955 27.8617 37.0591 27.8404 37.3211C27.8192 37.5831 27.7466 37.8383 27.6267 38.0722C25.3184 42.5911 24.5011 47.7251 25.2921 52.7373C26.083 57.7496 28.4416 62.3824 32.0293 65.9709C32.2258 66.154 32.3834 66.3748 32.4927 66.6201C32.6021 66.8654 32.6608 67.1303 32.6656 67.3988C32.6703 67.6673 32.6209 67.9341 32.5203 68.1831C32.4197 68.4322 32.27 68.6584 32.0801 68.8483C31.8902 69.0382 31.664 69.1879 31.4149 69.2885C31.1659 69.3891 30.8991 69.4385 30.6306 69.4338C30.3621 69.429 30.0972 69.3703 29.8519 69.2609C29.6066 69.1516 29.3858 68.994 29.2027 68.7975C20.3867 59.9869 18.68 46.7735 24.0613 36.2509C24.181 36.0168 24.3456 35.8087 24.5457 35.6383C24.7459 35.4679 24.9777 35.3386 25.2278 35.2579C25.4779 35.1772 25.7415 35.1465 26.0035 35.1677C26.2655 35.1889 26.5208 35.2616 26.7547 35.3815L26.7573 35.3789ZM32.5733 41.3575C32.8223 41.4412 33.0524 41.5731 33.2504 41.7457C33.4485 41.9183 33.6105 42.1282 33.7274 42.3635C33.8443 42.5987 33.9137 42.8547 33.9316 43.1168C33.9496 43.3788 33.9157 43.6419 33.832 43.8909C32.8804 46.7154 32.7366 49.7497 33.417 52.6516C34.0973 55.5535 35.5747 58.2076 37.6827 60.3149C38.0359 60.694 38.2283 61.1955 38.2191 61.7136C38.21 62.2317 38.0001 62.7261 37.6336 63.0925C37.2672 63.459 36.7729 63.6689 36.2547 63.678C35.7366 63.6871 35.2351 63.4948 34.856 63.1415C32.2215 60.5082 30.3748 57.1914 29.5239 53.565C28.673 49.9385 28.8517 46.1465 30.04 42.6162C30.1237 42.3672 30.2556 42.1371 30.4282 41.9391C30.6008 41.7411 30.8107 41.579 31.0459 41.4621C31.2812 41.3452 31.5372 41.2758 31.7992 41.2579C32.0613 41.2399 32.3243 41.2738 32.5733 41.3575ZM38.816 48.4322C39.0762 48.3953 39.3411 48.41 39.5956 48.4756C39.8502 48.5411 40.0893 48.6562 40.2993 48.8142C40.5093 48.9722 40.6861 49.17 40.8196 49.3964C40.9531 49.6228 41.0407 49.8733 41.0773 50.1335C41.312 51.7869 42.064 53.3815 43.3413 54.6562C43.7165 55.0314 43.9273 55.5403 43.9273 56.0709C43.9273 56.6015 43.7165 57.1103 43.3413 57.4855C42.9661 57.8607 42.4573 58.0715 41.9267 58.0715C41.3961 58.0715 40.8872 57.8607 40.512 57.4855C38.6729 55.6513 37.4813 53.268 37.1173 50.6962C37.0427 50.1711 37.1798 49.6378 37.4984 49.2138C37.8169 48.7897 38.2909 48.5095 38.816 48.4349V48.4322Z" fill="white"/>
</svg>
