<svg width="28" height="28" viewBox="0 0 28 28" fill="none" xmlns="http://www.w3.org/2000/svg">
<path fill-rule="evenodd" clip-rule="evenodd" d="M21 17C21 20.866 17.866 24 14 24C10.134 24 7 20.866 7 17C7 13.134 10.134 10 14 10C17.866 10 21 13.134 21 17ZM11.6 20H12.5985V15.7921H12.6346L15.5098 20H16.4V18.2857H18V17.4286H16.4V16.5714H18V15.7143H16.4V14H15.4055V18.2037H15.3694L12.4982 14H11.6V15.7143H10V16.5714H11.6V17.4286H10V18.2857H11.6V20Z" fill="#BEBEBE"/>
<path d="M23.5558 0H4.3C3.5024 0 2.85581 0.646583 2.85581 1.44419V2.40698C2.85581 3.20458 3.5024 3.85116 4.3 3.85116H4.78135H22.9399H23.0744H23.5558C24.3534 3.85116 25 3.20458 25 2.40698V1.44419C25 0.646584 24.3534 0 23.5558 0Z" fill="#BEBEBE"/>
<path fill-rule="evenodd" clip-rule="evenodd" d="M22.1442 5H5.77674C5.44871 5 5.12707 5.02734 4.81396 5.07987C2.08184 5.53823 0 7.91437 0 10.7768V21.3674C0 24.5578 2.58633 27.1442 5.77674 27.1442H22.1442C25.3346 27.1442 27.9209 24.5578 27.9209 21.3674V10.7767C27.9209 7.91437 25.8391 5.53824 23.107 5.07987C22.7939 5.02734 22.4722 5 22.1442 5ZM14 25C18.4183 25 22 21.4183 22 17C22 12.5817 18.4183 9 14 9C9.58172 9 6 12.5817 6 17C6 21.4183 9.58172 25 14 25Z" fill="#BEBEBE"/>
<path fill-rule="evenodd" clip-rule="evenodd" d="M12.5985 20H11.6V18.2857H10V17.4286H11.6V16.5714H10V15.7143H11.6V14H12.4982L15.3694 18.2037H15.4055V14H16.4V15.7143H18V16.5714H16.4V17.4286H18V18.2857H16.4V20H15.5098L12.6346 15.7921H12.5985V20ZM21 17C21 20.866 17.866 24 14 24C10.134 24 7 20.866 7 17C7 13.134 10.134 10 14 10C17.866 10 21 13.134 21 17Z" fill="#BEBEBE"/>
</svg>
