<svg width="19" height="17" viewBox="0 0 19 17" fill="none" xmlns="http://www.w3.org/2000/svg">
<path d="M17.3962 10.75C17.6515 10.7502 17.8971 10.848 18.0827 11.0232C18.2684 11.1985 18.3801 11.438 18.395 11.6929C18.41 11.9477 18.3271 12.1987 18.1632 12.3944C17.9994 12.5902 17.7669 12.716 17.5134 12.7462L17.3962 12.7532H3.78822L6.08494 15.0499C6.26458 15.2302 6.36887 15.472 6.37664 15.7264C6.38441 15.9808 6.29506 16.2285 6.12676 16.4194C5.95845 16.6103 5.7238 16.7299 5.47047 16.7541C5.21714 16.7782 4.96412 16.705 4.7628 16.5493L4.66865 16.4662L0.832441 12.63C0.166364 11.9649 0.593054 10.8441 1.49652 10.756L1.6117 10.75H17.3962ZM12.6816 1.02722C12.8541 0.854767 13.0836 0.751168 13.327 0.735862C13.5704 0.720556 13.811 0.794595 14.0037 0.944088L14.0979 1.02722L17.9341 4.86343C18.6002 5.52851 18.1735 6.64932 17.27 6.73746L17.1548 6.74347H1.37031C1.11502 6.74319 0.869469 6.64543 0.683832 6.47018C0.498196 6.29493 0.386485 6.0554 0.371523 5.80055C0.356562 5.5457 0.43948 5.29475 0.603335 5.09898C0.767191 4.90321 0.999616 4.77739 1.25312 4.74724L1.37031 4.74023H14.9783L12.6816 2.44351C12.4938 2.25568 12.3883 2.00096 12.3883 1.73537C12.3883 1.46977 12.4938 1.21505 12.6816 1.02722Z" fill="#69D7FF"/>
</svg>
