<svg width="47" height="45" viewBox="0 0 47 45" fill="none" xmlns="http://www.w3.org/2000/svg">
<rect width="47" height="45" rx="7" fill="#78E590"/>
<ellipse cx="26.2297" cy="25.5473" rx="9.27027" ry="11.2568" fill="#78E590"/>
<path d="M18.4493 8H27.3885M22.9189 19.9189V25.8784M22.9189 37.7973C26.08 37.7973 29.1116 36.5416 31.3469 34.3063C33.5821 32.0711 34.8378 29.0395 34.8378 25.8784C34.8378 22.7173 33.5821 19.6857 31.3469 17.4504C29.1116 15.2152 26.08 13.9595 22.9189 13.9595C19.7578 13.9595 16.7262 15.2152 14.491 17.4504C12.2557 19.6857 11 22.7173 11 25.8784C11 29.0395 12.2557 32.0711 14.491 34.3063C16.7262 36.5416 19.7578 37.7973 22.9189 37.7973Z" stroke="black" stroke-width="1.2" stroke-linecap="round" stroke-linejoin="round"/>
</svg>
