<svg width="24" height="24" viewBox="0 0 24 24" fill="none" xmlns="http://www.w3.org/2000/svg">
<path d="M21 20.9997L16.657 16.6567M16.657 16.6567C17.3998 15.9138 17.9891 15.0319 18.3912 14.0613C18.7932 13.0906 19.0002 12.0503 19.0002 10.9997C19.0002 9.94911 18.7932 8.9088 18.3912 7.93817C17.9891 6.96754 17.3998 6.08561 16.657 5.34272C15.9141 4.59983 15.0321 4.01054 14.0615 3.60849C13.0909 3.20644 12.0506 2.99951 11 2.99951C9.94936 2.99951 8.90904 3.20644 7.93841 3.60849C6.96779 4.01054 6.08585 4.59983 5.34296 5.34272C3.84263 6.84305 2.99976 8.87793 2.99976 10.9997C2.99976 13.1215 3.84263 15.1564 5.34296 16.6567C6.84329 18.157 8.87817 18.9999 11 18.9999C13.1217 18.9999 15.1566 18.157 16.657 16.6567Z" stroke="#B6B6B6" stroke-width="1.5" stroke-linecap="round" stroke-linejoin="round"/>
</svg>
