<svg width="23" height="24" viewBox="0 0 23 24" fill="none" xmlns="http://www.w3.org/2000/svg">
<rect width="23" height="24" rx="5" fill="#EC9D9D"/>
<path d="M14.9125 17.659L14.3216 17.899C14.1085 17.9823 13.8737 17.9823 13.6606 17.899L13.0697 17.659C11.573 17.0474 10.2875 15.9808 9.38015 14.5976C8.47282 13.2145 7.98569 11.5789 7.98206 9.90343V7.00163C9.11625 7.1701 10.273 7.01662 11.3306 6.55737C12.3881 6.09812 13.3072 5.35009 13.9911 4.39209C15.243 6.29183 17.3161 7.18951 20.0001 7.00163V9.90343C19.9965 11.5789 19.5093 13.2145 18.602 14.5976C17.6947 15.9808 16.4091 17.0474 14.9125 17.659Z" fill="#EC9D9D"/>
<path d="M12.8162 18.6656L12.1498 18.931C11.9095 19.023 11.6447 19.023 11.4043 18.931L10.7379 18.6656C9.04996 17.9896 7.6001 16.8104 6.5768 15.2815C5.5535 13.7526 5.00409 11.9445 5 10.0924V6.88465C6.27917 7.07089 7.58383 6.90123 8.77653 6.39356C9.96923 5.88589 11.0058 5.059 11.7771 4C13.189 6.10003 15.5271 7.09235 18.5542 6.88465V10.0924C18.5501 11.9445 18.0007 13.7526 16.9774 15.2815C15.9541 16.8104 14.5042 17.9896 12.8162 18.6656Z" stroke="black" stroke-linecap="round" stroke-linejoin="round"/>
</svg>
