<svg width="23" height="24" viewBox="0 0 23 24" fill="none" xmlns="http://www.w3.org/2000/svg">
<rect width="23" height="24" rx="5" fill="#FF9898"/>
<path d="M10.0001 17.6004C9.89401 17.6004 9.79227 17.5582 9.71726 17.4832C9.64224 17.4082 9.6001 17.3065 9.6001 17.2004C9.6001 17.0943 9.64224 16.9926 9.71726 16.9175C9.79227 16.8425 9.89401 16.8004 10.0001 16.8004H15.2001C15.6244 16.8004 16.0314 16.6318 16.3315 16.3318C16.6315 16.0317 16.8001 15.6247 16.8001 15.2004V8.80039C16.8001 8.37604 16.6315 7.96908 16.3315 7.66902C16.0314 7.36896 15.6244 7.20039 15.2001 7.20039H10.0001C9.89401 7.20039 9.79227 7.15825 9.71726 7.08323C9.64224 7.00822 9.6001 6.90648 9.6001 6.80039C9.6001 6.6943 9.64224 6.59256 9.71726 6.51755C9.79227 6.44253 9.89401 6.40039 10.0001 6.40039H15.2001C15.8366 6.40039 16.4471 6.65325 16.8972 7.10333C17.3472 7.55342 17.6001 8.16387 17.6001 8.80039V15.2004C17.6001 15.8369 17.3472 16.4474 16.8972 16.8974C16.4471 17.3475 15.8366 17.6004 15.2001 17.6004H10.0001ZM9.0833 8.91719C9.04614 8.87994 9.002 8.85039 8.9534 8.83022C8.90481 8.81006 8.85271 8.79968 8.8001 8.79968C8.74748 8.79968 8.69539 8.81006 8.64679 8.83022C8.5982 8.85039 8.55405 8.87994 8.5169 8.91719L5.7169 11.7172C5.67965 11.7543 5.65009 11.7985 5.62993 11.8471C5.60976 11.8957 5.59938 11.9478 5.59938 12.0004C5.59938 12.053 5.60976 12.1051 5.62993 12.1537C5.65009 12.2023 5.67965 12.2464 5.7169 12.2836L8.5169 15.0836C8.55409 15.1208 8.59824 15.1503 8.64683 15.1704C8.69542 15.1905 8.7475 15.2009 8.8001 15.2009C8.85269 15.2009 8.90477 15.1905 8.95337 15.1704C9.00196 15.1503 9.04611 15.1208 9.0833 15.0836C9.12049 15.0464 9.14999 15.0022 9.17012 14.9537C9.19024 14.9051 9.2006 14.853 9.2006 14.8004C9.2006 14.7478 9.19024 14.6957 9.17012 14.6471C9.14999 14.5985 9.12049 14.5544 9.0833 14.5172L6.9657 12.4004H14.0001C14.1062 12.4004 14.2079 12.3582 14.2829 12.2832C14.358 12.2082 14.4001 12.1065 14.4001 12.0004C14.4001 11.8943 14.358 11.7926 14.2829 11.7175C14.2079 11.6425 14.1062 11.6004 14.0001 11.6004H6.9657L9.0833 9.48359C9.12055 9.44643 9.1501 9.40229 9.17027 9.3537C9.19043 9.3051 9.20081 9.253 9.20081 9.20039C9.20081 9.14778 9.19043 9.09568 9.17027 9.04708C9.1501 8.99849 9.12055 8.95435 9.0833 8.91719Z" fill="black"/>
</svg>
