<svg width="108" height="658" viewBox="0 0 108 658" fill="none" xmlns="http://www.w3.org/2000/svg">
<path d="M31.9552 176.089C31.3639 177.608 30.9229 179.207 30.6512 180.864C31.1763 178.963 32.851 177.561 34.8504 177.511C34.8871 177.51 34.924 177.51 34.961 177.51C36.4042 177.51 37.6881 178.214 38.5077 179.307C39.0468 180.027 39.385 180.915 39.4354 181.882C39.5638 181.242 39.7339 180.618 39.9424 180.012C41.845 174.49 46.9542 170.535 52.9583 170.535C57.4887 170.535 61.5096 172.787 64.0279 176.264L71.6055 173.766L72.2072 173.568C72.539 173.569 72.8338 173.732 73.0212 173.984C72.9217 173.788 72.8197 173.593 72.715 173.4C68.8442 166.263 61.4472 161.438 52.9583 161.438C43.4418 161.438 35.2976 167.502 31.9552 176.089Z" fill="white"/>
<path d="M71.8316 194.764L66.2915 191.972C65.8042 191.727 65.2496 191.785 64.829 192.075C64.8049 192.117 64.7806 192.158 64.7561 192.2C64.5262 192.589 64.2786 192.965 64.0147 193.329C61.4956 196.796 57.4808 199.04 52.9583 199.04C48.3891 199.04 44.3382 196.75 41.8244 193.221L33.1508 196.081C37.0075 203.269 44.4321 208.137 52.9583 208.137C58.4272 208.137 63.443 206.134 67.3546 202.801C69.4792 200.99 71.2781 198.787 72.6469 196.299C72.6551 196.226 72.6579 196.152 72.6556 196.079C72.6387 195.536 72.3381 195.02 71.8316 194.764Z" fill="white"/>
<path d="M30.3332 184.787C30.3332 185.646 30.3781 186.495 30.4657 187.33C30.7959 190.476 31.7318 193.436 33.1508 196.081L41.8244 193.221L56.7899 188.287L66.7669 184.998L74.3313 182.504L74.7046 182.381C74.9738 182.233 75.2645 181.973 75.3823 181.661C75.3456 181.378 75.3039 181.096 75.2574 180.816C74.8761 178.519 74.1698 176.338 73.1891 174.322C73.134 174.209 73.078 174.096 73.0212 173.984C72.8338 173.732 72.539 173.569 72.2072 173.568L71.6055 173.766L64.0279 176.264L45.0506 182.521L39.1516 184.466C39.1573 184.197 39.1703 183.931 39.1903 183.666C39.236 183.06 39.3185 182.464 39.4354 181.882C39.385 180.915 39.0468 180.027 38.5077 179.307C37.6881 178.214 36.4042 177.51 34.961 177.51C34.924 177.51 34.8871 177.51 34.8504 177.511C32.851 177.561 31.1763 178.963 30.6512 180.864C30.5836 181.276 30.5265 181.692 30.4801 182.111C30.383 182.99 30.3332 183.883 30.3332 184.787Z" fill="#F6B41A"/>
<path fill-rule="evenodd" clip-rule="evenodd" d="M21.812 184.787C21.812 186.578 21.9539 188.335 22.2268 190.046C22.719 193.133 23.6373 196.071 24.9173 198.795C29.9614 209.529 40.6223 216.93 52.9583 216.93C64.8632 216.93 75.2082 210.037 80.4502 199.908C82.7824 195.401 84.1045 190.254 84.1045 184.787C84.1045 182.96 83.9567 181.168 83.6728 179.424C83.1707 176.339 82.243 173.404 80.954 170.684C75.8916 160.002 65.2575 152.645 52.9583 152.645C40.0467 152.645 28.97 160.752 24.2482 172.304C22.6793 176.142 21.812 180.36 21.812 184.787ZM66.2915 191.972L71.8316 194.764C72.3381 195.02 72.6387 195.536 72.6556 196.079C72.6579 196.152 72.6551 196.226 72.6469 196.299C71.2781 198.787 69.4792 200.99 67.3546 202.801C63.443 206.134 58.4272 208.137 52.9583 208.137C44.4321 208.137 37.0075 203.269 33.1508 196.081C31.7318 193.436 30.7959 190.476 30.4657 187.33C30.3781 186.495 30.3332 185.646 30.3332 184.787C30.3332 183.883 30.383 182.99 30.4801 182.111C30.5265 181.692 30.5836 181.276 30.6512 180.864C30.9229 179.207 31.3639 177.608 31.9552 176.089C35.2976 167.502 43.4418 161.438 52.9583 161.438C61.4472 161.438 68.8442 166.263 72.715 173.4C72.8197 173.593 72.9217 173.788 73.0212 173.984C73.078 174.096 73.134 174.209 73.1891 174.322C74.1698 176.338 74.8761 178.519 75.2574 180.816C75.3039 181.096 75.3456 181.378 75.3823 181.661C75.2645 181.973 74.9738 182.233 74.7046 182.381L74.3313 182.504L66.7669 184.998L56.7899 188.287L41.8244 193.221C44.3382 196.75 48.3891 199.04 52.9583 199.04C57.4808 199.04 61.4956 196.796 64.0147 193.329C64.2786 192.965 64.5262 192.589 64.7561 192.2C64.7806 192.158 64.8049 192.117 64.829 192.075C65.2496 191.785 65.8042 191.727 66.2915 191.972Z" fill="#231E54"/>
<path d="M52.9583 170.535C46.9542 170.535 41.845 174.49 39.9424 180.012C39.7339 180.618 39.5638 181.242 39.4354 181.882C39.3185 182.464 39.236 183.06 39.1903 183.666C39.1703 183.931 39.1573 184.197 39.1516 184.466L45.0506 182.521L64.0279 176.264C61.5096 172.787 57.4887 170.535 52.9583 170.535Z" fill="#231E54"/>
<path d="M88.3398 184.892C88.3398 205.117 72.4629 221.496 52.8972 221.496C33.3315 221.496 17.4546 205.117 17.4546 184.892C17.4546 164.667 33.3315 148.287 52.8972 148.287C72.4629 148.287 88.3398 164.667 88.3398 184.892Z" stroke="white" stroke-width="0.581026"/>
<path d="M18.2212 256.997V257.903H6.01967C6.19398 260.413 7.51872 262.052 9.85444 262.052C11.4929 262.052 12.6085 261.285 13.5498 259.612L17.9772 261.076C16.4433 264.248 13.4103 265.852 9.78472 265.852C4.52062 265.852 0.89502 262.401 0.89502 256.892C0.89502 251.419 4.52062 247.863 9.61041 247.863C14.8745 247.863 18.2212 251.315 18.2212 256.997ZM6.22884 254.592H13.0966C12.8525 252.744 11.5627 251.663 9.68013 251.663C7.83247 251.663 6.61232 252.848 6.22884 254.592Z" fill="white"/>
<path d="M24.684 265.364H19.629V242.285H24.684V265.364Z" fill="white"/>
<path d="M43.3842 256.997V257.903H31.1826C31.3569 260.413 32.6817 262.052 35.0174 262.052C36.6559 262.052 37.7715 261.285 38.7127 259.612L43.1402 261.076C41.6062 264.248 38.5733 265.852 34.9477 265.852C29.6836 265.852 26.058 262.401 26.058 256.892C26.058 251.419 29.6836 247.863 34.7734 247.863C40.0375 247.863 43.3842 251.315 43.3842 256.997ZM31.3918 254.592H38.2595C38.0155 252.744 36.7256 251.663 34.8431 251.663C32.9954 251.663 31.7753 252.848 31.3918 254.592Z" fill="white"/>
<path d="M52.7851 265.364H49.8567L41.9431 248.316H47.4513L51.3558 257.624L55.2254 248.316H60.7684L52.7851 265.364Z" fill="white"/>
<path d="M67.516 265.852C62.6354 265.852 59.2887 261.808 59.2887 256.823C59.2887 251.907 62.6703 247.898 67.4812 247.898C69.6077 247.898 71.3508 248.56 72.9544 250.234H72.9893L72.9544 248.316H77.9745V265.364H72.9544L72.9893 263.377H72.9544C71.2811 265.05 69.6426 265.852 67.516 265.852ZM68.7362 261.564C71.4205 261.564 73.1984 259.542 73.1984 256.858C73.1984 254.208 71.4205 252.186 68.771 252.186C66.1216 252.186 64.3785 254.208 64.3785 256.823C64.3785 259.542 66.017 261.564 68.7362 261.564Z" fill="white"/>
<path d="M86.4028 265.364H81.3479V252.779H78.6287V248.316H81.3479V243.866L86.4028 242.285V248.316H89.4358V252.779H86.4028V265.364Z" fill="white"/>
<path d="M106 256.997V257.903H93.7986C93.9729 260.413 95.2977 262.052 97.6334 262.052C99.2719 262.052 100.387 261.285 101.329 259.612L105.756 261.076C104.222 264.248 101.189 265.852 97.5637 265.852C92.2996 265.852 88.674 262.401 88.674 256.892C88.674 251.419 92.2996 247.863 97.3894 247.863C102.653 247.863 106 251.315 106 256.997ZM94.0078 254.592H100.876C100.632 252.744 99.3416 251.663 97.4591 251.663C95.6114 251.663 94.3913 252.848 94.0078 254.592Z" fill="white"/>
<path d="M10.3253 285.244C10.3594 285.329 10.3736 285.4 10.3679 285.457C10.3679 285.508 10.348 285.547 10.3083 285.576C10.2743 285.604 10.2175 285.621 10.1381 285.627C10.0643 285.638 9.96788 285.644 9.84872 285.644C9.72957 285.644 9.63311 285.638 9.55935 285.627C9.49126 285.621 9.43735 285.61 9.39763 285.593C9.35792 285.576 9.32671 285.553 9.30401 285.525C9.28699 285.496 9.26997 285.462 9.25295 285.423L8.19757 282.486H3.36325L2.35042 285.406C2.33907 285.445 2.32205 285.479 2.29936 285.508C2.27666 285.536 2.24545 285.562 2.20573 285.584C2.16601 285.601 2.10927 285.615 2.03551 285.627C1.96742 285.638 1.87947 285.644 1.77167 285.644C1.65251 285.644 1.55321 285.638 1.47378 285.627C1.39434 285.615 1.33476 285.596 1.29504 285.567C1.261 285.539 1.24114 285.499 1.23546 285.448C1.23546 285.397 1.25249 285.329 1.28653 285.244L5.14207 274.767C5.15909 274.721 5.18463 274.684 5.21867 274.656C5.25272 274.622 5.29527 274.596 5.34634 274.579C5.40308 274.562 5.46833 274.551 5.54209 274.545C5.62153 274.534 5.70948 274.528 5.80594 274.528C5.90807 274.528 5.99602 274.534 6.06978 274.545C6.14922 274.551 6.21447 274.562 6.26554 274.579C6.32228 274.596 6.36484 274.622 6.39321 274.656C6.42725 274.684 6.45278 274.721 6.46981 274.767L10.3253 285.244ZM5.75487 275.694H5.74636L3.66965 281.618H7.88265L5.75487 275.694ZM23.0784 285.116C23.0784 285.196 23.0727 285.264 23.0614 285.32C23.05 285.377 23.033 285.428 23.0103 285.474C22.9876 285.513 22.9593 285.545 22.9252 285.567C22.8912 285.584 22.8515 285.593 22.8061 285.593H18.0313C17.9292 285.593 17.8242 285.556 17.7164 285.482C17.6086 285.403 17.5547 285.261 17.5547 285.057V274.75C17.5547 274.716 17.5632 274.684 17.5802 274.656C17.5973 274.628 17.6256 274.605 17.6653 274.588C17.7051 274.571 17.759 274.557 17.8271 274.545C17.8951 274.534 17.9774 274.528 18.0739 274.528C18.176 274.528 18.2583 274.534 18.3207 274.545C18.3888 274.557 18.4427 274.571 18.4824 274.588C18.5221 274.605 18.5505 274.628 18.5675 274.656C18.5845 274.684 18.5931 274.716 18.5931 274.75V284.648H22.8061C22.8515 284.648 22.8912 284.659 22.9252 284.682C22.9593 284.699 22.9876 284.727 23.0103 284.767C23.033 284.801 23.05 284.849 23.0614 284.912C23.0727 284.969 23.0784 285.037 23.0784 285.116ZM35.6102 285.116C35.6102 285.196 35.6045 285.264 35.5932 285.32C35.5818 285.377 35.5648 285.428 35.5421 285.474C35.5194 285.513 35.491 285.545 35.457 285.567C35.423 285.584 35.3832 285.593 35.3378 285.593H30.5631C30.461 285.593 30.356 285.556 30.2482 285.482C30.1404 285.403 30.0865 285.261 30.0865 285.057V274.75C30.0865 274.716 30.095 274.684 30.112 274.656C30.129 274.628 30.1574 274.605 30.1971 274.588C30.2368 274.571 30.2907 274.557 30.3588 274.545C30.4269 274.534 30.5092 274.528 30.6057 274.528C30.7078 274.528 30.7901 274.534 30.8525 274.545C30.9206 274.557 30.9745 274.571 31.0142 274.588C31.0539 274.605 31.0823 274.628 31.0993 274.656C31.1163 274.684 31.1248 274.716 31.1248 274.75V284.648H35.3378C35.3832 284.648 35.423 284.659 35.457 284.682C35.491 284.699 35.5194 284.727 35.5421 284.767C35.5648 284.801 35.5818 284.849 35.5932 284.912C35.6045 284.969 35.6102 285.037 35.6102 285.116ZM43.6566 285.423C43.6566 285.457 43.6481 285.488 43.6311 285.516C43.6141 285.545 43.5857 285.567 43.546 285.584C43.5063 285.601 43.4524 285.615 43.3843 285.627C43.3218 285.638 43.2396 285.644 43.1374 285.644C43.041 285.644 42.9587 285.638 42.8906 285.627C42.8225 285.615 42.7686 285.601 42.7289 285.584C42.6892 285.567 42.6608 285.545 42.6438 285.516C42.6268 285.488 42.6183 285.457 42.6183 285.423V274.75C42.6183 274.716 42.6268 274.684 42.6438 274.656C42.6665 274.628 42.6977 274.605 42.7374 274.588C42.7828 274.571 42.8367 274.557 42.8991 274.545C42.9672 274.534 43.0467 274.528 43.1374 274.528C43.2396 274.528 43.3218 274.534 43.3843 274.545C43.4524 274.557 43.5063 274.571 43.546 274.588C43.5857 274.605 43.6141 274.628 43.6311 274.656C43.6481 274.684 43.6566 274.716 43.6566 274.75V285.423ZM59.9248 285.244C59.9588 285.329 59.973 285.4 59.9673 285.457C59.9673 285.508 59.9475 285.547 59.9078 285.576C59.8737 285.604 59.817 285.621 59.7375 285.627C59.6638 285.638 59.5673 285.644 59.4482 285.644C59.329 285.644 59.2325 285.638 59.1588 285.627C59.0907 285.621 59.0368 285.61 58.9971 285.593C58.9574 285.576 58.9261 285.553 58.9034 285.525C58.8864 285.496 58.8694 285.462 58.8524 285.423L57.797 282.486H52.9627L51.9499 285.406C51.9385 285.445 51.9215 285.479 51.8988 285.508C51.8761 285.536 51.8449 285.562 51.8052 285.584C51.7655 285.601 51.7087 285.615 51.6349 285.627C51.5669 285.638 51.4789 285.644 51.3711 285.644C51.2519 285.644 51.1527 285.638 51.0732 285.627C50.9938 285.615 50.9342 285.596 50.8945 285.567C50.8604 285.539 50.8406 285.499 50.8349 285.448C50.8349 285.397 50.8519 285.329 50.886 285.244L54.7415 274.767C54.7585 274.721 54.7841 274.684 54.8181 274.656C54.8522 274.622 54.8947 274.596 54.9458 274.579C55.0025 274.562 55.0678 274.551 55.1415 274.545C55.221 274.534 55.3089 274.528 55.4054 274.528C55.5075 274.528 55.5955 274.534 55.6692 274.545C55.7487 274.551 55.8139 274.562 55.865 274.579C55.9217 274.596 55.9643 274.622 55.9926 274.656C56.0267 274.684 56.0522 274.721 56.0692 274.767L59.9248 285.244ZM55.3543 275.694H55.3458L53.2691 281.618H57.4821L55.3543 275.694ZM75.061 285.091C75.061 285.193 75.0439 285.278 75.0099 285.346C74.9815 285.414 74.9418 285.471 74.8907 285.516C74.8454 285.556 74.7915 285.584 74.729 285.601C74.6723 285.618 74.6184 285.627 74.5673 285.627H74.3545C74.2411 285.627 74.1361 285.613 74.0396 285.584C73.9489 285.556 73.8581 285.508 73.7673 285.44C73.6822 285.366 73.5942 285.269 73.5034 285.15C73.4183 285.031 73.3219 284.878 73.2141 284.691L69.333 277.814C69.1401 277.479 68.9443 277.136 68.7457 276.784C68.5528 276.426 68.3684 276.08 68.1925 275.745H68.184C68.1897 276.16 68.1925 276.585 68.1925 277.022C68.1925 277.453 68.1925 277.876 68.1925 278.29V285.423C68.1925 285.457 68.184 285.488 68.167 285.516C68.1499 285.545 68.1216 285.567 68.0818 285.584C68.0421 285.601 67.9882 285.615 67.9201 285.627C67.8577 285.638 67.7754 285.644 67.6733 285.644C67.5769 285.644 67.4946 285.638 67.4265 285.627C67.3584 285.615 67.3045 285.601 67.2648 285.584C67.2251 285.567 67.1967 285.545 67.1797 285.516C67.1626 285.488 67.1541 285.457 67.1541 285.423V275.116C67.1541 274.911 67.208 274.772 67.3158 274.699C67.4237 274.619 67.5286 274.579 67.6308 274.579H68.0563C68.1925 274.579 68.306 274.591 68.3968 274.613C68.4875 274.636 68.5698 274.676 68.6436 274.733C68.7173 274.784 68.7883 274.86 68.8564 274.962C68.9301 275.059 69.0096 275.184 69.0947 275.337L72.0651 280.605C72.2523 280.934 72.4282 281.252 72.5927 281.558C72.763 281.859 72.9275 282.157 73.0864 282.452C73.2453 282.742 73.4013 283.028 73.5545 283.312C73.7134 283.595 73.8694 283.882 74.0226 284.171H74.0311C74.0255 283.695 74.0226 283.198 74.0226 282.682C74.0226 282.166 74.0226 281.669 74.0226 281.193V274.784C74.0226 274.75 74.0311 274.718 74.0481 274.69C74.0652 274.662 74.0935 274.639 74.1333 274.622C74.173 274.599 74.224 274.585 74.2865 274.579C74.3545 274.568 74.4397 274.562 74.5418 274.562C74.6326 274.562 74.712 274.568 74.7801 274.579C74.8482 274.585 74.9021 274.599 74.9418 274.622C74.9815 274.639 75.0099 274.662 75.0269 274.69C75.0496 274.718 75.061 274.75 75.061 274.784V285.091ZM90.7248 284.095C90.7248 284.157 90.722 284.214 90.7163 284.265C90.7107 284.316 90.7021 284.361 90.6908 284.401C90.6795 284.441 90.6624 284.478 90.6397 284.512C90.6227 284.546 90.5858 284.591 90.5291 284.648C90.478 284.699 90.3617 284.787 90.1801 284.912C89.9986 285.031 89.7688 285.15 89.4907 285.269C89.2184 285.389 88.9035 285.491 88.546 285.576C88.1885 285.661 87.7942 285.703 87.3629 285.703C86.6707 285.703 86.0437 285.584 85.482 285.346C84.9203 285.102 84.4408 284.747 84.0436 284.282C83.6521 283.817 83.3485 283.244 83.1329 282.563C82.923 281.882 82.818 281.105 82.818 280.231C82.818 279.334 82.9315 278.531 83.1585 277.822C83.3854 277.107 83.7032 276.503 84.1117 276.009C84.5259 275.51 85.0196 275.13 85.5926 274.869C86.1714 274.602 86.8097 274.469 87.5076 274.469C87.8367 274.469 88.1545 274.5 88.4609 274.562C88.773 274.625 89.0595 274.704 89.3205 274.801C89.5815 274.897 89.8142 275.008 90.0184 275.133C90.2284 275.257 90.3702 275.36 90.444 275.439C90.5234 275.513 90.5716 275.567 90.5887 275.601C90.6114 275.635 90.6284 275.674 90.6397 275.72C90.6511 275.76 90.6596 275.808 90.6653 275.865C90.6709 275.916 90.6738 275.975 90.6738 276.043C90.6738 276.123 90.6681 276.194 90.6568 276.256C90.6511 276.313 90.6369 276.364 90.6142 276.409C90.5972 276.449 90.5745 276.48 90.5461 276.503C90.5177 276.526 90.4837 276.537 90.444 276.537C90.3645 276.537 90.2511 276.48 90.1035 276.367C89.9617 276.248 89.7716 276.117 89.5333 275.975C89.3006 275.833 89.0141 275.706 88.6737 275.592C88.3332 275.473 87.9275 275.413 87.4566 275.413C86.9402 275.413 86.4664 275.518 86.0352 275.728C85.604 275.933 85.2323 276.236 84.9203 276.639C84.6139 277.042 84.3727 277.538 84.1968 278.129C84.0266 278.719 83.9415 279.397 83.9415 280.163C83.9415 280.895 84.0209 281.544 84.1798 282.112C84.3387 282.679 84.5685 283.159 84.8692 283.55C85.1699 283.936 85.5416 284.231 85.9841 284.435C86.4267 284.64 86.9289 284.742 87.4906 284.742C87.9502 284.742 88.3502 284.685 88.6907 284.571C89.0368 284.452 89.3319 284.322 89.5758 284.18C89.8198 284.038 90.0184 283.91 90.1716 283.797C90.3305 283.678 90.4525 283.618 90.5376 283.618C90.5716 283.618 90.6 283.627 90.6227 283.644C90.6454 283.655 90.6624 283.681 90.6738 283.72C90.6908 283.754 90.7021 283.803 90.7078 283.865C90.7192 283.927 90.7248 284.004 90.7248 284.095ZM103.98 285.133C103.98 285.207 103.974 285.272 103.963 285.329C103.952 285.386 103.932 285.434 103.903 285.474C103.881 285.513 103.852 285.545 103.818 285.567C103.784 285.584 103.747 285.593 103.708 285.593H98.55C98.4478 285.593 98.3429 285.556 98.2351 285.482C98.1273 285.403 98.0734 285.261 98.0734 285.057V275.116C98.0734 274.911 98.1273 274.772 98.2351 274.699C98.3429 274.619 98.4478 274.579 98.55 274.579H103.631C103.671 274.579 103.708 274.591 103.742 274.613C103.776 274.63 103.804 274.659 103.827 274.699C103.85 274.738 103.867 274.789 103.878 274.852C103.889 274.908 103.895 274.977 103.895 275.056C103.895 275.13 103.889 275.195 103.878 275.252C103.867 275.308 103.85 275.357 103.827 275.396C103.804 275.43 103.776 275.459 103.742 275.482C103.708 275.499 103.671 275.507 103.631 275.507H99.1117V279.38H103.01C103.055 279.38 103.095 279.391 103.129 279.414C103.163 279.431 103.191 279.459 103.214 279.499C103.237 279.533 103.254 279.581 103.265 279.643C103.276 279.7 103.282 279.768 103.282 279.848C103.282 279.922 103.276 279.987 103.265 280.044C103.254 280.095 103.237 280.137 103.214 280.171C103.191 280.205 103.163 280.231 103.129 280.248C103.095 280.265 103.055 280.273 103.01 280.273H99.1117V284.665H103.708C103.747 284.665 103.784 284.676 103.818 284.699C103.852 284.716 103.881 284.744 103.903 284.784C103.932 284.818 103.952 284.866 103.963 284.929C103.974 284.986 103.98 285.054 103.98 285.133Z" fill="white"/>
<path d="M5.96791 614H30.0101L24.5684 623.945H0.174316L5.96791 614Z" fill="#9EDFF3"/>
<path d="M0 627.26H29.8358L24.3941 637.38H0V627.26Z" fill="#9EDFF3"/>
<path d="M0.174316 640.521H13.2602L0.174316 657.271V640.521Z" fill="#9EDFF3"/>
<path d="M44.5152 645.001H41.1396V626.122H53.1764V628.974H44.5152V634.548H52.4306V637.295H44.5152V645.001ZM61.6911 645.001H58.3156V626.122H61.6911V645.001ZM70.9516 645.001H67.6938V626.122H70.6245L79.9922 639.349H80.11V626.122H83.3547V645.001H80.4501L71.0693 631.761H70.9516V645.001ZM88.2845 645.001L94.4337 635.542V635.451L88.3368 626.122H92.3273L96.6972 633.213H96.8018L101.224 626.122H105.005L98.712 635.529V635.621L104.9 645.001H101.015L96.5663 638.067H96.4617L91.961 645.001H88.2845Z" fill="#9EDFF3"/>
<path d="M23.52 594.51C24.1667 594.51 24.6867 594.743 25.08 595.21C25.48 595.677 25.68 596.373 25.68 597.3C25.68 597.907 25.59 598.42 25.41 598.84C25.23 599.26 24.9767 599.577 24.65 599.79C24.3233 599.997 23.9433 600.1 23.51 600.1C23.2367 600.1 22.9967 600.067 22.79 600C22.5833 599.927 22.4067 599.833 22.26 599.72C22.12 599.6 21.9967 599.473 21.89 599.34H21.82C21.84 599.46 21.8567 599.603 21.87 599.77C21.8833 599.93 21.89 600.073 21.89 600.2V602.4H20.83V594.61H21.69L21.84 595.33H21.89C21.9967 595.183 22.1233 595.047 22.27 594.92C22.4167 594.793 22.5933 594.693 22.8 594.62C23.0067 594.547 23.2467 594.51 23.52 594.51ZM23.27 595.38C22.9367 595.38 22.67 595.447 22.47 595.58C22.27 595.707 22.1233 595.9 22.03 596.16C21.9433 596.413 21.8967 596.737 21.89 597.13V597.29C21.89 597.703 21.9333 598.057 22.02 598.35C22.1067 598.637 22.25 598.857 22.45 599.01C22.6567 599.157 22.9367 599.23 23.29 599.23C23.59 599.23 23.8333 599.15 24.02 598.99C24.2133 598.823 24.3567 598.593 24.45 598.3C24.5433 598.007 24.59 597.667 24.59 597.28C24.59 596.693 24.4833 596.23 24.27 595.89C24.0567 595.55 23.7233 595.38 23.27 595.38ZM32.7812 597.3C32.7812 597.747 32.7212 598.143 32.6012 598.49C32.4812 598.837 32.3112 599.13 32.0912 599.37C31.8712 599.61 31.6045 599.793 31.2912 599.92C30.9778 600.04 30.6245 600.1 30.2312 600.1C29.8712 600.1 29.5378 600.04 29.2312 599.92C28.9245 599.793 28.6578 599.61 28.4312 599.37C28.2112 599.13 28.0378 598.837 27.9112 598.49C27.7845 598.143 27.7212 597.743 27.7212 597.29C27.7212 596.697 27.8212 596.193 28.0212 595.78C28.2278 595.367 28.5212 595.053 28.9012 594.84C29.2878 594.62 29.7412 594.51 30.2612 594.51C30.7545 594.51 31.1878 594.62 31.5612 594.84C31.9412 595.053 32.2378 595.367 32.4512 595.78C32.6712 596.193 32.7812 596.7 32.7812 597.3ZM28.8112 597.3C28.8112 597.7 28.8612 598.047 28.9612 598.34C29.0612 598.627 29.2178 598.847 29.4312 599C29.6445 599.153 29.9178 599.23 30.2512 599.23C30.5845 599.23 30.8578 599.153 31.0712 599C31.2845 598.847 31.4412 598.627 31.5412 598.34C31.6412 598.047 31.6912 597.7 31.6912 597.3C31.6912 596.887 31.6378 596.54 31.5312 596.26C31.4312 595.98 31.2745 595.767 31.0612 595.62C30.8545 595.467 30.5812 595.39 30.2412 595.39C29.7412 595.39 29.3778 595.557 29.1512 595.89C28.9245 596.223 28.8112 596.693 28.8112 597.3ZM38.5696 597.3C38.5363 597.167 38.4963 597.02 38.4496 596.86C38.4096 596.7 38.3696 596.54 38.3296 596.38C38.2896 596.213 38.2529 596.06 38.2196 595.92C38.1863 595.78 38.1596 595.67 38.1396 595.59H38.0996C38.0863 595.67 38.0629 595.78 38.0296 595.92C38.0029 596.06 37.9696 596.213 37.9296 596.38C37.8896 596.54 37.8496 596.703 37.8096 596.87C37.7696 597.03 37.7263 597.177 37.6796 597.31L36.8796 599.99H35.6996L34.2096 594.6H35.2896L35.9896 597.33C36.0429 597.517 36.0896 597.713 36.1296 597.92C36.1763 598.127 36.2163 598.327 36.2496 598.52C36.2896 598.707 36.3163 598.863 36.3296 598.99H36.3696C36.3829 598.903 36.4029 598.797 36.4296 598.67C36.4563 598.537 36.4829 598.4 36.5096 598.26C36.5429 598.113 36.5729 597.973 36.5996 597.84C36.6329 597.707 36.6663 597.597 36.6996 597.51L37.5596 594.6H38.7196L39.5596 597.51C39.5996 597.643 39.6429 597.803 39.6896 597.99C39.7363 598.17 39.7763 598.35 39.8096 598.53C39.8496 598.703 39.8763 598.853 39.8896 598.98H39.9296C39.9429 598.867 39.9663 598.72 39.9996 598.54C40.0329 598.353 40.0729 598.153 40.1196 597.94C40.1729 597.727 40.2229 597.523 40.2696 597.33L40.9896 594.6H42.0596L40.5496 599.99H39.3396L38.5696 597.3ZM46.116 594.51C46.5893 594.51 46.996 594.61 47.336 594.81C47.676 595.003 47.936 595.283 48.116 595.65C48.3027 596.017 48.396 596.45 48.396 596.95V597.53H44.776C44.7893 598.083 44.9327 598.507 45.206 598.8C45.486 599.093 45.876 599.24 46.376 599.24C46.7227 599.24 47.0293 599.21 47.296 599.15C47.5693 599.083 47.8493 598.987 48.136 598.86V599.74C47.8693 599.86 47.596 599.95 47.316 600.01C47.0427 600.07 46.716 600.1 46.336 600.1C45.816 600.1 45.356 599.997 44.956 599.79C44.556 599.583 44.2427 599.277 44.016 598.87C43.796 598.457 43.686 597.95 43.686 597.35C43.686 596.743 43.786 596.23 43.986 595.81C44.1927 595.39 44.476 595.07 44.836 594.85C45.2027 594.623 45.6293 594.51 46.116 594.51ZM46.116 595.33C45.736 595.33 45.4293 595.453 45.196 595.7C44.9693 595.947 44.836 596.297 44.796 596.75H47.336C47.336 596.47 47.2927 596.223 47.206 596.01C47.1193 595.797 46.986 595.63 46.806 595.51C46.626 595.39 46.396 595.33 46.116 595.33ZM53.3787 594.51C53.472 594.51 53.5753 594.517 53.6887 594.53C53.802 594.537 53.8953 594.547 53.9687 594.56L53.8587 595.55C53.7853 595.53 53.6987 595.513 53.5987 595.5C53.4987 595.487 53.4053 595.48 53.3187 595.48C53.1187 595.48 52.9253 595.52 52.7387 595.6C52.5587 595.673 52.3953 595.783 52.2487 595.93C52.102 596.07 51.9853 596.243 51.8987 596.45C51.8187 596.657 51.7787 596.893 51.7787 597.16V600H50.7187V594.61H51.5587L51.6987 595.57H51.7387C51.852 595.377 51.9887 595.2 52.1487 595.04C52.3087 594.88 52.492 594.753 52.6987 594.66C52.9053 594.56 53.132 594.51 53.3787 594.51ZM57.8914 594.51C58.3647 594.51 58.7714 594.61 59.1114 594.81C59.4514 595.003 59.7114 595.283 59.8914 595.65C60.0781 596.017 60.1714 596.45 60.1714 596.95V597.53H56.5514C56.5647 598.083 56.7081 598.507 56.9814 598.8C57.2614 599.093 57.6514 599.24 58.1514 599.24C58.4981 599.24 58.8047 599.21 59.0714 599.15C59.3447 599.083 59.6247 598.987 59.9114 598.86V599.74C59.6447 599.86 59.3714 599.95 59.0914 600.01C58.8181 600.07 58.4914 600.1 58.1114 600.1C57.5914 600.1 57.1314 599.997 56.7314 599.79C56.3314 599.583 56.0181 599.277 55.7914 598.87C55.5714 598.457 55.4614 597.95 55.4614 597.35C55.4614 596.743 55.5614 596.23 55.7614 595.81C55.9681 595.39 56.2514 595.07 56.6114 594.85C56.9781 594.623 57.4047 594.51 57.8914 594.51ZM57.8914 595.33C57.5114 595.33 57.2047 595.453 56.9714 595.7C56.7447 595.947 56.6114 596.297 56.5714 596.75H59.1114C59.1114 596.47 59.0681 596.223 58.9814 596.01C58.8947 595.797 58.7614 595.63 58.5814 595.51C58.4014 595.39 58.1714 595.33 57.8914 595.33ZM64.3441 600.1C63.6974 600.1 63.1741 599.867 62.7741 599.4C62.3807 598.933 62.1841 598.24 62.1841 597.32C62.1841 596.393 62.3841 595.693 62.7841 595.22C63.1841 594.747 63.7107 594.51 64.3641 594.51C64.6374 594.51 64.8741 594.547 65.0741 594.62C65.2807 594.687 65.4574 594.78 65.6041 594.9C65.7574 595.02 65.8874 595.153 65.9941 595.3H66.0541C66.0407 595.207 66.0241 595.073 66.0041 594.9C65.9841 594.72 65.9741 594.56 65.9741 594.42V592.4H67.0341V600H66.2041L66.0241 599.28H65.9741C65.8741 599.433 65.7474 599.573 65.5941 599.7C65.4474 599.82 65.2707 599.917 65.0641 599.99C64.8574 600.063 64.6174 600.1 64.3441 600.1ZM64.5941 599.23C65.1141 599.23 65.4807 599.087 65.6941 598.8C65.9074 598.507 66.0141 598.07 66.0141 597.49V597.33C66.0141 596.697 65.9107 596.213 65.7041 595.88C65.5041 595.547 65.1307 595.38 64.5841 595.38C64.1507 595.38 63.8241 595.557 63.6041 595.91C63.3841 596.257 63.2741 596.733 63.2741 597.34C63.2741 597.947 63.3841 598.413 63.6041 598.74C63.8241 599.067 64.1541 599.23 64.5941 599.23ZM74.3529 594.23C74.3529 594.45 74.3462 594.66 74.3329 594.86C74.3262 595.053 74.3162 595.207 74.3029 595.32H74.3529C74.5062 595.093 74.7129 594.903 74.9729 594.75C75.2329 594.597 75.5696 594.52 75.9829 594.52C76.6296 594.52 77.1496 594.753 77.5429 595.22C77.9429 595.687 78.1429 596.38 78.1429 597.3C78.1429 597.92 78.0529 598.437 77.8729 598.85C77.6929 599.263 77.4396 599.577 77.1129 599.79C76.7862 599.997 76.4062 600.1 75.9729 600.1C75.5529 600.1 75.2162 600.027 74.9629 599.88C74.7096 599.727 74.5062 599.547 74.3529 599.34H74.2729L74.0729 600H73.2929V592.4H74.3529V594.23ZM75.7329 595.38C75.3862 595.38 75.1129 595.447 74.9129 595.58C74.7129 595.713 74.5696 595.917 74.4829 596.19C74.3962 596.463 74.3529 596.81 74.3529 597.23V597.31C74.3529 597.93 74.4529 598.407 74.6529 598.74C74.8529 599.067 75.2196 599.23 75.7529 599.23C76.1796 599.23 76.5029 599.063 76.7229 598.73C76.9429 598.397 77.0529 597.917 77.0529 597.29C77.0529 596.657 76.9429 596.18 76.7229 595.86C76.5029 595.54 76.1729 595.38 75.7329 595.38ZM79.4788 594.61H80.6188L81.7388 597.67C81.7988 597.823 81.8521 597.973 81.8988 598.12C81.9454 598.267 81.9854 598.413 82.0188 598.56C82.0588 598.7 82.0888 598.84 82.1087 598.98H82.1488C82.1821 598.807 82.2354 598.603 82.3088 598.37C82.3821 598.13 82.4588 597.893 82.5388 597.66L83.5988 594.61H84.7388L82.4288 600.73C82.3021 601.077 82.1454 601.373 81.9588 601.62C81.7721 601.873 81.5488 602.067 81.2888 602.2C81.0354 602.333 80.7354 602.4 80.3888 602.4C80.2221 602.4 80.0788 602.39 79.9588 602.37C79.8388 602.357 79.7354 602.34 79.6488 602.32V601.48C79.7221 601.493 79.8088 601.507 79.9088 601.52C80.0154 601.533 80.1254 601.54 80.2388 601.54C80.4454 601.54 80.6221 601.5 80.7688 601.42C80.9221 601.34 81.0488 601.227 81.1488 601.08C81.2554 600.933 81.3454 600.767 81.4188 600.58L81.6388 600L79.4788 594.61Z" fill="white"/>
</svg>
