<svg width="23" height="24" viewBox="0 0 23 24" fill="none" xmlns="http://www.w3.org/2000/svg">
<rect width="23" height="24" rx="5" fill="#9DECB8"/>
<rect x="9.04626" y="5.11719" width="8.86154" height="12.9969" rx="2.95385" fill="#9DECB8"/>
<path fill-rule="evenodd" clip-rule="evenodd" d="M11.3502 5H12.6498C13.7809 5 14.6769 5 15.3778 5.09415C16.0991 5.19138 16.6831 5.39569 17.144 5.856C17.6043 6.31692 17.8086 6.90092 17.9058 7.62215C18 8.32369 18 9.21908 18 10.3502V12.8806C18 14.0117 18 14.9077 17.9058 15.6086C17.8086 16.3298 17.6043 16.9138 17.144 17.3748C16.6831 17.8351 16.0991 18.0394 15.3778 18.1366C14.6763 18.2308 13.7809 18.2308 12.6498 18.2308H11.3502C10.2191 18.2308 9.32308 18.2308 8.62215 18.1366C7.90092 18.0394 7.31692 17.8351 6.856 17.3748C6.39569 16.9138 6.19138 16.3298 6.09415 15.6086C6 14.9071 6 14.0117 6 12.8806V10.3502C6 9.21908 6 8.32308 6.09415 7.62215C6.19138 6.90092 6.39569 6.31692 6.856 5.856C7.31692 5.39569 7.90092 5.19138 8.62215 5.09415C9.32369 5 10.2191 5 11.3502 5ZM8.74462 6.00923C8.12554 6.09231 7.76862 6.24862 7.50769 6.50892C7.248 6.76923 7.09169 7.12615 7.00862 7.74523C6.92369 8.37785 6.92246 9.21108 6.92246 10.3846V12.8462C6.92246 14.0197 6.92369 14.8535 7.00862 15.4862C7.09169 16.1046 7.248 16.4615 7.50831 16.7218C7.76862 16.9822 8.12554 17.1385 8.74462 17.2215C9.37723 17.3065 10.2105 17.3077 11.384 17.3077H12.6148C13.7883 17.3077 14.6222 17.3065 15.2548 17.2215C15.8732 17.1385 16.2302 16.9822 16.4905 16.7218C16.7508 16.4615 16.9071 16.1046 16.9902 15.4855C17.0751 14.8535 17.0763 14.0197 17.0763 12.8462V10.3846C17.0763 9.21108 17.0751 8.37785 16.9902 7.74462C16.9071 7.12615 16.7508 6.76923 16.4905 6.50892C16.2302 6.24862 15.8732 6.09231 15.2542 6.00923C14.6222 5.92431 13.7883 5.92308 12.6148 5.92308H11.384C10.2105 5.92308 9.37785 5.92431 8.74462 6.00923ZM9.07692 10.3846C9.07692 10.2622 9.12555 10.1448 9.2121 10.0583C9.29866 9.9717 9.41605 9.92308 9.53846 9.92308H14.4615C14.5839 9.92308 14.7013 9.9717 14.7879 10.0583C14.8745 10.1448 14.9231 10.2622 14.9231 10.3846C14.9231 10.507 14.8745 10.6244 14.7879 10.711C14.7013 10.7975 14.5839 10.8462 14.4615 10.8462H9.53846C9.41605 10.8462 9.29866 10.7975 9.2121 10.711C9.12555 10.6244 9.07692 10.507 9.07692 10.3846ZM9.07692 12.8462C9.07692 12.7237 9.12555 12.6064 9.2121 12.5198C9.29866 12.4332 9.41605 12.3846 9.53846 12.3846H12.6154C12.7378 12.3846 12.8552 12.4332 12.9417 12.5198C13.0283 12.6064 13.0769 12.7237 13.0769 12.8462C13.0769 12.9686 13.0283 13.086 12.9417 13.1725C12.8552 13.2591 12.7378 13.3077 12.6154 13.3077H9.53846C9.41605 13.3077 9.29866 13.2591 9.2121 13.1725C9.12555 13.086 9.07692 12.9686 9.07692 12.8462Z" fill="black"/>
</svg>
