<svg width="49" height="46" viewBox="0 0 49 46" fill="none" xmlns="http://www.w3.org/2000/svg">
<rect x="0.887695" y="0.0991211" width="48" height="45" rx="10" fill="#231E54"/>
<path d="M18.3238 9.76651C18.3238 9.08678 18.8749 8.53574 19.5546 8.53574H30.2213C30.901 8.53574 31.452 9.08678 31.452 9.76651V13.4588H18.3238V9.76651Z" stroke="white" stroke-width="0.820513"/>
<rect x="12.1699" y="13.0488" width="28.7179" height="22.1538" rx="4.10256" fill="#231E54"/>
<rect x="8.8877" y="13.0488" width="32" height="22.1538" rx="4.10256" fill="white"/>
<circle cx="24.8879" cy="24.1257" r="6.5641" fill="#F6B41A" stroke="black" stroke-width="0.820513"/>
<path d="M23.2477 26.7925H22.1838V20.6269H23.1409L26.2002 24.9466H26.2386V20.6269H27.2983V26.7925H26.3497L23.2861 22.4684H23.2477V26.7925Z" fill="black"/>
<line x1="20.7661" y1="23.6049" x2="22.5162" y2="23.6049" stroke="black" stroke-width="0.875064"/>
<line x1="20.7661" y1="25.3549" x2="22.5162" y2="25.3549" stroke="black" stroke-width="0.875064"/>
<line x1="26.8916" y1="23.6049" x2="28.6417" y2="23.6049" stroke="black" stroke-width="0.875064"/>
<line x1="26.8916" y1="25.3549" x2="28.6417" y2="25.3549" stroke="black" stroke-width="0.875064"/>
</svg>
