<svg width="49" height="46" viewBox="0 0 49 46" fill="none" xmlns="http://www.w3.org/2000/svg">
<rect x="0.887695" y="0.0991211" width="48" height="45" rx="10" fill="#F6B41A"/>
<rect x="19.627" y="30.4688" width="14.0218" height="2.80436" rx="1.40218" fill="#F6B41A"/>
<rect x="19.627" y="34.208" width="14.0218" height="2.80436" rx="1.40218" fill="#F6B41A"/>
<ellipse cx="26.6376" cy="14.5772" rx="6.07611" ry="6.5435" fill="#F6B41A"/>
<path d="M32.3131 23.3948C31.2505 23.0807 29.798 23.1315 28.8004 23.7889C27.8027 24.4463 27.183 25.7609 27.0525 26.8613C28.1786 27.2832 29.4841 27.1795 30.5652 26.4672C31.6463 25.7548 32.2566 24.5961 32.3131 23.3948Z" fill="#F6B41A"/>
<path d="M19.5746 21.5252C20.6372 21.2111 22.0897 21.2619 23.0873 21.9193C24.085 22.5767 24.7047 23.8913 24.8352 24.9916C23.7091 25.4136 22.4036 25.3099 21.3225 24.5975C20.2414 23.8852 19.6311 22.7265 19.5746 21.5252Z" fill="#F6B41A"/>
<circle cx="25.3375" cy="14.7491" r="7.20002" stroke="black" stroke-width="0.900003"/>
<path d="M31.9308 24.638C30.8682 24.3239 29.4157 24.3746 28.418 25.0321C27.4204 25.6895 26.8007 27.0041 26.6702 28.1044C27.7963 28.5264 29.1018 28.4227 30.1829 27.7103C31.264 26.998 31.8743 25.8393 31.9308 24.638Z" stroke="black" stroke-width="0.900003"/>
<path d="M18.5702 22.8387C19.6328 22.5246 21.0853 22.5753 22.0829 23.2327C23.0806 23.8901 23.7003 25.2048 23.8308 26.3051C22.7047 26.7271 21.3992 26.6234 20.3181 25.911C19.237 25.1986 18.6267 24.04 18.5702 22.8387Z" stroke="black" stroke-width="0.900003"/>
<line x1="25.3377" y1="22.3989" x2="25.3377" y2="30.499" stroke="black" stroke-width="0.900003"/>
<line x1="25.5299" y1="29.0452" x2="29.1299" y2="26.5303" stroke="black" stroke-width="0.900003"/>
<line y1="-0.450001" x2="4.3914" y2="-0.450001" transform="matrix(-0.819787 -0.572669 -0.572669 0.819787 24.8877 27.6138)" stroke="black" stroke-width="0.900003"/>
<rect x="16.3377" y="30.0491" width="17.1001" height="3.60001" rx="1.80001" stroke="black" stroke-width="0.900003"/>
<rect x="16.3377" y="33.6492" width="17.1001" height="3.60001" rx="1.80001" stroke="black" stroke-width="0.900003"/>
<path d="M23.8403 17.8994H22.7461V11.5581H23.7305L26.877 16.001H26.9165V11.5581H28.0064V17.8994H27.0308L23.8799 13.4521H23.8403V17.8994Z" fill="black"/>
<line x1="21.2876" y1="13.8498" x2="23.0876" y2="13.8498" stroke="black" stroke-width="0.900003"/>
<line x1="21.2876" y1="15.6491" x2="23.0876" y2="15.6491" stroke="black" stroke-width="0.900003"/>
<line x1="27.5879" y1="13.8498" x2="29.3879" y2="13.8498" stroke="black" stroke-width="0.900003"/>
<line x1="27.5879" y1="15.6491" x2="29.3879" y2="15.6491" stroke="black" stroke-width="0.900003"/>
</svg>
