<svg width="23" height="24" viewBox="0 0 23 24" fill="none" xmlns="http://www.w3.org/2000/svg">
<rect width="23" height="24" rx="5" fill="#EC9DB9"/>
<path d="M7.29102 14.8335C7.29102 12.8584 7.29102 11.8702 7.80669 11.257C8.32177 10.6431 9.1519 10.6431 10.811 10.6431H15.5042C17.1633 10.6431 17.9934 10.6431 18.5085 11.257C19.0242 11.8702 19.0242 12.8584 19.0242 14.8335C19.0242 16.8086 19.0242 17.7968 18.5085 18.41C17.9934 19.0239 17.1633 19.0239 15.5042 19.0239H10.811C9.1519 19.0239 8.32177 19.0239 7.80669 18.41C7.29102 17.7968 7.29102 16.8086 7.29102 14.8335Z" fill="#EC9DB9"/>
<path d="M5 14.7778C5 12.8027 5 11.8145 5.6139 11.2013C6.22709 10.5874 7.21533 10.5874 9.19042 10.5874H14.7776C16.7527 10.5874 17.741 10.5874 18.3542 11.2013C18.9681 11.8145 18.9681 12.8027 18.9681 14.7778C18.9681 16.7529 18.9681 17.7411 18.3542 18.3543C17.741 18.9682 16.7527 18.9682 14.7776 18.9682H9.19042C7.21533 18.9682 6.22709 18.9682 5.6139 18.3543C5 17.7411 5 16.7529 5 14.7778Z" stroke="black" stroke-width="1.0476"/>
<path d="M7.79395 10.5872V9.19042C7.79395 8.07905 8.23543 7.0132 9.02129 6.22734C9.80715 5.44149 10.873 5 11.9844 5C13.0957 5 14.1616 5.44149 14.9474 6.22734C15.7333 7.0132 16.1748 8.07905 16.1748 9.19042V10.5872" stroke="black" stroke-width="1.0476" stroke-linecap="round"/>
<path d="M9.19043 14.7778H9.19672M11.9778 14.7778H11.984M14.7714 14.7778H14.7777" stroke="black" stroke-width="1.39681" stroke-linecap="round" stroke-linejoin="round"/>
</svg>
