<svg width="46" height="44" viewBox="0 0 46 44" fill="none" xmlns="http://www.w3.org/2000/svg">
<rect width="46" height="44" rx="7" fill="#C978E5"/>
<rect x="17.5846" y="29.4038" width="13.4421" height="2.68842" rx="1.34421" fill="#C978E5"/>
<rect x="17.5846" y="32.9883" width="13.4421" height="2.68842" rx="1.34421" fill="#C978E5"/>
<ellipse cx="24.3056" cy="14.1695" rx="5.82492" ry="6.27299" fill="#C978E5"/>
<path d="M29.7467 22.6222C28.728 22.321 27.3356 22.3697 26.3792 23C25.4228 23.6302 24.8287 24.8905 24.7036 25.9453C25.7832 26.3498 27.0347 26.2504 28.0711 25.5675C29.1075 24.8846 29.6925 23.7738 29.7467 22.6222Z" fill="#C978E5"/>
<path d="M17.5346 20.8302C18.5532 20.5291 19.9456 20.5777 20.9021 21.208C21.8585 21.8382 22.4525 23.0985 22.5777 24.1533C21.4981 24.5579 20.2466 24.4584 19.2102 23.7755C18.1738 23.0926 17.5887 21.9818 17.5346 20.8302Z" fill="#C978E5"/>
<circle cx="23.0594" cy="14.3338" r="6.90237" stroke="black" stroke-width="0.862796"/>
<path d="M29.3798 23.8141C28.3611 23.5129 26.9687 23.5616 26.0122 24.1918C25.0558 24.8221 24.4618 26.0824 24.3366 27.1372C25.4162 27.5417 26.6677 27.4423 27.7041 26.7594C28.7405 26.0765 29.3256 24.9657 29.3798 23.8141Z" stroke="black" stroke-width="0.862796"/>
<path d="M16.5716 22.089C17.5903 21.7878 18.9827 21.8365 19.9391 22.4667C20.8955 23.097 21.4896 24.3573 21.6147 25.4121C20.5351 25.8166 19.2836 25.7172 18.2472 25.0343C17.2108 24.3514 16.6258 23.2406 16.5716 22.089Z" stroke="black" stroke-width="0.862796"/>
<line x1="23.0594" y1="21.6675" x2="23.0594" y2="29.4326" stroke="black" stroke-width="0.862796"/>
<line x1="23.2437" y1="28.0389" x2="26.6949" y2="25.6281" stroke="black" stroke-width="0.862796"/>
<line y1="-0.431398" x2="4.20986" y2="-0.431398" transform="matrix(-0.819787 -0.572669 -0.572669 0.819787 22.628 26.667)" stroke="black" stroke-width="0.862796"/>
<rect x="14.4314" y="29.0017" width="16.3931" height="3.45118" rx="1.72559" stroke="black" stroke-width="0.862796"/>
<rect x="14.4314" y="32.4529" width="16.3931" height="3.45118" rx="1.72559" stroke="black" stroke-width="0.862796"/>
<path d="M21.6236 16.7261H20.5746V10.6469H21.5183L24.5347 14.9061H24.5726V10.6469H25.6174V16.7261H24.6821L21.6615 12.4626H21.6236V16.7261Z" fill="black"/>
<line x1="19.1768" y1="13.4714" x2="20.9023" y2="13.4714" stroke="black" stroke-width="0.862796"/>
<line x1="19.1768" y1="15.1965" x2="20.9023" y2="15.1965" stroke="black" stroke-width="0.862796"/>
<line x1="25.2163" y1="13.4714" x2="26.9419" y2="13.4714" stroke="black" stroke-width="0.862796"/>
<line x1="25.2163" y1="15.1965" x2="26.9419" y2="15.1965" stroke="black" stroke-width="0.862796"/>
</svg>
